<svg xmlns="http://www.w3.org/2000/svg" xmlns:bx="https://boxy-svg.com" viewBox="37 102 89 60">
  <path d="M 111.925 102.588 C 112.038 102.445 112.202 102.359 112.351 102.258 C 112.433 102.315 112.519 102.371 112.604 102.429 C 112.213 102.968 111.715 103.426 111.363 103.991 C 115.848 104.514 120.334 105.022 124.818 105.543 C 124.888 105.539 124.947 105.565 124.994 105.619 C 120.888 106.478 116.78 107.334 112.673 108.194 C 112.155 108.309 111.633 108.404 111.12 108.539 C 109.393 108.842 107.686 109.252 105.964 109.591 C 87.375 113.477 68.785 117.362 50.195 121.243 C 49.378 121.393 48.572 121.623 47.751 121.725 C 44.935 120.945 42.132 120.101 39.321 119.292 C 38.797 119.103 38.23 119.038 37.736 118.775 C 37.898 118.75 38.062 118.721 38.224 118.692 C 54.577 115.396 70.93 112.112 87.282 108.821 C 88.186 108.639 89.09 108.454 89.995 108.274 C 97.048 106.865 104.095 105.423 111.151 104.028 C 111.159 103.992 111.175 103.921 111.183 103.884 C 111.239 103.68 111.335 103.49 111.495 103.347 C 111.724 103.148 111.767 102.833 111.925 102.588 Z" fill="#D5B79D" stroke="#D5B79D" style="" stroke-width=".0938"/>
  <path d="M 105.963 109.591 C 107.684 109.252 109.391 108.842 111.118 108.539 C 110.636 120.325 110.149 132.113 109.667 143.9 C 109.657 144.191 109.658 144.485 109.613 144.775 C 86.444 150.1 63.277 155.437 40.108 160.766 C 39.281 146.857 38.48 132.945 37.668 119.032 C 37.656 118.961 37.633 118.82 37.621 118.75 C 37.649 118.756 37.706 118.77 37.734 118.775 C 38.229 119.038 38.795 119.103 39.32 119.292 C 42.131 120.101 44.934 120.945 47.749 121.725 C 48.57 121.623 49.377 121.393 50.193 121.243 C 68.784 117.362 87.373 113.477 105.963 109.591 Z" fill="#AF8B67" stroke="#AF8B67" style="" stroke-width=".0938"/>
</svg>