<svg xmlns="http://www.w3.org/2000/svg" xmlns:bx="https://boxy-svg.com" viewBox="0 58 131 105">
  <path d="M 76.529 60.205 C 77.281 60.092 78.031 59.95 78.79 59.897 C 81.955 66.832 85.083 73.783 88.237 80.724 C 88.212 80.742 88.161 80.775 88.137 80.792 C 66.12 84.613 44.1 88.418 22.086 92.248 C 22.065 92.231 22.021 92.2 22.001 92.183 C 21.978 92.014 21.934 91.85 21.878 91.69 C 19.882 85.967 17.888 80.244 15.896 74.519 C 15.321 72.849 14.71 71.19 14.172 69.508 C 18.556 68.823 22.949 68.202 27.335 67.534 C 43.734 65.094 60.13 62.644 76.529 60.205 Z" fill="#E0C8B0" stroke="#E0C8B0" style="" stroke-width=".0938"/>  <path d="M 105.716 59.88 C 111.085 64.376 116.434 68.902 121.792 73.414 C 124.659 75.816 127.515 78.232 130.374 80.643 C 130.601 80.781 130.321 80.983 130.236 81.121 C 124.356 88.222 118.485 95.331 112.603 102.429 C 112.517 102.371 112.433 102.315 112.35 102.258 C 112.201 102.359 112.037 102.445 111.924 102.588 C 111.766 102.833 111.723 103.148 111.494 103.347 C 111.334 103.49 111.238 103.68 111.182 103.884 C 104.394 97.047 97.616 90.197 90.814 83.371 C 90.276 82.806 89.714 82.265 89.175 81.703 C 88.86 81.402 88.581 81.061 88.23 80.802 L 88.141 80.792 C 88.166 80.775 88.215 80.742 88.24 80.724 C 88.65 80.341 88.964 79.866 89.343 79.452 C 93.99 73.887 98.64 68.326 103.286 62.762 C 104.098 61.802 104.888 60.825 105.716 59.88 Z" fill="#D5B699" stroke="#D5B699" style="" stroke-width=".0938"/>
  <path d="M 0 80.162 C 1.232 80.764 2.418 81.463 3.625 82.113 C 9.56 85.358 15.493 88.603 21.426 91.849 C 21.622 91.953 21.819 92.054 22.002 92.183 C 22.024 92.2 22.067 92.231 22.087 92.248 C 22.112 92.267 22.16 92.306 22.184 92.325 C 25.383 97.85 28.63 103.347 31.838 108.866 C 33.073 111.034 34.359 113.176 35.607 115.339 C 36.262 116.429 36.877 117.541 37.545 118.624 C 37.138 118.608 36.826 118.304 36.483 118.124 C 31.734 115.417 26.969 112.733 22.231 110.006 C 22.212 110.183 22.195 110.362 22.185 110.542 C 22.166 110.384 22.151 110.225 22.137 110.068 C 19.609 108.566 17.051 107.109 14.524 105.606 C 14.09 105.016 13.796 104.327 13.405 103.705 C 9.853 97.475 6.299 91.247 2.746 85.019 C 1.835 83.398 0.883 81.798 0 80.162 Z" fill="#D3B9A0" stroke="#D3B9A0" style="" stroke-width=".0938"/>
  <path d="M 22.087 92.248 C 44.102 88.418 66.122 84.613 88.139 80.792 L 88.228 80.802 C 87.944 90.144 87.562 99.481 87.279 108.821 C 70.927 112.112 54.573 115.396 38.222 118.692 C 38.059 118.721 37.896 118.75 37.733 118.775 C 37.704 118.77 37.648 118.756 37.62 118.75 C 37.594 118.705 37.569 118.664 37.545 118.624 C 36.877 117.541 36.262 116.429 35.607 115.339 C 34.359 113.176 33.073 111.034 31.838 108.866 C 31.9 108.693 31.887 108.509 31.772 108.363 C 31.239 107.545 30.794 106.676 30.291 105.84 C 29.827 104.92 29.252 104.063 28.758 103.16 C 28.134 102.125 27.609 101.034 26.975 100.004 C 26.255 98.845 25.595 97.647 24.938 96.452 C 24.191 95.188 23.479 93.901 22.735 92.633 C 22.633 92.42 22.378 92.402 22.184 92.325 C 22.16 92.306 22.112 92.267 22.087 92.248 Z" fill="#A08165" stroke="#A08165" style="" stroke-width=".0938"/>
  <path d="M 88.232 80.802 C 88.585 81.061 88.863 81.402 89.179 81.703 C 89.717 82.265 90.278 82.806 90.816 83.371 C 90.638 89.254 90.425 95.137 90.25 101.022 C 90.166 102.139 90.201 103.261 90.123 104.379 C 90.079 105.678 90.08 106.977 89.996 108.274 C 89.092 108.454 88.188 108.639 87.284 108.821 C 87.566 99.481 87.948 90.144 88.232 80.802 Z" fill="#78492D" stroke="#78492D" style="" stroke-width=".0938"/>
  <path d="M 90.811 83.371 C 97.614 90.197 104.392 97.047 111.18 103.884 C 111.173 103.921 111.157 103.992 111.149 104.028 C 104.093 105.423 97.045 106.865 89.993 108.274 C 90.076 106.977 90.074 105.678 90.119 104.379 C 90.197 103.261 90.16 102.139 90.246 101.022 C 90.419 95.137 90.633 89.254 90.811 83.371 Z" fill="#916945" stroke="#916945" style="" stroke-width=".0938"/>
  <path d="M 22.184 92.325 C 22.378 92.402 22.633 92.42 22.735 92.633 C 23.479 93.901 24.191 95.188 24.938 96.452 C 25.595 97.647 26.255 98.845 26.975 100.004 C 27.609 101.034 28.134 102.125 28.758 103.16 C 29.252 104.063 29.827 104.92 30.291 105.84 C 30.794 106.676 31.239 107.545 31.772 108.363 C 31.887 108.509 31.9 108.693 31.838 108.866 C 28.63 103.347 25.383 97.85 22.184 92.325 Z" fill="#927153" stroke="#927153" style="" stroke-width=".0938"/>
  <path d="M 22.231 110.006 C 26.969 112.733 31.734 115.417 36.483 118.124 C 36.826 118.304 37.138 118.608 37.545 118.624 C 37.569 118.664 37.594 118.705 37.62 118.75 C 37.632 118.82 37.655 118.961 37.667 119.032 C 38.479 132.945 39.28 146.857 40.107 160.766 C 34.521 151.137 28.959 141.495 23.38 131.861 C 23.268 131.692 23.278 131.482 23.269 131.288 C 22.916 124.373 22.531 117.457 22.185 110.542 C 22.195 110.362 22.212 110.183 22.231 110.006 Z" fill="#C1A389" stroke="#C1A389" style="" stroke-width=".0938"/>
</svg>