<!--?xml version="1.0" standalone="no"?-->
<svg id="code_regentropf_py_ecf78cd4_999f_4e66_9160_1ed6f6bd4c1b_svg" width="110" height="155" xmlns="http://www.w3.org/2000/svg" viewBox="195,240,110,155">
<g transform="translate(250 250)">
<line x1="0" y1="0" x2="0" y2="0" style="stroke: black; stroke-width: 1;"></line>
<circle cx="0" cy="0" r="5" fill="black" style=""></circle>
<line x1="0" y1="0" x2="6.123233995736766e-16" y2="10" style="stroke: black; stroke-width: 1;"></line>
<circle cx="6.123233995736766e-16" cy="10" r="10" fill="black" style=""></circle>
<line x1="6.123233995736766e-16" y1="10" x2="1.2246467991473533e-15" y2="20" style="stroke: black; stroke-width: 1;"></line>
<circle cx="1.2246467991473533e-15" cy="20" r="15" fill="black" style=""></circle>
<line x1="1.2246467991473533e-15" y1="20" x2="1.83697019872103e-15" y2="30" style="stroke: black; stroke-width: 1;"></line>
<circle cx="1.83697019872103e-15" cy="30" r="20" fill="black" style=""></circle>
<line x1="1.83697019872103e-15" y1="30" x2="2.4492935982947065e-15" y2="40" style="stroke: black; stroke-width: 1;"></line>
<circle cx="2.4492935982947065e-15" cy="40" r="25" fill="black" style=""></circle>
<line x1="2.4492935982947065e-15" y1="40" x2="3.061616997868383e-15" y2="50" style="stroke: black; stroke-width: 1;"></line>
<circle cx="3.061616997868383e-15" cy="50" r="30" fill="black" style=""></circle>
<line x1="3.061616997868383e-15" y1="50" x2="3.67394039744206e-15" y2="60" style="stroke: black; stroke-width: 1;"></line>
<circle cx="3.67394039744206e-15" cy="60" r="35" fill="black" style=""></circle>
<line x1="3.67394039744206e-15" y1="60" x2="4.2862637970157365e-15" y2="70" style="stroke: black; stroke-width: 1;"></line>
<circle cx="4.2862637970157365e-15" cy="70" r="40" fill="black" style=""></circle>
<line x1="4.2862637970157365e-15" y1="70" x2="4.898587196589413e-15" y2="80" style="stroke: black; stroke-width: 1;"></line>
<circle cx="4.898587196589413e-15" cy="80" r="45" fill="black" style=""></circle>
<line x1="4.898587196589413e-15" y1="80" x2="5.5109105961630896e-15" y2="90" style="stroke: black; stroke-width: 1;"></line>
<circle cx="5.5109105961630896e-15" cy="90" r="50" fill="black" style=""></circle>
<line x1="5.5109105961630896e-15" y1="90" x2="6.123233995736766e-15" y2="100" style="stroke: black; stroke-width: 1;"></line>
</g>
<g transform="translate(250 250)">
<polygon points="0,0 ,-5,-9 ,0,-7 ,5,-9 " stroke="black" fill="black" stroke-width="1" opacity="1" transform="translate(6.123233995736766e-15,100.0) rotate(0.0,0,0)"></polygon>
</g>
<metadata><raw>from turtle import *
right(90)
print('from turtle import *')
print('right(90)')
s = 10
for i in range(10):
    dot(s*i + s)
    forward(s)
    print(f'dot({s*i+s})')
    print(f'forward({s})')</raw></metadata></svg>