<svg version="1.1" xmlns="http://www.w3.org/2000/svg" viewBox="0 0 301.1919222571788 355.8116208822142" width="301.1919222571788" height="355.8116208822142"><!-- svg-source:excalidraw --><metadata/><defs><style class="style-fonts">
      </style></defs><g stroke-linecap="round"><g transform="translate(37.68914310275976 193.1896210637735) rotate(0 10 0)"><path d="M0 0 C3.33 0, 16.67 0, 20 0 M0 0 C3.33 0, 16.67 0, 20 0" stroke="#1e1e1e" stroke-width="4" fill="none"/></g></g><mask/><g stroke-linecap="round"><g transform="translate(47.689143102759786 193.18962091738396) rotate(0 0 7.473713573194786)"><path d="M0 0 C0 2.49, 0 12.46, 0 14.95 M0 0 C0 2.49, 0 12.46, 0 14.95" stroke="#1e1e1e" stroke-width="4" fill="none"/></g></g><mask/><g stroke-linecap="round"><g transform="translate(27.689143102759814 186.6295600637735) rotate(0 20 0)"><path d="M0 0 C6.67 0, 33.33 0, 40 0 M0 0 C6.67 0, 33.33 0, 40 0" stroke="#1e1e1e" stroke-width="4" fill="none"/></g></g><mask/><g stroke-linecap="round"><g transform="translate(47.68914342742006 168.13704765795973) rotate(0 0 7.473713573194793)"><path d="M0 0 C0 2.49, 0 12.46, 0 14.95 M0 0 C0 2.49, 0 12.46, 0 14.95" stroke="#1e1e1e" stroke-width="4" fill="none"/></g></g><mask/><g stroke-linecap="round"><g transform="translate(4.000000221952134 163.8683104553789) rotate(0 14.198480511054859 0)"><path d="M0 0 C4.73 0, 23.66 0, 28.4 0 M0 0 C4.73 0, 23.66 0, 28.4 0" stroke="#e03131" stroke-width="4" fill="none"/></g></g><mask/><g stroke-linecap="round"><g transform="translate(18.256122443787064 149.8720216153851) rotate(0 0 14.19848051105486)"><path d="M0 0 C0 4.73, 0 23.66, 0 28.4 M0 0 C0 4.73, 0 23.66, 0 28.4" stroke="#e03131" stroke-width="4" fill="none"/></g></g><mask/><g stroke-linecap="round"><g transform="translate(4 211.91752163564516) rotate(0 14.259337102759815 0)"><path d="M0 0 C4.75 0, 23.77 0, 28.52 0 M0 0 C4.75 0, 23.77 0, 28.52 0" stroke="#1971c2" stroke-width="4" fill="none"/></g></g><mask/><g stroke-linecap="round" transform="translate(197.1919222571788 147.42228280323604) rotate(0 50.000000000000014 40)"><path d="M0 0 C30.8 0, 61.59 0, 100 0 M0 0 C24.14 0, 48.27 0, 100 0 M100 0 C100 21.91, 100 43.83, 100 80 M100 0 C100 23.34, 100 46.69, 100 80 M100 80 C70.36 80, 40.72 80, 0 80 M100 80 C79.28 80, 58.56 80, 0 80 M0 80 C0 63.88, 0 47.76, 0 0 M0 80 C0 61.97, 0 43.95, 0 0" stroke="#1e1e1e" stroke-width="4" fill="none"/></g><g stroke-linecap="round"><g transform="translate(217.1919222571788 167.42228280323604) rotate(0 3.3333333333333286 6.666666666666671)"><path d="M0 0 C1.11 1.11, 6.67 4.44, 6.67 6.67 C6.67 8.89, 1.11 12.22, 0 13.33 M0 0 C1.11 1.11, 6.67 4.44, 6.67 6.67 C6.67 8.89, 1.11 12.22, 0 13.33" stroke="#1e1e1e" stroke-width="4" fill="none"/></g></g><mask/><g stroke-linecap="round"><g transform="translate(217.1919222571788 180.75561613656942) rotate(0 3.3333333333333286 6.666666666666671)"><path d="M0 0 C1.11 1.11, 6.67 4.44, 6.67 6.67 C6.67 8.89, 1.11 12.22, 0 13.33 M0 0 C1.11 1.11, 6.67 4.44, 6.67 6.67 C6.67 8.89, 1.11 12.22, 0 13.33" stroke="#1e1e1e" stroke-width="4" fill="none"/></g></g><mask/><g stroke-linecap="round"><g transform="translate(217.1919222571788 194.08894946990273) rotate(0 3.3333333333333286 6.666666666666671)"><path d="M0 0 C1.11 1.11, 6.67 4.44, 6.67 6.67 C6.67 8.89, 1.11 12.22, 0 13.33 M0 0 C1.11 1.11, 6.67 4.44, 6.67 6.67 C6.67 8.89, 1.11 12.22, 0 13.33" stroke="#1e1e1e" stroke-width="4" fill="none"/></g></g><mask/><g stroke-linecap="round"><g transform="translate(217.1919222571788 127.42228280323604) rotate(0 0 20)"><path d="M0 0 C0 6.67, 0 33.33, 0 40 M0 0 C0 6.67, 0 33.33, 0 40" stroke="#1e1e1e" stroke-width="4" fill="none"/></g></g><mask/><g stroke-linecap="round"><g transform="translate(217.1919222571788 247.42228280323604) rotate(0 0 -20)"><path d="M0 0 C0 -6.67, 0 -33.33, 0 -40 M0 0 C0 -6.67, 0 -33.33, 0 -40" stroke="#1e1e1e" stroke-width="4" fill="none"/></g></g><mask/><g stroke-linecap="round"><g transform="translate(257.1919222571787 127.42228280323604) rotate(0 0 20)"><path d="M0 0 C0 6.67, 0 33.33, 0 40 M0 0 C0 6.67, 0 33.33, 0 40" stroke="#1e1e1e" stroke-width="4" fill="none"/></g></g><mask/><g stroke-linecap="round"><g transform="translate(237.19192225717867 207.42228280323604) rotate(0 0 20)"><path d="M0 0 C0 6.67, 0 33.33, 0 40 M0 0 C0 6.67, 0 33.33, 0 40" stroke="#1e1e1e" stroke-width="4" fill="none"/></g></g><mask/><g stroke-linecap="round"><g transform="translate(277.19192225717865 207.42228280323604) rotate(0 0 20)"><path d="M0 0 C0 6.67, 0 33.33, 0 40 M0 0 C0 6.67, 0 33.33, 0 40" stroke="#1e1e1e" stroke-width="4" fill="none"/></g></g><mask/><g stroke-linecap="round"><g transform="translate(257.1919222571787 167.42228280323604) rotate(0 9.922036809607292 19.91901363909787)"><path d="M0 0 C3.31 6.64, 16.54 33.2, 19.84 39.84 M0 0 C3.31 6.64, 16.54 33.2, 19.84 39.84" stroke="#868e96" stroke-width="4" fill="none"/></g></g><mask/><g stroke-linecap="round" transform="translate(215.59567725717872 125.82603780323603) rotate(0 1.5962447375322881 1.5962447375322881)"><path d="M3.19 1.6 C3.19 1.69, 3.18 1.78, 3.17 1.87 C3.15 1.96, 3.13 2.06, 3.1 2.14 C3.06 2.23, 3.02 2.31, 2.98 2.39 C2.93 2.47, 2.88 2.55, 2.82 2.62 C2.76 2.69, 2.69 2.76, 2.62 2.82 C2.55 2.88, 2.47 2.93, 2.39 2.98 C2.31 3.02, 2.23 3.06, 2.14 3.1 C2.06 3.13, 1.96 3.15, 1.87 3.17 C1.78 3.18, 1.69 3.19, 1.6 3.19 C1.5 3.19, 1.41 3.18, 1.32 3.17 C1.23 3.15, 1.14 3.13, 1.05 3.1 C0.96 3.06, 0.88 3.02, 0.8 2.98 C0.72 2.93, 0.64 2.88, 0.57 2.82 C0.5 2.76, 0.43 2.69, 0.37 2.62 C0.31 2.55, 0.26 2.47, 0.21 2.39 C0.17 2.31, 0.13 2.23, 0.1 2.14 C0.06 2.06, 0.04 1.96, 0.02 1.87 C0.01 1.78, 0 1.69, 0 1.6 C0 1.5, 0.01 1.41, 0.02 1.32 C0.04 1.23, 0.06 1.14, 0.1 1.05 C0.13 0.96, 0.17 0.88, 0.21 0.8 C0.26 0.72, 0.31 0.64, 0.37 0.57 C0.43 0.5, 0.5 0.43, 0.57 0.37 C0.64 0.31, 0.72 0.26, 0.8 0.21 C0.88 0.17, 0.96 0.13, 1.05 0.1 C1.14 0.06, 1.23 0.04, 1.32 0.02 C1.41 0.01, 1.5 0, 1.6 0 C1.69 0, 1.78 0.01, 1.87 0.02 C1.96 0.04, 2.06 0.06, 2.14 0.1 C2.23 0.13, 2.31 0.17, 2.39 0.21 C2.47 0.26, 2.55 0.31, 2.62 0.37 C2.69 0.43, 2.76 0.5, 2.82 0.57 C2.88 0.64, 2.93 0.72, 2.98 0.8 C3.02 0.88, 3.06 0.96, 3.1 1.05 C3.13 1.14, 3.15 1.23, 3.17 1.32 C3.18 1.41, 3.19 1.55, 3.19 1.6 C3.2 1.64, 3.2 1.55, 3.19 1.6" stroke="#1e1e1e" stroke-width="4" fill="none"/></g><g stroke-linecap="round" transform="translate(255.59567725717872 125.82603780323603) rotate(0 1.5962447375322881 1.5962447375322881)"><path d="M3.19 1.6 C3.19 1.69, 3.18 1.78, 3.17 1.87 C3.15 1.96, 3.13 2.06, 3.1 2.14 C3.06 2.23, 3.02 2.31, 2.98 2.39 C2.93 2.47, 2.88 2.55, 2.82 2.62 C2.76 2.69, 2.69 2.76, 2.62 2.82 C2.55 2.88, 2.47 2.93, 2.39 2.98 C2.31 3.02, 2.23 3.06, 2.14 3.1 C2.06 3.13, 1.96 3.15, 1.87 3.17 C1.78 3.18, 1.69 3.19, 1.6 3.19 C1.5 3.19, 1.41 3.18, 1.32 3.17 C1.23 3.15, 1.14 3.13, 1.05 3.1 C0.96 3.06, 0.88 3.02, 0.8 2.98 C0.72 2.93, 0.64 2.88, 0.57 2.82 C0.5 2.76, 0.43 2.69, 0.37 2.62 C0.31 2.55, 0.26 2.47, 0.21 2.39 C0.17 2.31, 0.13 2.23, 0.1 2.14 C0.06 2.06, 0.04 1.96, 0.02 1.87 C0.01 1.78, 0 1.69, 0 1.6 C0 1.5, 0.01 1.41, 0.02 1.32 C0.04 1.23, 0.06 1.14, 0.1 1.05 C0.13 0.96, 0.17 0.88, 0.21 0.8 C0.26 0.72, 0.31 0.64, 0.37 0.57 C0.43 0.5, 0.5 0.43, 0.57 0.37 C0.64 0.31, 0.72 0.26, 0.8 0.21 C0.88 0.17, 0.96 0.13, 1.05 0.1 C1.14 0.06, 1.23 0.04, 1.32 0.02 C1.41 0.01, 1.5 0, 1.6 0 C1.69 0, 1.78 0.01, 1.87 0.02 C1.96 0.04, 2.06 0.06, 2.14 0.1 C2.23 0.13, 2.31 0.17, 2.39 0.21 C2.47 0.26, 2.55 0.31, 2.62 0.37 C2.69 0.43, 2.76 0.5, 2.82 0.57 C2.88 0.64, 2.93 0.72, 2.98 0.8 C3.02 0.88, 3.06 0.96, 3.1 1.05 C3.13 1.14, 3.15 1.23, 3.17 1.32 C3.18 1.41, 3.19 1.55, 3.19 1.6 C3.2 1.64, 3.2 1.55, 3.19 1.6" stroke="#1e1e1e" stroke-width="4" fill="none"/></g><g stroke-linecap="round" transform="translate(215.59567788774652 247.42228520808112) rotate(0 1.5962447375322881 1.5962447375322881)"><path d="M3.19 1.6 C3.19 1.69, 3.18 1.78, 3.17 1.87 C3.15 1.96, 3.13 2.06, 3.1 2.14 C3.06 2.23, 3.02 2.31, 2.98 2.39 C2.93 2.47, 2.88 2.55, 2.82 2.62 C2.76 2.69, 2.69 2.76, 2.62 2.82 C2.55 2.88, 2.47 2.93, 2.39 2.98 C2.31 3.02, 2.23 3.06, 2.14 3.1 C2.06 3.13, 1.96 3.15, 1.87 3.17 C1.78 3.18, 1.69 3.19, 1.6 3.19 C1.5 3.19, 1.41 3.18, 1.32 3.17 C1.23 3.15, 1.14 3.13, 1.05 3.1 C0.96 3.06, 0.88 3.02, 0.8 2.98 C0.72 2.93, 0.64 2.88, 0.57 2.82 C0.5 2.76, 0.43 2.69, 0.37 2.62 C0.31 2.55, 0.26 2.47, 0.21 2.39 C0.17 2.31, 0.13 2.23, 0.1 2.14 C0.06 2.06, 0.04 1.96, 0.02 1.87 C0.01 1.78, 0 1.69, 0 1.6 C0 1.5, 0.01 1.41, 0.02 1.32 C0.04 1.23, 0.06 1.14, 0.1 1.05 C0.13 0.96, 0.17 0.88, 0.21 0.8 C0.26 0.72, 0.31 0.64, 0.37 0.57 C0.43 0.5, 0.5 0.43, 0.57 0.37 C0.64 0.31, 0.72 0.26, 0.8 0.21 C0.88 0.17, 0.96 0.13, 1.05 0.1 C1.14 0.06, 1.23 0.04, 1.32 0.02 C1.41 0.01, 1.5 0, 1.6 0 C1.69 0, 1.78 0.01, 1.87 0.02 C1.96 0.04, 2.06 0.06, 2.14 0.1 C2.23 0.13, 2.31 0.17, 2.39 0.21 C2.47 0.26, 2.55 0.31, 2.62 0.37 C2.69 0.43, 2.76 0.5, 2.82 0.57 C2.88 0.64, 2.93 0.72, 2.98 0.8 C3.02 0.88, 3.06 0.96, 3.1 1.05 C3.13 1.14, 3.15 1.23, 3.17 1.32 C3.18 1.41, 3.19 1.55, 3.19 1.6 C3.2 1.64, 3.2 1.55, 3.19 1.6" stroke="#1e1e1e" stroke-width="4" fill="none"/></g><g stroke-linecap="round" transform="translate(235.5956777448874 247.42228456569296) rotate(0 1.5962447375322881 1.5962447375322881)"><path d="M3.19 1.6 C3.19 1.69, 3.18 1.78, 3.17 1.87 C3.15 1.96, 3.13 2.06, 3.1 2.14 C3.06 2.23, 3.02 2.31, 2.98 2.39 C2.93 2.47, 2.88 2.55, 2.82 2.62 C2.76 2.69, 2.69 2.76, 2.62 2.82 C2.55 2.88, 2.47 2.93, 2.39 2.98 C2.31 3.02, 2.23 3.06, 2.14 3.1 C2.06 3.13, 1.96 3.15, 1.87 3.17 C1.78 3.18, 1.69 3.19, 1.6 3.19 C1.5 3.19, 1.41 3.18, 1.32 3.17 C1.23 3.15, 1.14 3.13, 1.05 3.1 C0.96 3.06, 0.88 3.02, 0.8 2.98 C0.72 2.93, 0.64 2.88, 0.57 2.82 C0.5 2.76, 0.43 2.69, 0.37 2.62 C0.31 2.55, 0.26 2.47, 0.21 2.39 C0.17 2.31, 0.13 2.23, 0.1 2.14 C0.06 2.06, 0.04 1.96, 0.02 1.87 C0.01 1.78, 0 1.69, 0 1.6 C0 1.5, 0.01 1.41, 0.02 1.32 C0.04 1.23, 0.06 1.14, 0.1 1.05 C0.13 0.96, 0.17 0.88, 0.21 0.8 C0.26 0.72, 0.31 0.64, 0.37 0.57 C0.43 0.5, 0.5 0.43, 0.57 0.37 C0.64 0.31, 0.72 0.26, 0.8 0.21 C0.88 0.17, 0.96 0.13, 1.05 0.1 C1.14 0.06, 1.23 0.04, 1.32 0.02 C1.41 0.01, 1.5 0, 1.6 0 C1.69 0, 1.78 0.01, 1.87 0.02 C1.96 0.04, 2.06 0.06, 2.14 0.1 C2.23 0.13, 2.31 0.17, 2.39 0.21 C2.47 0.26, 2.55 0.31, 2.62 0.37 C2.69 0.43, 2.76 0.5, 2.82 0.57 C2.88 0.64, 2.93 0.72, 2.98 0.8 C3.02 0.88, 3.06 0.96, 3.1 1.05 C3.13 1.14, 3.15 1.23, 3.17 1.32 C3.18 1.41, 3.19 1.55, 3.19 1.6 C3.2 1.64, 3.2 1.55, 3.19 1.6" stroke="#1e1e1e" stroke-width="4" fill="none"/></g><g stroke-linecap="round" transform="translate(275.59567727880057 247.4222837531733) rotate(0 1.5962447375322881 1.5962447375322881)"><path d="M3.19 1.6 C3.19 1.69, 3.18 1.78, 3.17 1.87 C3.15 1.96, 3.13 2.06, 3.1 2.14 C3.06 2.23, 3.02 2.31, 2.98 2.39 C2.93 2.47, 2.88 2.55, 2.82 2.62 C2.76 2.69, 2.69 2.76, 2.62 2.82 C2.55 2.88, 2.47 2.93, 2.39 2.98 C2.31 3.02, 2.23 3.06, 2.14 3.1 C2.06 3.13, 1.96 3.15, 1.87 3.17 C1.78 3.18, 1.69 3.19, 1.6 3.19 C1.5 3.19, 1.41 3.18, 1.32 3.17 C1.23 3.15, 1.14 3.13, 1.05 3.1 C0.96 3.06, 0.88 3.02, 0.8 2.98 C0.72 2.93, 0.64 2.88, 0.57 2.82 C0.5 2.76, 0.43 2.69, 0.37 2.62 C0.31 2.55, 0.26 2.47, 0.21 2.39 C0.17 2.31, 0.13 2.23, 0.1 2.14 C0.06 2.06, 0.04 1.96, 0.02 1.87 C0.01 1.78, 0 1.69, 0 1.6 C0 1.5, 0.01 1.41, 0.02 1.32 C0.04 1.23, 0.06 1.14, 0.1 1.05 C0.13 0.96, 0.17 0.88, 0.21 0.8 C0.26 0.72, 0.31 0.64, 0.37 0.57 C0.43 0.5, 0.5 0.43, 0.57 0.37 C0.64 0.31, 0.72 0.26, 0.8 0.21 C0.88 0.17, 0.96 0.13, 1.05 0.1 C1.14 0.06, 1.23 0.04, 1.32 0.02 C1.41 0.01, 1.5 0, 1.6 0 C1.69 0, 1.78 0.01, 1.87 0.02 C1.96 0.04, 2.06 0.06, 2.14 0.1 C2.23 0.13, 2.31 0.17, 2.39 0.21 C2.47 0.26, 2.55 0.31, 2.62 0.37 C2.69 0.43, 2.76 0.5, 2.82 0.57 C2.88 0.64, 2.93 0.72, 2.98 0.8 C3.02 0.88, 3.06 0.96, 3.1 1.05 C3.13 1.14, 3.15 1.23, 3.17 1.32 C3.18 1.41, 3.19 1.55, 3.19 1.6 C3.2 1.64, 3.2 1.55, 3.19 1.6" stroke="#1e1e1e" stroke-width="4" fill="none"/></g><g stroke-linecap="round"><g transform="translate(228.3633217503794 187.42228294637232) rotate(0 19.1634408296501 0)"><path d="M0 0 C6.39 0, 31.94 0, 38.33 0" stroke="#868e96" stroke-width="2.5" fill="none" stroke-dasharray="1.5 8"/></g></g><mask/><g stroke-linecap="round"><g transform="translate(226.51296165202913 295.52311890203157) rotate(0 10.874491862772572 10.874491862772572)" fill-rule="evenodd"><path d="M0 0 L10.87 21.75 L21.75 0 L0 0" stroke="none" stroke-width="0" fill="#1e1e1e" fill-rule="evenodd"/><path d="M0 0 C3.52 7.05, 7.05 14.09, 10.87 21.75 M0 0 C3.86 7.72, 7.72 15.45, 10.87 21.75 M10.87 21.75 C14.61 14.29, 18.34 6.82, 21.75 0 M10.87 21.75 C14.18 15.13, 17.49 8.52, 21.75 0 M21.75 0 C13.13 0, 4.51 0, 0 0 M21.75 0 C14.53 0, 7.32 0, 0 0 M0 0 C0 0, 0 0, 0 0 M0 0 C0 0, 0 0, 0 0" stroke="#1e1e1e" stroke-width="4" fill="none"/></g></g><mask/><g stroke-linecap="round"><g transform="translate(226.51296165202913 317.2721026275767) rotate(0 10.874491862772572 0)"><path d="M0 0 C8.24 0, 16.48 0, 21.75 0 M0 0 C4.57 0, 9.14 0, 21.75 0" stroke="#1e1e1e" stroke-width="4" fill="none"/></g></g><mask/><g stroke-linecap="round"><g transform="translate(217.03599557115763 5.596245087936715) rotate(0 0 20)"><path d="M0 0 C0 6.67, 0 33.33, 0 40 M0 0 C0 6.67, 0 33.33, 0 40" stroke="#1e1e1e" stroke-width="4" fill="none"/></g></g><mask/><g stroke-linecap="round" transform="translate(215.43975047041494 3.999999999999993) rotate(0 1.5962447375322881 1.5962447375322881)"><path d="M3.19 1.6 C3.19 1.69, 3.18 1.78, 3.17 1.87 C3.15 1.96, 3.13 2.06, 3.1 2.14 C3.06 2.23, 3.02 2.31, 2.98 2.39 C2.93 2.47, 2.88 2.55, 2.82 2.62 C2.76 2.69, 2.69 2.76, 2.62 2.82 C2.55 2.88, 2.47 2.93, 2.39 2.98 C2.31 3.02, 2.23 3.06, 2.14 3.1 C2.06 3.13, 1.96 3.15, 1.87 3.17 C1.78 3.18, 1.69 3.19, 1.6 3.19 C1.5 3.19, 1.41 3.18, 1.32 3.17 C1.23 3.15, 1.14 3.13, 1.05 3.1 C0.96 3.06, 0.88 3.02, 0.8 2.98 C0.72 2.93, 0.64 2.88, 0.57 2.82 C0.5 2.76, 0.43 2.69, 0.37 2.62 C0.31 2.55, 0.26 2.47, 0.21 2.39 C0.17 2.31, 0.13 2.23, 0.1 2.14 C0.06 2.06, 0.04 1.96, 0.02 1.87 C0.01 1.78, 0 1.69, 0 1.6 C0 1.5, 0.01 1.41, 0.02 1.32 C0.04 1.23, 0.06 1.14, 0.1 1.05 C0.13 0.96, 0.17 0.88, 0.21 0.8 C0.26 0.72, 0.31 0.64, 0.37 0.57 C0.43 0.5, 0.5 0.43, 0.57 0.37 C0.64 0.31, 0.72 0.26, 0.8 0.21 C0.88 0.17, 0.96 0.13, 1.05 0.1 C1.14 0.06, 1.23 0.04, 1.32 0.02 C1.41 0.01, 1.5 0, 1.6 0 C1.69 0, 1.78 0.01, 1.87 0.02 C1.96 0.04, 2.06 0.06, 2.14 0.1 C2.23 0.13, 2.31 0.17, 2.39 0.21 C2.47 0.26, 2.55 0.31, 2.62 0.37 C2.69 0.43, 2.76 0.5, 2.82 0.57 C2.88 0.64, 2.93 0.72, 2.98 0.8 C3.02 0.88, 3.06 0.96, 3.1 1.05 C3.13 1.14, 3.15 1.23, 3.17 1.32 C3.18 1.41, 3.19 1.55, 3.19 1.6 C3.2 1.64, 3.2 1.55, 3.19 1.6" stroke="#1e1e1e" stroke-width="4" fill="none"/></g><g stroke-linecap="round"><g transform="translate(217.03599470064063 127.19249151853542) rotate(0 0 -20)"><path d="M0 0 C0 -6.67, 0 -33.33, 0 -40 M0 0 C0 -6.67, 0 -33.33, 0 -40" stroke="#1e1e1e" stroke-width="4" fill="none"/></g></g><mask/><g stroke-linecap="round" transform="translate(215.4397503263187 125.59624713140758) rotate(0 1.5962447375322881 1.5962447375322846)"><path d="M3.19 1.6 C3.19 1.69, 3.18 1.78, 3.17 1.87 C3.15 1.96, 3.13 2.06, 3.1 2.14 C3.06 2.23, 3.02 2.31, 2.98 2.39 C2.93 2.47, 2.88 2.55, 2.82 2.62 C2.76 2.69, 2.69 2.76, 2.62 2.82 C2.55 2.88, 2.47 2.93, 2.39 2.98 C2.31 3.02, 2.23 3.06, 2.14 3.1 C2.06 3.13, 1.96 3.15, 1.87 3.17 C1.78 3.18, 1.69 3.19, 1.6 3.19 C1.5 3.19, 1.41 3.18, 1.32 3.17 C1.23 3.15, 1.14 3.13, 1.05 3.1 C0.96 3.06, 0.88 3.02, 0.8 2.98 C0.72 2.93, 0.64 2.88, 0.57 2.82 C0.5 2.76, 0.43 2.69, 0.37 2.62 C0.31 2.55, 0.26 2.47, 0.21 2.39 C0.17 2.31, 0.13 2.23, 0.1 2.14 C0.06 2.06, 0.04 1.96, 0.02 1.87 C0.01 1.78, 0 1.69, 0 1.6 C0 1.5, 0.01 1.41, 0.02 1.32 C0.04 1.23, 0.06 1.14, 0.1 1.05 C0.13 0.96, 0.17 0.88, 0.21 0.8 C0.26 0.72, 0.31 0.64, 0.37 0.57 C0.43 0.5, 0.5 0.43, 0.57 0.37 C0.64 0.31, 0.72 0.26, 0.8 0.21 C0.88 0.17, 0.96 0.13, 1.05 0.1 C1.14 0.06, 1.23 0.04, 1.32 0.02 C1.41 0.01, 1.5 0, 1.6 0 C1.69 0, 1.78 0.01, 1.87 0.02 C1.96 0.04, 2.06 0.06, 2.14 0.1 C2.23 0.13, 2.31 0.17, 2.39 0.21 C2.47 0.26, 2.55 0.31, 2.62 0.37 C2.69 0.43, 2.76 0.5, 2.82 0.57 C2.88 0.64, 2.93 0.72, 2.98 0.8 C3.02 0.88, 3.06 0.96, 3.1 1.05 C3.13 1.14, 3.15 1.23, 3.17 1.32 C3.18 1.41, 3.19 1.55, 3.19 1.6 C3.2 1.64, 3.2 1.55, 3.19 1.6" stroke="#1e1e1e" stroke-width="4" fill="none"/></g><g stroke-linecap="round"><g transform="translate(197.19192211638673 47.3544649213185) rotate(0 9.922036809607278 19.91901363909787)"><path d="M0 0 C3.31 6.64, 16.54 33.2, 19.84 39.84 M0 0 C3.31 6.64, 16.54 33.2, 19.84 39.84" stroke="#1e1e1e" stroke-width="4" fill="none"/></g></g><mask/><g stroke-linecap="round"><g transform="translate(266.20399945545205 295.5231186750872) rotate(0 10.874491862772572 10.874491862772572)" fill-rule="evenodd"><path d="M0 0 L10.87 21.75 L21.75 0 L0 0" stroke="none" stroke-width="0" fill="#1e1e1e" fill-rule="evenodd"/><path d="M0 0 C4.05 8.11, 8.11 16.21, 10.87 21.75 M0 0 C3.12 6.24, 6.24 12.48, 10.87 21.75 M10.87 21.75 C13.74 16.02, 16.6 10.3, 21.75 0 M10.87 21.75 C14.78 13.94, 18.68 6.14, 21.75 0 M21.75 0 C14.1 0, 6.45 0, 0 0 M21.75 0 C14.75 0, 7.76 0, 0 0 M0 0 C0 0, 0 0, 0 0 M0 0 C0 0, 0 0, 0 0" stroke="#1e1e1e" stroke-width="4" fill="none"/></g></g><mask/><g stroke-linecap="round"><g transform="translate(266.20399945545205 317.2721024006322) rotate(0 10.874491862772572 0)"><path d="M0 0 C4.42 0, 8.84 0, 21.75 0 M0 0 C6.09 0, 12.18 0, 21.75 0" stroke="#1e1e1e" stroke-width="4" fill="none"/></g></g><mask/><g stroke-linecap="round"><g transform="translate(150.82402910893614 247.54002290203158) rotate(0 10.874491862772572 10.874491862772572)" fill-rule="evenodd"><path d="M0 0 L10.87 21.75 L21.75 0 L0 0" stroke="none" stroke-width="0" fill="#1e1e1e" fill-rule="evenodd"/><path d="M0 0 C2.83 5.65, 5.65 11.31, 10.87 21.75 M0 0 C3.97 7.93, 7.93 15.87, 10.87 21.75 M10.87 21.75 C15.1 13.3, 19.32 4.86, 21.75 0 M10.87 21.75 C14.96 13.58, 19.05 5.4, 21.75 0 M21.75 0 C13.51 0, 5.28 0, 0 0 M21.75 0 C13.79 0, 5.83 0, 0 0 M0 0 C0 0, 0 0, 0 0 M0 0 C0 0, 0 0, 0 0" stroke="#1e1e1e" stroke-width="4" fill="none"/></g></g><mask/><g stroke-linecap="round"><g transform="translate(150.82402910893614 269.28900662757667) rotate(0 10.874491862772572 0)"><path d="M0 0 C5.52 0, 11.04 0, 21.75 0 M0 0 C5.94 0, 11.88 0, 21.75 0" stroke="#1e1e1e" stroke-width="4" fill="none"/></g></g><mask/><g stroke-linecap="round"><g transform="translate(47.69089551786081 169.25886849128352) rotate(0 105.26955579373328 -82.18396215916822)"><path d="M0 0 C0 -55.04, 0 -110.07, 0 -162.98 M0 0 C0 -55.41, 0 -110.82, 0 -162.98 M0 -162.98 C63.08 -163.4, 126.16 -163.81, 210.54 -164.37 M0 -162.98 C58.51 -163.37, 117.03 -163.75, 210.54 -164.37 M210.54 -164.37 C210.37 -137.6, 210.2 -110.83, 209.75 -39.41 M210.54 -164.37 C210.24 -116.79, 209.94 -69.21, 209.75 -39.41" stroke="#1e1e1e" stroke-width="4" fill="none"/></g></g><mask/><g stroke-linecap="round"><g transform="translate(47.761270817643606 206.5343309770644) rotate(0 114.66947731367637 72.63864495257488)"><path d="M0 0 C0 34.74, 0 69.48, 0 144.4 M0 0 C0 50.23, 0 100.46, 0 144.4 M0 144.4 C67.31 144.66, 134.62 144.92, 229.05 145.28 M0 144.4 C50.26 144.59, 100.53 144.78, 229.05 145.28 M229.05 145.28 C229.11 123.79, 229.17 102.31, 229.34 42.47 M229.05 145.28 C229.14 111.19, 229.24 77.11, 229.34 42.47" stroke="#1e1e1e" stroke-width="4" fill="none"/></g></g><mask/><g stroke-linecap="round"><g transform="translate(237.38745316471142 247.54002337459198) rotate(0 0 51.989358806883615)"><path d="M0 0 C0 23.74, 0 47.48, 0 103.98 M0 0 C0 27.32, 0 54.64, 0 103.98" stroke="#1e1e1e" stroke-width="4" fill="none"/></g></g><mask/><g stroke-linecap="round"><g transform="translate(217.64198688754664 126.57323951695287) rotate(0 -27.971732653227917 112.47275073570314)"><path d="M0 0 C-22.05 0, -44.09 0, -55.94 0 M0 0 C-16.39 0, -32.78 0, -55.94 0 M-55.94 0 C-55.94 59.86, -55.94 119.72, -55.94 224.95 M-55.94 0 C-55.94 59.94, -55.94 119.88, -55.94 224.95" stroke="#1e1e1e" stroke-width="4" fill="none"/></g></g><mask/><g stroke-linecap="round"><g transform="translate(217.34908017809988 249.0045032906422) rotate(0 0 51.403558795785955)"><path d="M0 0 C0 38.33, 0 76.67, 0 102.81 M0 0 C0 30.05, 0 60.11, 0 102.81" stroke="#1e1e1e" stroke-width="4" fill="none"/></g></g><mask/></svg>