<!--?xml version="1.0" standalone="no"?-->
<svg id="code_py_fcfed020_b576_4676_8c5e_8321d36d04de_svg" width="224" height="212" xmlns="http://www.w3.org/2000/svg" viewBox="144,50,224,212">
<g transform="translate(250 250)">
<line x1="0" y1="0" x2="0" y2="0" style="stroke: black; stroke-width: 1px;"></line>
<line x1="0" y1="0" x2="-60" y2="0" style="stroke: black; stroke-width: 1px;" opacity="0"></line>
<line x1="-60" y1="0" x2="-20" y2="1" style="stroke: black; stroke-width: 1px;"></line>
<line x1="-20" y1="1" x2="6" y2="-89" style="stroke: black; stroke-width: 1px;"></line>
<line x1="6" y1="-89" x2="27" y2="2" style="stroke: black; stroke-width: 1px;"></line>
<line x1="27" y1="2" x2="66" y2="7" style="stroke: black; stroke-width: 1px;"></line>
<line x1="66" y1="7" x2="16" y2="-85" style="stroke: black; stroke-width: 1px;"></line>
<line x1="16" y1="-85" x2="47" y2="-137" style="stroke: black; stroke-width: 1px;"></line>
<line x1="47" y1="-137" x2="89" y2="-89" style="stroke: black; stroke-width: 1px;"></line>
<line x1="89" y1="-89" x2="113" y2="-81" style="stroke: black; stroke-width: 1px;"></line>
<line x1="113" y1="-81" x2="78" y2="-169" style="stroke: black; stroke-width: 1px;"></line>
<line x1="78" y1="-169" x2="18" y2="-152" style="stroke: black; stroke-width: 1px;"></line>
<line x1="18" y1="-152" x2="23" y2="-195" style="stroke: black; stroke-width: 1px;"></line>
<line x1="23" y1="-195" x2="-23" y2="-191" style="stroke: black; stroke-width: 1px;"></line>
<line x1="-23" y1="-191" x2="-24" y2="-156" style="stroke: black; stroke-width: 1px;"></line>
<line x1="-24" y1="-156" x2="-80" y2="-167" style="stroke: black; stroke-width: 1px;"></line>
<line x1="-80" y1="-167" x2="-101" y2="-81" style="stroke: black; stroke-width: 1px;"></line>
<line x1="-101" y1="-81" x2="-83" y2="-84" style="stroke: black; stroke-width: 1px;"></line>
<line x1="-83" y1="-84" x2="-32" y2="-141" style="stroke: black; stroke-width: 1px;"></line>
<line x1="-32" y1="-141" x2="-21" y2="-72" style="stroke: black; stroke-width: 1px;"></line>
<line x1="-21" y1="-72" x2="-60" y2="0" style="stroke: black; stroke-width: 1px;"></line>
</g>
<g transform="translate(250 250)">
<polygon points="0,0 ,-5,-9 ,0,-7 ,5,-9 " stroke="black" fill="black" stroke-width="1" opacity="1" transform="translate(-60,0) rotate(-90.0,0,0)"></polygon>
</g>
<metadata><raw>from turtle import *
from random import randint

def move_to(x, y):
    penup()
    goto(2*x,2* y)
    pendown()

def circa_to(x, y):
    goto(2*x + randint(-10, 10), 2*y + randint(-10, 10))
    
def circa_man():
    move_to(-30, 0)
    circa_to(-10, 0)
    circa_to(0, 40)
    circa_to(10, 0)
    circa_to(30, 0)
    circa_to(10, 40)
    circa_to(20, 70)
    circa_to(40, 40)
    circa_to(55, 40)
    circa_to(35, 80)
    circa_to(10, 80)
    circa_to(10, 100)
    circa_to(-10, 100)
    circa_to(-10, 80)
    circa_to(-45, 80)
    circa_to(-55, 40)
    circa_to(-40, 40)
    circa_to(-20, 70)
    circa_to(-10, 40)
    goto(-30*2, 0)
speed(0)

circa_man()


</raw></metadata></svg>