<!--?xml version="1.0" standalone="no"?-->
<svg id="code_py_fcfed020_b576_4676_8c5e_8321d36d04de_svg" width="229" height="223" xmlns="http://www.w3.org/2000/svg" viewBox="137,37,229,223">
<g transform="translate(250 250)">
<line x1="0" y1="0" x2="0" y2="0" style="stroke: black; stroke-width: 1px;"></line>
<line x1="0" y1="0" x2="-60" y2="0" style="stroke: black; stroke-width: 1px;" opacity="0"></line>
<line x1="-60" y1="0" x2="-13" y2="-6" style="stroke: black; stroke-width: 1px;"></line>
<line x1="-13" y1="-6" x2="-7" y2="-71" style="stroke: black; stroke-width: 1px;"></line>
<line x1="-7" y1="-71" x2="29" y2="-4" style="stroke: black; stroke-width: 1px;"></line>
<line x1="29" y1="-4" x2="62" y2="-9" style="stroke: black; stroke-width: 1px;"></line>
<line x1="62" y1="-9" x2="13" y2="-85" style="stroke: black; stroke-width: 1px;"></line>
<line x1="13" y1="-85" x2="35" y2="-131" style="stroke: black; stroke-width: 1px;"></line>
<line x1="35" y1="-131" x2="77" y2="-76" style="stroke: black; stroke-width: 1px;"></line>
<line x1="77" y1="-76" x2="111" y2="-83" style="stroke: black; stroke-width: 1px;"></line>
<line x1="111" y1="-83" x2="65" y2="-153" style="stroke: black; stroke-width: 1px;"></line>
<line x1="65" y1="-153" x2="22" y2="-157" style="stroke: black; stroke-width: 1px;"></line>
<line x1="22" y1="-157" x2="29" y2="-193" style="stroke: black; stroke-width: 1px;"></line>
<line x1="29" y1="-193" x2="-13" y2="-208" style="stroke: black; stroke-width: 1px;"></line>
<line x1="-13" y1="-208" x2="-29" y2="-157" style="stroke: black; stroke-width: 1px;"></line>
<line x1="-29" y1="-157" x2="-93" y2="-151" style="stroke: black; stroke-width: 1px;"></line>
<line x1="-93" y1="-151" x2="-108" y2="-84" style="stroke: black; stroke-width: 1px;"></line>
<line x1="-108" y1="-84" x2="-74" y2="-86" style="stroke: black; stroke-width: 1px;"></line>
<line x1="-74" y1="-86" x2="-34" y2="-137" style="stroke: black; stroke-width: 1px;"></line>
<line x1="-34" y1="-137" x2="-15" y2="-85" style="stroke: black; stroke-width: 1px;"></line>
<line x1="-15" y1="-85" x2="-60" y2="0" style="stroke: black; stroke-width: 1px;"></line>
</g>
<g transform="translate(250 250)">
<polygon points="0,0 ,-5,-9 ,0,-7 ,5,-9 " stroke="black" fill="black" stroke-width="1" opacity="1" transform="translate(-60,0) rotate(-90.0,0,0)"></polygon>
</g>
<metadata><raw>from turtle import *
from random import randint

def move_to(x, y):
    penup()
    goto(2*x,2* y)
    pendown()

def circa_to(x, y):
    goto(2*x + randint(-10, 10), 2*y + randint(-10, 10))
    
def circa_man():
    move_to(-30, 0)
    circa_to(-10, 0)
    circa_to(0, 40)
    circa_to(10, 0)
    circa_to(30, 0)
    circa_to(10, 40)
    circa_to(20, 70)
    circa_to(40, 40)
    circa_to(55, 40)
    circa_to(35, 80)
    circa_to(10, 80)
    circa_to(10, 100)
    circa_to(-10, 100)
    circa_to(-10, 80)
    circa_to(-45, 80)
    circa_to(-55, 40)
    circa_to(-40, 40)
    circa_to(-20, 70)
    circa_to(-10, 40)
    goto(-30*2, 0)
speed(0)

circa_man()


</raw></metadata></svg>