<!--?xml version="1.0" standalone="no"?-->
<svg id="code_py_fcfed020_b576_4676_8c5e_8321d36d04de_svg" width="248" height="223" xmlns="http://www.w3.org/2000/svg" viewBox="127,37,248,223">
<g transform="translate(250 250)">
<line x1="0" y1="0" x2="0" y2="0" style="stroke: black; stroke-width: 1px;"></line>
<line x1="0" y1="0" x2="-60" y2="0" style="stroke: black; stroke-width: 1px;" opacity="0"></line>
<line x1="-60" y1="0" x2="-26" y2="-8" style="stroke: black; stroke-width: 1px;"></line>
<line x1="-26" y1="-8" x2="-2" y2="-75" style="stroke: black; stroke-width: 1px;"></line>
<line x1="-2" y1="-75" x2="10" y2="0" style="stroke: black; stroke-width: 1px;"></line>
<line x1="10" y1="0" x2="55" y2="-5" style="stroke: black; stroke-width: 1px;"></line>
<line x1="55" y1="-5" x2="14" y2="-85" style="stroke: black; stroke-width: 1px;"></line>
<line x1="14" y1="-85" x2="35" y2="-148" style="stroke: black; stroke-width: 1px;"></line>
<line x1="35" y1="-148" x2="84" y2="-75" style="stroke: black; stroke-width: 1px;"></line>
<line x1="84" y1="-75" x2="120" y2="-88" style="stroke: black; stroke-width: 1px;"></line>
<line x1="120" y1="-88" x2="64" y2="-165" style="stroke: black; stroke-width: 1px;"></line>
<line x1="64" y1="-165" x2="16" y2="-162" style="stroke: black; stroke-width: 1px;"></line>
<line x1="16" y1="-162" x2="13" y2="-208" style="stroke: black; stroke-width: 1px;"></line>
<line x1="13" y1="-208" x2="-21" y2="-197" style="stroke: black; stroke-width: 1px;"></line>
<line x1="-21" y1="-197" x2="-10" y2="-168" style="stroke: black; stroke-width: 1px;"></line>
<line x1="-10" y1="-168" x2="-95" y2="-160" style="stroke: black; stroke-width: 1px;"></line>
<line x1="-95" y1="-160" x2="-118" y2="-74" style="stroke: black; stroke-width: 1px;"></line>
<line x1="-118" y1="-74" x2="-85" y2="-89" style="stroke: black; stroke-width: 1px;"></line>
<line x1="-85" y1="-89" x2="-43" y2="-131" style="stroke: black; stroke-width: 1px;"></line>
<line x1="-43" y1="-131" x2="-28" y2="-72" style="stroke: black; stroke-width: 1px;"></line>
<line x1="-28" y1="-72" x2="-60" y2="0" style="stroke: black; stroke-width: 1px;"></line>
</g>
<g transform="translate(250 250)">
<polygon points="0,0 ,-5,-9 ,0,-7 ,5,-9 " stroke="black" fill="black" stroke-width="1" opacity="1" transform="translate(-60,0) rotate(-90.0,0,0)"></polygon>
</g>
<metadata><raw>from turtle import *
from random import randint

def move_to(x, y):
    penup()
    goto(2*x,2* y)
    pendown()

def circa_to(x, y):
    goto(2*x + randint(-10, 10), 2*y + randint(-10, 10))
    
def circa_man():
    move_to(-30, 0)
    circa_to(-10, 0)
    circa_to(0, 40)
    circa_to(10, 0)
    circa_to(30, 0)
    circa_to(10, 40)
    circa_to(20, 70)
    circa_to(40, 40)
    circa_to(55, 40)
    circa_to(35, 80)
    circa_to(10, 80)
    circa_to(10, 100)
    circa_to(-10, 100)
    circa_to(-10, 80)
    circa_to(-45, 80)
    circa_to(-55, 40)
    circa_to(-40, 40)
    circa_to(-20, 70)
    circa_to(-10, 40)
    goto(-30*2, 0)
speed(0)

circa_man()


</raw></metadata></svg>