<!--?xml version="1.0" standalone="no"?-->
<svg id="code_py_fcfed020_b576_4676_8c5e_8321d36d04de_svg" width="221" height="222" xmlns="http://www.w3.org/2000/svg" viewBox="144,38,221,222">
<g transform="translate(250 250)">
<line x1="0" y1="0" x2="0" y2="0" style="stroke: black; stroke-width: 1px;"></line>
<line x1="0" y1="0" x2="-60" y2="0" style="stroke: black; stroke-width: 1px;" opacity="0"></line>
<line x1="-60" y1="0" x2="-12" y2="-1" style="stroke: black; stroke-width: 1px;"></line>
<line x1="-12" y1="-1" x2="1" y2="-71" style="stroke: black; stroke-width: 1px;"></line>
<line x1="1" y1="-71" x2="14" y2="2" style="stroke: black; stroke-width: 1px;"></line>
<line x1="14" y1="2" x2="59" y2="5" style="stroke: black; stroke-width: 1px;"></line>
<line x1="59" y1="5" x2="23" y2="-73" style="stroke: black; stroke-width: 1px;"></line>
<line x1="23" y1="-73" x2="40" y2="-150" style="stroke: black; stroke-width: 1px;"></line>
<line x1="40" y1="-150" x2="73" y2="-79" style="stroke: black; stroke-width: 1px;"></line>
<line x1="73" y1="-79" x2="110" y2="-87" style="stroke: black; stroke-width: 1px;"></line>
<line x1="110" y1="-87" x2="76" y2="-163" style="stroke: black; stroke-width: 1px;"></line>
<line x1="76" y1="-163" x2="12" y2="-162" style="stroke: black; stroke-width: 1px;"></line>
<line x1="12" y1="-162" x2="17" y2="-207" style="stroke: black; stroke-width: 1px;"></line>
<line x1="17" y1="-207" x2="-12" y2="-202" style="stroke: black; stroke-width: 1px;"></line>
<line x1="-12" y1="-202" x2="-22" y2="-155" style="stroke: black; stroke-width: 1px;"></line>
<line x1="-22" y1="-155" x2="-83" y2="-159" style="stroke: black; stroke-width: 1px;"></line>
<line x1="-83" y1="-159" x2="-101" y2="-74" style="stroke: black; stroke-width: 1px;"></line>
<line x1="-101" y1="-74" x2="-79" y2="-72" style="stroke: black; stroke-width: 1px;"></line>
<line x1="-79" y1="-72" x2="-38" y2="-150" style="stroke: black; stroke-width: 1px;"></line>
<line x1="-38" y1="-150" x2="-19" y2="-86" style="stroke: black; stroke-width: 1px;"></line>
<line x1="-19" y1="-86" x2="-60" y2="0" style="stroke: black; stroke-width: 1px;"></line>
</g>
<g transform="translate(250 250)">
<polygon points="0,0 ,-5,-9 ,0,-7 ,5,-9 " stroke="black" fill="black" stroke-width="1" opacity="1" transform="translate(-60,0) rotate(-90.0,0,0)"></polygon>
</g>
<metadata><raw>from turtle import *
from random import randint

def move_to(x, y):
    penup()
    goto(2*x,2* y)
    pendown()

def circa_to(x, y):
    goto(2*x + randint(-10, 10), 2*y + randint(-10, 10))
    
def circa_man():
    move_to(-30, 0)
    circa_to(-10, 0)
    circa_to(0, 40)
    circa_to(10, 0)
    circa_to(30, 0)
    circa_to(10, 40)
    circa_to(20, 70)
    circa_to(40, 40)
    circa_to(55, 40)
    circa_to(35, 80)
    circa_to(10, 80)
    circa_to(10, 100)
    circa_to(-10, 100)
    circa_to(-10, 80)
    circa_to(-45, 80)
    circa_to(-55, 40)
    circa_to(-40, 40)
    circa_to(-20, 70)
    circa_to(-10, 40)
    goto(-30*2, 0)
speed(0)

circa_man()


</raw></metadata></svg>