<!--?xml version="1.0" standalone="no"?-->
<svg id="code_py_fcfed020_b576_4676_8c5e_8321d36d04de_svg" width="213" height="215" xmlns="http://www.w3.org/2000/svg" viewBox="145,48,213,215">
<g transform="translate(250 250)">
<line x1="0" y1="0" x2="0" y2="0" style="stroke: black; stroke-width: 1px;"></line>
<line x1="0" y1="0" x2="-60" y2="0" style="stroke: black; stroke-width: 1px;" opacity="0"></line>
<line x1="-60" y1="0" x2="-21" y2="3" style="stroke: black; stroke-width: 1px;"></line>
<line x1="-21" y1="3" x2="-8" y2="-81" style="stroke: black; stroke-width: 1px;"></line>
<line x1="-8" y1="-81" x2="28" y2="8" style="stroke: black; stroke-width: 1px;"></line>
<line x1="28" y1="8" x2="51" y2="0" style="stroke: black; stroke-width: 1px;"></line>
<line x1="51" y1="0" x2="13" y2="-87" style="stroke: black; stroke-width: 1px;"></line>
<line x1="13" y1="-87" x2="41" y2="-141" style="stroke: black; stroke-width: 1px;"></line>
<line x1="41" y1="-141" x2="78" y2="-86" style="stroke: black; stroke-width: 1px;"></line>
<line x1="78" y1="-86" x2="103" y2="-87" style="stroke: black; stroke-width: 1px;"></line>
<line x1="103" y1="-87" x2="63" y2="-161" style="stroke: black; stroke-width: 1px;"></line>
<line x1="63" y1="-161" x2="23" y2="-164" style="stroke: black; stroke-width: 1px;"></line>
<line x1="23" y1="-164" x2="12" y2="-196" style="stroke: black; stroke-width: 1px;"></line>
<line x1="12" y1="-196" x2="-20" y2="-197" style="stroke: black; stroke-width: 1px;"></line>
<line x1="-20" y1="-197" x2="-30" y2="-166" style="stroke: black; stroke-width: 1px;"></line>
<line x1="-30" y1="-166" x2="-98" y2="-153" style="stroke: black; stroke-width: 1px;"></line>
<line x1="-98" y1="-153" x2="-100" y2="-78" style="stroke: black; stroke-width: 1px;"></line>
<line x1="-100" y1="-78" x2="-79" y2="-82" style="stroke: black; stroke-width: 1px;"></line>
<line x1="-79" y1="-82" x2="-31" y2="-136" style="stroke: black; stroke-width: 1px;"></line>
<line x1="-31" y1="-136" x2="-26" y2="-77" style="stroke: black; stroke-width: 1px;"></line>
<line x1="-26" y1="-77" x2="-60" y2="0" style="stroke: black; stroke-width: 1px;"></line>
</g>
<g transform="translate(250 250)">
<polygon points="0,0 ,-5,-9 ,0,-7 ,5,-9 " stroke="black" fill="black" stroke-width="1" opacity="1" transform="translate(-60,0) rotate(-90.0,0,0)"></polygon>
</g>
<metadata><raw>from turtle import *
from random import randint

def move_to(x, y):
    penup()
    goto(2*x,2* y)
    pendown()

def circa_to(x, y):
    goto(2*x + randint(-10, 10), 2*y + randint(-10, 10))
    
def circa_man():
    move_to(-30, 0)
    circa_to(-10, 0)
    circa_to(0, 40)
    circa_to(10, 0)
    circa_to(30, 0)
    circa_to(10, 40)
    circa_to(20, 70)
    circa_to(40, 40)
    circa_to(55, 40)
    circa_to(35, 80)
    circa_to(10, 80)
    circa_to(10, 100)
    circa_to(-10, 100)
    circa_to(-10, 80)
    circa_to(-45, 80)
    circa_to(-55, 40)
    circa_to(-40, 40)
    circa_to(-20, 70)
    circa_to(-10, 40)
    goto(-30*2, 0)
speed(0)

circa_man()


</raw></metadata></svg>