<!--?xml version="1.0" standalone="no"?-->
<svg id="code_fehler_py_332281fc_e180_4dd0_87e8_30526b5753b7_svg" width="240" height="260" xmlns="http://www.w3.org/2000/svg" viewBox="175,45,240,260">
<g transform="translate(250 250)">
<line x1="0" y1="0" x2="0" y2="0" style="stroke: black; stroke-width: 1px;"></line>
<line x1="0" y1="0" x2="3.061616997868383e-15" y2="50" style="stroke: red; stroke-width: 1px;"></line>
<line x1="3.061616997868383e-15" y1="50" x2="50" y2="50" style="stroke: red; stroke-width: 1px;"></line>
<line x1="50" y1="50" x2="50" y2="0" style="stroke: red; stroke-width: 1px;"></line>
<line x1="50" y1="0" x2="100" y2="0" style="stroke: red; stroke-width: 1px;"></line>
<line x1="100" y1="0" x2="100" y2="-50" style="stroke: red; stroke-width: 1px;"></line>
<line x1="100" y1="-50" x2="50" y2="-50.00000000000001" style="stroke: red; stroke-width: 1px;"></line>
<line x1="50" y1="-50.00000000000001" x2="50" y2="-100" style="stroke: red; stroke-width: 1px;"></line>
<line x1="50" y1="-100" x2="0" y2="-100" style="stroke: red; stroke-width: 1px;"></line>
<line x1="0" y1="-100" x2="-9.184850993605149e-15" y2="-50" style="stroke: red; stroke-width: 1px;"></line>
<line x1="-9.184850993605149e-15" y1="-50" x2="-50.00000000000001" y2="-50.00000000000001" style="stroke: red; stroke-width: 1px;"></line>
<line x1="-50.00000000000001" y1="-50.00000000000001" x2="-50.000000000000014" y2="-7.105427357601002e-15" style="stroke: red; stroke-width: 1px;"></line>
<line x1="-50.000000000000014" y1="-7.105427357601002e-15" x2="-1.4210854715202004e-14" y2="5.14104063387253e-15" style="stroke: red; stroke-width: 1px;"></line>
<polygon points="0.0,-0.0 3.061616997868383e-15,50.0 50.0,50.0 50.0,-0.0 100.0,-0.0 100.0,-50.0 50.0,-50.00000000000001 50.0,-100.0 0.0,-100.0 -9.184850993605149e-15,-50.0 -50.00000000000001,-50.00000000000001 -50.000000000000014,-7.105427357601002e-15 -1.4210854715202004e-14,5.14104063387253e-15" style="display: block; fill: red; stroke: red; stroke-width: 1px;" display="block" transform="translate(0,0) rotate(0,0,0)"></polygon>
<line x1="-1.4210854715202004e-14" y1="5.14104063387253e-15" x2="80" y2="5.14104063387253e-15" style="stroke: red; stroke-width: 1px;" opacity="0"></line>
<line x1="80" y1="-120" x2="79.99999999999999" y2="-80" style="stroke: blue; stroke-width: 1px;"></line>
<line x1="79.99999999999999" y1="-80" x2="119.99999999999999" y2="-79.99999999999999" style="stroke: blue; stroke-width: 1px;"></line>
<line x1="119.99999999999999" y1="-79.99999999999999" x2="120" y2="-119.99999999999999" style="stroke: blue; stroke-width: 1px;"></line>
<line x1="120" y1="-119.99999999999999" x2="160" y2="-119.99999999999997" style="stroke: blue; stroke-width: 1px;"></line>
<line x1="160" y1="-119.99999999999997" x2="160" y2="-159.99999999999997" style="stroke: blue; stroke-width: 1px;"></line>
<line x1="160" y1="-159.99999999999997" x2="120" y2="-160" style="stroke: blue; stroke-width: 1px;"></line>
<line x1="120" y1="-160" x2="120.00000000000001" y2="-200" style="stroke: blue; stroke-width: 1px;"></line>
<line x1="120.00000000000001" y1="-200" x2="80.00000000000001" y2="-200.00000000000003" style="stroke: blue; stroke-width: 1px;"></line>
<line x1="80.00000000000001" y1="-200.00000000000003" x2="80" y2="-160.00000000000003" style="stroke: blue; stroke-width: 1px;"></line>
<line x1="80" y1="-160.00000000000003" x2="40" y2="-160.00000000000006" style="stroke: blue; stroke-width: 1px;"></line>
<line x1="40" y1="-160.00000000000006" x2="39.999999999999986" y2="-120.00000000000006" style="stroke: blue; stroke-width: 1px;"></line>
<line x1="39.999999999999986" y1="-120.00000000000006" x2="79.99999999999999" y2="-120.00000000000004" style="stroke: blue; stroke-width: 1px;"></line>
<polygon points="80,-120 79.99999999999999,-80.0 119.99999999999999,-79.99999999999999 120.0,-119.99999999999999 160.0,-119.99999999999997 160.0,-159.99999999999997 120.0,-160.0 120.00000000000001,-200.0 80.00000000000001,-200.00000000000003 80.0,-160.00000000000003 40.0,-160.00000000000006 39.999999999999986,-120.00000000000006 79.99999999999999,-120.00000000000004" style="display: block; fill: blue; stroke: blue; stroke-width: 1px;" display="block" transform="translate(0,0) rotate(0,0,0)"></polygon>
<line x1="79.99999999999999" y1="-120.00000000000004" x2="-40" y2="-120.00000000000004" style="stroke: blue; stroke-width: 1px;" opacity="0"></line>
<line x1="-40" y1="-110" x2="-40" y2="-110" style="stroke: blue; stroke-width: 1px;"></line>
<line x1="-40" y1="-110" x2="-40.000000000000014" y2="-80" style="stroke: green; stroke-width: 1px;"></line>
<line x1="-40.000000000000014" y1="-80" x2="-10.000000000000014" y2="-79.99999999999999" style="stroke: green; stroke-width: 1px;"></line>
<line x1="-10.000000000000014" y1="-79.99999999999999" x2="-9.999999999999998" y2="-109.99999999999999" style="stroke: green; stroke-width: 1px;"></line>
<line x1="-9.999999999999998" y1="-109.99999999999999" x2="20" y2="-109.99999999999997" style="stroke: green; stroke-width: 1px;"></line>
<line x1="20" y1="-109.99999999999997" x2="20.000000000000018" y2="-139.99999999999997" style="stroke: green; stroke-width: 1px;"></line>
<line x1="20.000000000000018" y1="-139.99999999999997" x2="-9.999999999999982" y2="-140" style="stroke: green; stroke-width: 1px;"></line>
<line x1="-9.999999999999982" y1="-140" x2="-9.999999999999966" y2="-170" style="stroke: green; stroke-width: 1px;"></line>
<line x1="-9.999999999999966" y1="-170" x2="-39.999999999999964" y2="-170.00000000000003" style="stroke: green; stroke-width: 1px;"></line>
<line x1="-39.999999999999964" y1="-170.00000000000003" x2="-39.99999999999993" y2="-140.00000000000003" style="stroke: green; stroke-width: 1px;"></line>
<line x1="-39.99999999999993" y1="-140.00000000000003" x2="-69.99999999999993" y2="-140.00000000000006" style="stroke: green; stroke-width: 1px;"></line>
<line x1="-69.99999999999993" y1="-140.00000000000006" x2="-69.9999999999999" y2="-110.00000000000006" style="stroke: green; stroke-width: 1px;"></line>
<line x1="-69.9999999999999" y1="-110.00000000000006" x2="-39.9999999999999" y2="-110.00000000000003" style="stroke: green; stroke-width: 1px;"></line>
<polygon points="-40.0,-110.0 -40.000000000000014,-80.0 -10.000000000000014,-79.99999999999999 -9.999999999999998,-109.99999999999999 20.0,-109.99999999999997 20.000000000000018,-139.99999999999997 -9.999999999999982,-140.0 -9.999999999999966,-170.0 -39.999999999999964,-170.00000000000003 -39.99999999999993,-140.00000000000003 -69.99999999999993,-140.00000000000006 -69.9999999999999,-110.00000000000006 -39.9999999999999,-110.00000000000003" style="display: block; fill: green; stroke: green; stroke-width: 1px;" display="block" transform="translate(0,0) rotate(0,0,0)"></polygon>
</g>
<g transform="translate(250 250)">
<polygon points="0,0 ,-5,-9 ,0,-7 ,5,-9 " stroke="green" fill="green" stroke-width="1" opacity="0" transform="translate(-40.0,-110.0) rotate(-810.0,0,0)"></polygon>
</g>
<metadata><raw>from turtle import *

speed(0)
def move_to(x, y):
    penup()
    goto(x, y)
    pendown()

def bucket(length):
    right(90)
    for i in range(3):
        forward(length)
        left(90)
    right(180)

def cross(size, farbe):
    color(farbe)
    begin_fill()
    for i in range(4):
        bucket(size)
        left(90)
    end_fill()

cross(50, 'red')
move_to(80, 120)
cross(40, 'blue')
move_to(-40, 110)
hideturtle()
cross(30, 'green')</raw></metadata></svg>