<!--?xml version="1.0" standalone="no"?-->
<svg id="code_py_5cd5359e_d020_4a76_977a_46a6a92a9a2d_svg" width="473" height="472" xmlns="http://www.w3.org/2000/svg" viewBox="135,93,473,472">
<g transform="translate(350 350)">
<line x1="0" y1="0" x2="0" y2="0" style="stroke: black; stroke-width: 1px;"></line>
<line x1="0" y1="0" x2="-200" y2="0" style="stroke: black; stroke-width: 1px;" opacity="0"></line>
<circle cx="-200" cy="200" r="10" fill="black" style=""></circle>
<line x1="-200" y1="200" x2="-200" y2="200" style="stroke: red; stroke-width: 1px;"></line>
<circle cx="-200" cy="200" r="2.5" fill="red" style=""></circle>
<line x1="-200" y1="200" x2="-160" y2="200" style="stroke: black; stroke-width: 1px;" opacity="0"></line>
<circle cx="-160" cy="200" r="10" fill="black" style=""></circle>
<line x1="-160" y1="200" x2="-160" y2="200" style="stroke: red; stroke-width: 1px;"></line>
<circle cx="-160" cy="200" r="2.5" fill="red" style=""></circle>
<line x1="-160" y1="200" x2="-120" y2="200" style="stroke: black; stroke-width: 1px;" opacity="0"></line>
<circle cx="-120" cy="200" r="10" fill="black" style=""></circle>
<line x1="-120" y1="200" x2="-120" y2="200" style="stroke: red; stroke-width: 1px;"></line>
<circle cx="-120" cy="200" r="2.5" fill="red" style=""></circle>
<line x1="-120" y1="200" x2="-80" y2="200" style="stroke: black; stroke-width: 1px;" opacity="0"></line>
<circle cx="-80" cy="200" r="10" fill="black" style=""></circle>
<line x1="-80" y1="200" x2="-80" y2="200" style="stroke: red; stroke-width: 1px;"></line>
<circle cx="-80" cy="200" r="2.5" fill="red" style=""></circle>
<line x1="-80" y1="200" x2="-40" y2="200" style="stroke: black; stroke-width: 1px;" opacity="0"></line>
<circle cx="-40" cy="200" r="10" fill="black" style=""></circle>
<line x1="-40" y1="200" x2="-40" y2="200" style="stroke: red; stroke-width: 1px;"></line>
<circle cx="-40" cy="200" r="2.5" fill="red" style=""></circle>
<line x1="-40" y1="200" x2="0" y2="200" style="stroke: black; stroke-width: 1px;" opacity="0"></line>
<circle cx="0" cy="200" r="10" fill="black" style=""></circle>
<line x1="0" y1="200" x2="0" y2="200" style="stroke: red; stroke-width: 1px;"></line>
<circle cx="0" cy="200" r="2.5" fill="red" style=""></circle>
<line x1="0" y1="200" x2="40" y2="200" style="stroke: black; stroke-width: 1px;" opacity="0"></line>
<circle cx="40" cy="200" r="10" fill="black" style=""></circle>
<line x1="40" y1="200" x2="40" y2="200" style="stroke: red; stroke-width: 1px;"></line>
<circle cx="40" cy="200" r="2.5" fill="red" style=""></circle>
<line x1="40" y1="200" x2="80" y2="200" style="stroke: black; stroke-width: 1px;" opacity="0"></line>
<circle cx="80" cy="200" r="10" fill="black" style=""></circle>
<line x1="80" y1="200" x2="80" y2="200" style="stroke: red; stroke-width: 1px;"></line>
<circle cx="80" cy="200" r="2.5" fill="red" style=""></circle>
<line x1="80" y1="200" x2="120" y2="200" style="stroke: black; stroke-width: 1px;" opacity="0"></line>
<circle cx="120" cy="200" r="10" fill="black" style=""></circle>
<line x1="120" y1="200" x2="120" y2="200" style="stroke: red; stroke-width: 1px;"></line>
<circle cx="120" cy="200" r="2.5" fill="red" style=""></circle>
<line x1="120" y1="200" x2="160" y2="200" style="stroke: black; stroke-width: 1px;" opacity="0"></line>
<circle cx="160" cy="200" r="10" fill="black" style=""></circle>
<line x1="160" y1="200" x2="160" y2="200" style="stroke: red; stroke-width: 1px;"></line>
<circle cx="160" cy="200" r="2.5" fill="red" style=""></circle>
<line x1="160" y1="200" x2="200" y2="200" style="stroke: black; stroke-width: 1px;" opacity="0"></line>
<circle cx="200" cy="200" r="10" fill="black" style=""></circle>
<line x1="200" y1="200" x2="200" y2="200" style="stroke: red; stroke-width: 1px;"></line>
<circle cx="200" cy="200" r="2.5" fill="red" style=""></circle>
<line x1="200" y1="200" x2="-200" y2="200" style="stroke: black; stroke-width: 1px;" opacity="0"></line>
<circle cx="-200" cy="160" r="10" fill="black" style=""></circle>
<line x1="-200" y1="160" x2="-200" y2="160" style="stroke: red; stroke-width: 1px;"></line>
<circle cx="-200" cy="160" r="2.5" fill="red" style=""></circle>
<line x1="-200" y1="160" x2="-161" y2="160" style="stroke: black; stroke-width: 1px;" opacity="0"></line>
<circle cx="-161" cy="160" r="10" fill="black" style=""></circle>
<line x1="-161" y1="160" x2="-160" y2="160" style="stroke: red; stroke-width: 1px;"></line>
<circle cx="-160" cy="160" r="2.5" fill="red" style=""></circle>
<line x1="-160" y1="160" x2="-119" y2="160" style="stroke: black; stroke-width: 1px;" opacity="0"></line>
<circle cx="-119" cy="160" r="10" fill="black" style=""></circle>
<line x1="-119" y1="160" x2="-120" y2="160" style="stroke: red; stroke-width: 1px;"></line>
<circle cx="-120" cy="160" r="2.5" fill="red" style=""></circle>
<line x1="-120" y1="160" x2="-83" y2="160" style="stroke: black; stroke-width: 1px;" opacity="0"></line>
<circle cx="-83" cy="160" r="10" fill="black" style=""></circle>
<line x1="-83" y1="160" x2="-80" y2="160" style="stroke: red; stroke-width: 1px;"></line>
<circle cx="-80" cy="160" r="2.5" fill="red" style=""></circle>
<line x1="-80" y1="160" x2="-38" y2="160" style="stroke: black; stroke-width: 1px;" opacity="0"></line>
<circle cx="-38" cy="161" r="10" fill="black" style=""></circle>
<line x1="-38" y1="161" x2="-40" y2="160" style="stroke: red; stroke-width: 1px;"></line>
<circle cx="-40" cy="160" r="2.5" fill="red" style=""></circle>
<line x1="-40" y1="160" x2="-5" y2="160" style="stroke: black; stroke-width: 1px;" opacity="0"></line>
<circle cx="-5" cy="155" r="10" fill="black" style=""></circle>
<line x1="-5" y1="155" x2="0" y2="160" style="stroke: red; stroke-width: 1px;"></line>
<circle cx="0" cy="160" r="2.5" fill="red" style=""></circle>
<line x1="0" y1="160" x2="45" y2="160" style="stroke: black; stroke-width: 1px;" opacity="0"></line>
<circle cx="45" cy="161" r="10" fill="black" style=""></circle>
<line x1="45" y1="161" x2="40" y2="160" style="stroke: red; stroke-width: 1px;"></line>
<circle cx="40" cy="160" r="2.5" fill="red" style=""></circle>
<line x1="40" y1="160" x2="76" y2="160" style="stroke: black; stroke-width: 1px;" opacity="0"></line>
<circle cx="76" cy="154" r="10" fill="black" style=""></circle>
<line x1="76" y1="154" x2="80" y2="160" style="stroke: red; stroke-width: 1px;"></line>
<circle cx="80" cy="160" r="2.5" fill="red" style=""></circle>
<line x1="80" y1="160" x2="121" y2="160" style="stroke: black; stroke-width: 1px;" opacity="0"></line>
<circle cx="121" cy="166" r="10" fill="black" style=""></circle>
<line x1="121" y1="166" x2="120" y2="160" style="stroke: red; stroke-width: 1px;"></line>
<circle cx="120" cy="160" r="2.5" fill="red" style=""></circle>
<line x1="120" y1="160" x2="166" y2="160" style="stroke: black; stroke-width: 1px;" opacity="0"></line>
<circle cx="166" cy="166" r="10" fill="black" style=""></circle>
<line x1="166" y1="166" x2="160" y2="160" style="stroke: red; stroke-width: 1px;"></line>
<circle cx="160" cy="160" r="2.5" fill="red" style=""></circle>
<line x1="160" y1="160" x2="195" y2="160" style="stroke: black; stroke-width: 1px;" opacity="0"></line>
<circle cx="195" cy="159" r="10" fill="black" style=""></circle>
<line x1="195" y1="159" x2="200" y2="160" style="stroke: red; stroke-width: 1px;"></line>
<circle cx="200" cy="160" r="2.5" fill="red" style=""></circle>
<line x1="200" y1="160" x2="-200" y2="160" style="stroke: black; stroke-width: 1px;" opacity="0"></line>
<circle cx="-200" cy="120" r="10" fill="black" style=""></circle>
<line x1="-200" y1="120" x2="-200" y2="120" style="stroke: red; stroke-width: 1px;"></line>
<circle cx="-200" cy="120" r="2.5" fill="red" style=""></circle>
<line x1="-200" y1="120" x2="-159" y2="120" style="stroke: black; stroke-width: 1px;" opacity="0"></line>
<circle cx="-159" cy="119" r="10" fill="black" style=""></circle>
<line x1="-159" y1="119" x2="-160" y2="120" style="stroke: red; stroke-width: 1px;"></line>
<circle cx="-160" cy="120" r="2.5" fill="red" style=""></circle>
<line x1="-160" y1="120" x2="-122" y2="120" style="stroke: black; stroke-width: 1px;" opacity="0"></line>
<circle cx="-122" cy="120" r="10" fill="black" style=""></circle>
<line x1="-122" y1="120" x2="-120" y2="120" style="stroke: red; stroke-width: 1px;"></line>
<circle cx="-120" cy="120" r="2.5" fill="red" style=""></circle>
<line x1="-120" y1="120" x2="-84" y2="120" style="stroke: black; stroke-width: 1px;" opacity="0"></line>
<circle cx="-84" cy="121" r="10" fill="black" style=""></circle>
<line x1="-84" y1="121" x2="-80" y2="120" style="stroke: red; stroke-width: 1px;"></line>
<circle cx="-80" cy="120" r="2.5" fill="red" style=""></circle>
<line x1="-80" y1="120" x2="-46" y2="120" style="stroke: black; stroke-width: 1px;" opacity="0"></line>
<circle cx="-46" cy="117" r="10" fill="black" style=""></circle>
<line x1="-46" y1="117" x2="-40" y2="120" style="stroke: red; stroke-width: 1px;"></line>
<circle cx="-40" cy="120" r="2.5" fill="red" style=""></circle>
<line x1="-40" y1="120" x2="4" y2="120" style="stroke: black; stroke-width: 1px;" opacity="0"></line>
<circle cx="4" cy="123" r="10" fill="black" style=""></circle>
<line x1="4" y1="123" x2="0" y2="120" style="stroke: red; stroke-width: 1px;"></line>
<circle cx="0" cy="120" r="2.5" fill="red" style=""></circle>
<line x1="0" y1="120" x2="36" y2="120" style="stroke: black; stroke-width: 1px;" opacity="0"></line>
<circle cx="36" cy="128" r="10" fill="black" style=""></circle>
<line x1="36" y1="128" x2="40" y2="120" style="stroke: red; stroke-width: 1px;"></line>
<circle cx="40" cy="120" r="2.5" fill="red" style=""></circle>
<line x1="40" y1="120" x2="70" y2="120" style="stroke: black; stroke-width: 1px;" opacity="0"></line>
<circle cx="70" cy="107" r="10" fill="black" style=""></circle>
<line x1="70" y1="107" x2="80" y2="120" style="stroke: red; stroke-width: 1px;"></line>
<circle cx="80" cy="120" r="2.5" fill="red" style=""></circle>
<line x1="80" y1="120" x2="129" y2="120" style="stroke: black; stroke-width: 1px;" opacity="0"></line>
<circle cx="129" cy="111" r="10" fill="black" style=""></circle>
<line x1="129" y1="111" x2="120" y2="120" style="stroke: red; stroke-width: 1px;"></line>
<circle cx="120" cy="120" r="2.5" fill="red" style=""></circle>
<line x1="120" y1="120" x2="176" y2="120" style="stroke: black; stroke-width: 1px;" opacity="0"></line>
<circle cx="176" cy="120" r="10" fill="black" style=""></circle>
<line x1="176" y1="120" x2="160" y2="120" style="stroke: red; stroke-width: 1px;"></line>
<circle cx="160" cy="120" r="2.5" fill="red" style=""></circle>
<line x1="160" y1="120" x2="207" y2="120" style="stroke: black; stroke-width: 1px;" opacity="0"></line>
<circle cx="207" cy="138" r="10" fill="black" style=""></circle>
<line x1="207" y1="138" x2="200" y2="120" style="stroke: red; stroke-width: 1px;"></line>
<circle cx="200" cy="120" r="2.5" fill="red" style=""></circle>
<line x1="200" y1="120" x2="-200" y2="120" style="stroke: black; stroke-width: 1px;" opacity="0"></line>
<circle cx="-200" cy="80" r="10" fill="black" style=""></circle>
<line x1="-200" y1="80" x2="-200" y2="80" style="stroke: red; stroke-width: 1px;"></line>
<circle cx="-200" cy="80" r="2.5" fill="red" style=""></circle>
<line x1="-200" y1="80" x2="-163" y2="80" style="stroke: black; stroke-width: 1px;" opacity="0"></line>
<circle cx="-163" cy="79" r="10" fill="black" style=""></circle>
<line x1="-163" y1="79" x2="-160" y2="80" style="stroke: red; stroke-width: 1px;"></line>
<circle cx="-160" cy="80" r="2.5" fill="red" style=""></circle>
<line x1="-160" y1="80" x2="-117" y2="80" style="stroke: black; stroke-width: 1px;" opacity="0"></line>
<circle cx="-117" cy="78" r="10" fill="black" style=""></circle>
<line x1="-117" y1="78" x2="-120" y2="80" style="stroke: red; stroke-width: 1px;"></line>
<circle cx="-120" cy="80" r="2.5" fill="red" style=""></circle>
<line x1="-120" y1="80" x2="-72" y2="80" style="stroke: black; stroke-width: 1px;" opacity="0"></line>
<circle cx="-72" cy="75" r="10" fill="black" style=""></circle>
<line x1="-72" y1="75" x2="-80" y2="80" style="stroke: red; stroke-width: 1px;"></line>
<circle cx="-80" cy="80" r="2.5" fill="red" style=""></circle>
<line x1="-80" y1="80" x2="-38" y2="80" style="stroke: black; stroke-width: 1px;" opacity="0"></line>
<circle cx="-38" cy="91" r="10" fill="black" style=""></circle>
<line x1="-38" y1="91" x2="-40" y2="80" style="stroke: red; stroke-width: 1px;"></line>
<circle cx="-40" cy="80" r="2.5" fill="red" style=""></circle>
<line x1="-40" y1="80" x2="8" y2="80" style="stroke: black; stroke-width: 1px;" opacity="0"></line>
<circle cx="8" cy="87" r="10" fill="black" style=""></circle>
<line x1="8" y1="87" x2="0" y2="80" style="stroke: red; stroke-width: 1px;"></line>
<circle cx="0" cy="80" r="2.5" fill="red" style=""></circle>
<line x1="0" y1="80" x2="43" y2="80" style="stroke: black; stroke-width: 1px;" opacity="0"></line>
<circle cx="43" cy="64" r="10" fill="black" style=""></circle>
<line x1="43" y1="64" x2="40" y2="80" style="stroke: red; stroke-width: 1px;"></line>
<circle cx="40" cy="80" r="2.5" fill="red" style=""></circle>
<line x1="40" y1="80" x2="59" y2="80" style="stroke: black; stroke-width: 1px;" opacity="0"></line>
<circle cx="59" cy="98" r="10" fill="black" style=""></circle>
<line x1="59" y1="98" x2="80" y2="80" style="stroke: red; stroke-width: 1px;"></line>
<circle cx="80" cy="80" r="2.5" fill="red" style=""></circle>
<line x1="80" y1="80" x2="136" y2="80" style="stroke: black; stroke-width: 1px;" opacity="0"></line>
<circle cx="136" cy="92" r="10" fill="black" style=""></circle>
<line x1="136" y1="92" x2="120" y2="80" style="stroke: red; stroke-width: 1px;"></line>
<circle cx="120" cy="80" r="2.5" fill="red" style=""></circle>
<line x1="120" y1="80" x2="138" y2="80" style="stroke: black; stroke-width: 1px;" opacity="0"></line>
<circle cx="138" cy="57" r="10" fill="black" style=""></circle>
<line x1="138" y1="57" x2="160" y2="80" style="stroke: red; stroke-width: 1px;"></line>
<circle cx="160" cy="80" r="2.5" fill="red" style=""></circle>
<line x1="160" y1="80" x2="178" y2="80" style="stroke: black; stroke-width: 1px;" opacity="0"></line>
<circle cx="178" cy="87" r="10" fill="black" style=""></circle>
<line x1="178" y1="87" x2="200" y2="80" style="stroke: red; stroke-width: 1px;"></line>
<circle cx="200" cy="80" r="2.5" fill="red" style=""></circle>
<line x1="200" y1="80" x2="-200" y2="80" style="stroke: black; stroke-width: 1px;" opacity="0"></line>
<circle cx="-200" cy="40" r="10" fill="black" style=""></circle>
<line x1="-200" y1="40" x2="-200" y2="40" style="stroke: red; stroke-width: 1px;"></line>
<circle cx="-200" cy="40" r="2.5" fill="red" style=""></circle>
<line x1="-200" y1="40" x2="-157" y2="40" style="stroke: black; stroke-width: 1px;" opacity="0"></line>
<circle cx="-157" cy="43" r="10" fill="black" style=""></circle>
<line x1="-157" y1="43" x2="-160" y2="40" style="stroke: red; stroke-width: 1px;"></line>
<circle cx="-160" cy="40" r="2.5" fill="red" style=""></circle>
<line x1="-160" y1="40" x2="-117" y2="40" style="stroke: black; stroke-width: 1px;" opacity="0"></line>
<circle cx="-117" cy="32" r="10" fill="black" style=""></circle>
<line x1="-117" y1="32" x2="-120" y2="40" style="stroke: red; stroke-width: 1px;"></line>
<circle cx="-120" cy="40" r="2.5" fill="red" style=""></circle>
<line x1="-120" y1="40" x2="-74" y2="40" style="stroke: black; stroke-width: 1px;" opacity="0"></line>
<circle cx="-74" cy="43" r="10" fill="black" style=""></circle>
<line x1="-74" y1="43" x2="-80" y2="40" style="stroke: red; stroke-width: 1px;"></line>
<circle cx="-80" cy="40" r="2.5" fill="red" style=""></circle>
<line x1="-80" y1="40" x2="-56" y2="40" style="stroke: black; stroke-width: 1px;" opacity="0"></line>
<circle cx="-56" cy="40" r="10" fill="black" style=""></circle>
<line x1="-56" y1="40" x2="-40" y2="40" style="stroke: red; stroke-width: 1px;"></line>
<circle cx="-40" cy="40" r="2.5" fill="red" style=""></circle>
<line x1="-40" y1="40" x2="17" y2="40" style="stroke: black; stroke-width: 1px;" opacity="0"></line>
<circle cx="17" cy="23" r="10" fill="black" style=""></circle>
<line x1="17" y1="23" x2="0" y2="40" style="stroke: red; stroke-width: 1px;"></line>
<circle cx="0" cy="40" r="2.5" fill="red" style=""></circle>
<line x1="0" y1="40" x2="17" y2="40" style="stroke: black; stroke-width: 1px;" opacity="0"></line>
<circle cx="17" cy="20" r="10" fill="black" style=""></circle>
<line x1="17" y1="20" x2="40" y2="40" style="stroke: red; stroke-width: 1px;"></line>
<circle cx="40" cy="40" r="2.5" fill="red" style=""></circle>
<line x1="40" y1="40" x2="93" y2="40" style="stroke: black; stroke-width: 1px;" opacity="0"></line>
<circle cx="93" cy="41" r="10" fill="black" style=""></circle>
<line x1="93" y1="41" x2="80" y2="40" style="stroke: red; stroke-width: 1px;"></line>
<circle cx="80" cy="40" r="2.5" fill="red" style=""></circle>
<line x1="80" y1="40" x2="93" y2="40" style="stroke: black; stroke-width: 1px;" opacity="0"></line>
<circle cx="93" cy="52" r="10" fill="black" style=""></circle>
<line x1="93" y1="52" x2="120" y2="40" style="stroke: red; stroke-width: 1px;"></line>
<circle cx="120" cy="40" r="2.5" fill="red" style=""></circle>
<line x1="120" y1="40" x2="159" y2="40" style="stroke: black; stroke-width: 1px;" opacity="0"></line>
<circle cx="159" cy="22" r="10" fill="black" style=""></circle>
<line x1="159" y1="22" x2="160" y2="40" style="stroke: red; stroke-width: 1px;"></line>
<circle cx="160" cy="40" r="2.5" fill="red" style=""></circle>
<line x1="160" y1="40" x2="166" y2="40" style="stroke: black; stroke-width: 1px;" opacity="0"></line>
<circle cx="166" cy="76" r="10" fill="black" style=""></circle>
<line x1="166" y1="76" x2="200" y2="40" style="stroke: red; stroke-width: 1px;"></line>
<circle cx="200" cy="40" r="2.5" fill="red" style=""></circle>
<line x1="200" y1="40" x2="-200" y2="40" style="stroke: black; stroke-width: 1px;" opacity="0"></line>
<circle cx="-200" cy="0" r="10" fill="black" style=""></circle>
<line x1="-200" y1="0" x2="-200" y2="0" style="stroke: red; stroke-width: 1px;"></line>
<circle cx="-200" cy="0" r="2.5" fill="red" style=""></circle>
<line x1="-200" y1="0" x2="-165" y2="0" style="stroke: black; stroke-width: 1px;" opacity="0"></line>
<circle cx="-165" cy="-4" r="10" fill="black" style=""></circle>
<line x1="-165" y1="-4" x2="-160" y2="0" style="stroke: red; stroke-width: 1px;"></line>
<circle cx="-160" cy="0" r="2.5" fill="red" style=""></circle>
<line x1="-160" y1="0" x2="-114" y2="0" style="stroke: black; stroke-width: 1px;" opacity="0"></line>
<circle cx="-114" cy="6" r="10" fill="black" style=""></circle>
<line x1="-114" y1="6" x2="-120" y2="0" style="stroke: red; stroke-width: 1px;"></line>
<circle cx="-120" cy="0" r="2.5" fill="red" style=""></circle>
<line x1="-120" y1="0" x2="-82" y2="0" style="stroke: black; stroke-width: 1px;" opacity="0"></line>
<circle cx="-82" cy="8" r="10" fill="black" style=""></circle>
<line x1="-82" y1="8" x2="-80" y2="0" style="stroke: red; stroke-width: 1px;"></line>
<circle cx="-80" cy="0" r="2.5" fill="red" style=""></circle>
<line x1="-80" y1="0" x2="-47" y2="0" style="stroke: black; stroke-width: 1px;" opacity="0"></line>
<circle cx="-47" cy="15" r="10" fill="black" style=""></circle>
<line x1="-47" y1="15" x2="-40" y2="0" style="stroke: red; stroke-width: 1px;"></line>
<circle cx="-40" cy="0" r="2.5" fill="red" style=""></circle>
<line x1="-40" y1="0" x2="-12" y2="0" style="stroke: black; stroke-width: 1px;" opacity="0"></line>
<circle cx="-12" cy="-22" r="10" fill="black" style=""></circle>
<line x1="-12" y1="-22" x2="0" y2="0" style="stroke: red; stroke-width: 1px;"></line>
<circle cx="0" cy="0" r="2.5" fill="red" style=""></circle>
<line x1="0" y1="0" x2="25" y2="0" style="stroke: black; stroke-width: 1px;" opacity="0"></line>
<circle cx="25" cy="-18" r="10" fill="black" style=""></circle>
<line x1="25" y1="-18" x2="40" y2="0" style="stroke: red; stroke-width: 1px;"></line>
<circle cx="40" cy="0" r="2.5" fill="red" style=""></circle>
<line x1="40" y1="0" x2="101" y2="0" style="stroke: black; stroke-width: 1px;" opacity="0"></line>
<circle cx="101" cy="-30" r="10" fill="black" style=""></circle>
<line x1="101" y1="-30" x2="80" y2="0" style="stroke: red; stroke-width: 1px;"></line>
<circle cx="80" cy="0" r="2.5" fill="red" style=""></circle>
<line x1="80" y1="0" x2="110" y2="0" style="stroke: black; stroke-width: 1px;" opacity="0"></line>
<circle cx="110" cy="39" r="10" fill="black" style=""></circle>
<line x1="110" y1="39" x2="120" y2="0" style="stroke: red; stroke-width: 1px;"></line>
<circle cx="120" cy="0" r="2.5" fill="red" style=""></circle>
<line x1="120" y1="0" x2="137" y2="0" style="stroke: black; stroke-width: 1px;" opacity="0"></line>
<circle cx="137" cy="22" r="10" fill="black" style=""></circle>
<line x1="137" y1="22" x2="160" y2="0" style="stroke: red; stroke-width: 1px;"></line>
<circle cx="160" cy="0" r="2.5" fill="red" style=""></circle>
<line x1="160" y1="0" x2="220" y2="0" style="stroke: black; stroke-width: 1px;" opacity="0"></line>
<circle cx="220" cy="45" r="10" fill="black" style=""></circle>
<line x1="220" y1="45" x2="200" y2="0" style="stroke: red; stroke-width: 1px;"></line>
<circle cx="200" cy="0" r="2.5" fill="red" style=""></circle>
<line x1="200" y1="0" x2="-200" y2="0" style="stroke: black; stroke-width: 1px;" opacity="0"></line>
<circle cx="-200" cy="-40" r="10" fill="black" style=""></circle>
<line x1="-200" y1="-40" x2="-200" y2="-40" style="stroke: red; stroke-width: 1px;"></line>
<circle cx="-200" cy="-40" r="2.5" fill="red" style=""></circle>
<line x1="-200" y1="-40" x2="-159" y2="-40" style="stroke: black; stroke-width: 1px;" opacity="0"></line>
<circle cx="-159" cy="-45" r="10" fill="black" style=""></circle>
<line x1="-159" y1="-45" x2="-160" y2="-40" style="stroke: red; stroke-width: 1px;"></line>
<circle cx="-160" cy="-40" r="2.5" fill="red" style=""></circle>
<line x1="-160" y1="-40" x2="-124" y2="-40" style="stroke: black; stroke-width: 1px;" opacity="0"></line>
<circle cx="-124" cy="-41" r="10" fill="black" style=""></circle>
<line x1="-124" y1="-41" x2="-120" y2="-40" style="stroke: red; stroke-width: 1px;"></line>
<circle cx="-120" cy="-40" r="2.5" fill="red" style=""></circle>
<line x1="-120" y1="-40" x2="-75" y2="-40" style="stroke: black; stroke-width: 1px;" opacity="0"></line>
<circle cx="-75" cy="-26" r="10" fill="black" style=""></circle>
<line x1="-75" y1="-26" x2="-80" y2="-40" style="stroke: red; stroke-width: 1px;"></line>
<circle cx="-80" cy="-40" r="2.5" fill="red" style=""></circle>
<line x1="-80" y1="-40" x2="-19" y2="-40" style="stroke: black; stroke-width: 1px;" opacity="0"></line>
<circle cx="-19" cy="-54" r="10" fill="black" style=""></circle>
<line x1="-19" y1="-54" x2="-40" y2="-40" style="stroke: red; stroke-width: 1px;"></line>
<circle cx="-40" cy="-40" r="2.5" fill="red" style=""></circle>
<line x1="-40" y1="-40" x2="-18" y2="-40" style="stroke: black; stroke-width: 1px;" opacity="0"></line>
<circle cx="-18" cy="-26" r="10" fill="black" style=""></circle>
<line x1="-18" y1="-26" x2="0" y2="-40" style="stroke: red; stroke-width: 1px;"></line>
<circle cx="0" cy="-40" r="2.5" fill="red" style=""></circle>
<line x1="0" y1="-40" x2="19" y2="-40" style="stroke: black; stroke-width: 1px;" opacity="0"></line>
<circle cx="19" cy="-34" r="10" fill="black" style=""></circle>
<line x1="19" y1="-34" x2="40" y2="-40" style="stroke: red; stroke-width: 1px;"></line>
<circle cx="40" cy="-40" r="2.5" fill="red" style=""></circle>
<line x1="40" y1="-40" x2="47" y2="-40" style="stroke: black; stroke-width: 1px;" opacity="0"></line>
<circle cx="47" cy="-7" r="10" fill="black" style=""></circle>
<line x1="47" y1="-7" x2="80" y2="-40" style="stroke: red; stroke-width: 1px;"></line>
<circle cx="80" cy="-40" r="2.5" fill="red" style=""></circle>
<line x1="80" y1="-40" x2="93" y2="-40" style="stroke: black; stroke-width: 1px;" opacity="0"></line>
<circle cx="93" cy="-77" r="10" fill="black" style=""></circle>
<line x1="93" y1="-77" x2="120" y2="-40" style="stroke: red; stroke-width: 1px;"></line>
<circle cx="120" cy="-40" r="2.5" fill="red" style=""></circle>
<line x1="120" y1="-40" x2="179" y2="-40" style="stroke: black; stroke-width: 1px;" opacity="0"></line>
<circle cx="179" cy="-79" r="10" fill="black" style=""></circle>
<line x1="179" y1="-79" x2="160" y2="-40" style="stroke: red; stroke-width: 1px;"></line>
<circle cx="160" cy="-40" r="2.5" fill="red" style=""></circle>
<line x1="160" y1="-40" x2="243" y2="-40" style="stroke: black; stroke-width: 1px;" opacity="0"></line>
<circle cx="243" cy="-89" r="10" fill="black" style=""></circle>
<line x1="243" y1="-89" x2="200" y2="-40" style="stroke: red; stroke-width: 1px;"></line>
<circle cx="200" cy="-40" r="2.5" fill="red" style=""></circle>
<line x1="200" y1="-40" x2="-200" y2="-40" style="stroke: black; stroke-width: 1px;" opacity="0"></line>
<circle cx="-200" cy="-80" r="10" fill="black" style=""></circle>
<line x1="-200" y1="-80" x2="-200" y2="-80" style="stroke: red; stroke-width: 1px;"></line>
<circle cx="-200" cy="-80" r="2.5" fill="red" style=""></circle>
<line x1="-200" y1="-80" x2="-156" y2="-80" style="stroke: black; stroke-width: 1px;" opacity="0"></line>
<circle cx="-156" cy="-78" r="10" fill="black" style=""></circle>
<line x1="-156" y1="-78" x2="-160" y2="-80" style="stroke: red; stroke-width: 1px;"></line>
<circle cx="-160" cy="-80" r="2.5" fill="red" style=""></circle>
<line x1="-160" y1="-80" x2="-106" y2="-80" style="stroke: black; stroke-width: 1px;" opacity="0"></line>
<circle cx="-106" cy="-75" r="10" fill="black" style=""></circle>
<line x1="-106" y1="-75" x2="-120" y2="-80" style="stroke: red; stroke-width: 1px;"></line>
<circle cx="-120" cy="-80" r="2.5" fill="red" style=""></circle>
<line x1="-120" y1="-80" x2="-93" y2="-80" style="stroke: black; stroke-width: 1px;" opacity="0"></line>
<circle cx="-93" cy="-86" r="10" fill="black" style=""></circle>
<line x1="-93" y1="-86" x2="-80" y2="-80" style="stroke: red; stroke-width: 1px;"></line>
<circle cx="-80" cy="-80" r="2.5" fill="red" style=""></circle>
<line x1="-80" y1="-80" x2="-48" y2="-80" style="stroke: black; stroke-width: 1px;" opacity="0"></line>
<circle cx="-48" cy="-78" r="10" fill="black" style=""></circle>
<line x1="-48" y1="-78" x2="-40" y2="-80" style="stroke: red; stroke-width: 1px;"></line>
<circle cx="-40" cy="-80" r="2.5" fill="red" style=""></circle>
<line x1="-40" y1="-80" x2="10" y2="-80" style="stroke: black; stroke-width: 1px;" opacity="0"></line>
<circle cx="10" cy="-49" r="10" fill="black" style=""></circle>
<line x1="10" y1="-49" x2="0" y2="-80" style="stroke: red; stroke-width: 1px;"></line>
<circle cx="0" cy="-80" r="2.5" fill="red" style=""></circle>
<line x1="0" y1="-80" x2="7" y2="-80" style="stroke: black; stroke-width: 1px;" opacity="0"></line>
<circle cx="7" cy="-65" r="10" fill="black" style=""></circle>
<line x1="7" y1="-65" x2="40" y2="-80" style="stroke: red; stroke-width: 1px;"></line>
<circle cx="40" cy="-80" r="2.5" fill="red" style=""></circle>
<line x1="40" y1="-80" x2="38" y2="-80" style="stroke: black; stroke-width: 1px;" opacity="0"></line>
<circle cx="38" cy="-129" r="10" fill="black" style=""></circle>
<line x1="38" y1="-129" x2="80" y2="-80" style="stroke: red; stroke-width: 1px;"></line>
<circle cx="80" cy="-80" r="2.5" fill="red" style=""></circle>
<line x1="80" y1="-80" x2="170" y2="-80" style="stroke: black; stroke-width: 1px;" opacity="0"></line>
<circle cx="170" cy="-80" r="10" fill="black" style=""></circle>
<line x1="170" y1="-80" x2="120" y2="-80" style="stroke: red; stroke-width: 1px;"></line>
<circle cx="120" cy="-80" r="2.5" fill="red" style=""></circle>
<line x1="120" y1="-80" x2="171" y2="-80" style="stroke: black; stroke-width: 1px;" opacity="0"></line>
<circle cx="171" cy="-73" r="10" fill="black" style=""></circle>
<line x1="171" y1="-73" x2="160" y2="-80" style="stroke: red; stroke-width: 1px;"></line>
<circle cx="160" cy="-80" r="2.5" fill="red" style=""></circle>
<line x1="160" y1="-80" x2="194" y2="-80" style="stroke: black; stroke-width: 1px;" opacity="0"></line>
<circle cx="194" cy="-100" r="10" fill="black" style=""></circle>
<line x1="194" y1="-100" x2="200" y2="-80" style="stroke: red; stroke-width: 1px;"></line>
<circle cx="200" cy="-80" r="2.5" fill="red" style=""></circle>
<line x1="200" y1="-80" x2="-200" y2="-80" style="stroke: black; stroke-width: 1px;" opacity="0"></line>
<circle cx="-200" cy="-120" r="10" fill="black" style=""></circle>
<line x1="-200" y1="-120" x2="-200" y2="-120" style="stroke: red; stroke-width: 1px;"></line>
<circle cx="-200" cy="-120" r="2.5" fill="red" style=""></circle>
<line x1="-200" y1="-120" x2="-166" y2="-120" style="stroke: black; stroke-width: 1px;" opacity="0"></line>
<circle cx="-166" cy="-112" r="10" fill="black" style=""></circle>
<line x1="-166" y1="-112" x2="-160" y2="-120" style="stroke: red; stroke-width: 1px;"></line>
<circle cx="-160" cy="-120" r="2.5" fill="red" style=""></circle>
<line x1="-160" y1="-120" x2="-124" y2="-120" style="stroke: black; stroke-width: 1px;" opacity="0"></line>
<circle cx="-124" cy="-124" r="10" fill="black" style=""></circle>
<line x1="-124" y1="-124" x2="-120" y2="-120" style="stroke: red; stroke-width: 1px;"></line>
<circle cx="-120" cy="-120" r="2.5" fill="red" style=""></circle>
<line x1="-120" y1="-120" x2="-77" y2="-120" style="stroke: black; stroke-width: 1px;" opacity="0"></line>
<circle cx="-77" cy="-96" r="10" fill="black" style=""></circle>
<line x1="-77" y1="-96" x2="-80" y2="-120" style="stroke: red; stroke-width: 1px;"></line>
<circle cx="-80" cy="-120" r="2.5" fill="red" style=""></circle>
<line x1="-80" y1="-120" x2="-67" y2="-120" style="stroke: black; stroke-width: 1px;" opacity="0"></line>
<circle cx="-67" cy="-138" r="10" fill="black" style=""></circle>
<line x1="-67" y1="-138" x2="-40" y2="-120" style="stroke: red; stroke-width: 1px;"></line>
<circle cx="-40" cy="-120" r="2.5" fill="red" style=""></circle>
<line x1="-40" y1="-120" x2="27" y2="-120" style="stroke: black; stroke-width: 1px;" opacity="0"></line>
<circle cx="27" cy="-115" r="10" fill="black" style=""></circle>
<line x1="27" y1="-115" x2="0" y2="-120" style="stroke: red; stroke-width: 1px;"></line>
<circle cx="0" cy="-120" r="2.5" fill="red" style=""></circle>
<line x1="0" y1="-120" x2="0" y2="-120" style="stroke: black; stroke-width: 1px;" opacity="0"></line>
<circle cx="0" cy="-125" r="10" fill="black" style=""></circle>
<line x1="0" y1="-125" x2="40" y2="-120" style="stroke: red; stroke-width: 1px;"></line>
<circle cx="40" cy="-120" r="2.5" fill="red" style=""></circle>
<line x1="40" y1="-120" x2="59" y2="-120" style="stroke: black; stroke-width: 1px;" opacity="0"></line>
<circle cx="59" cy="-82" r="10" fill="black" style=""></circle>
<line x1="59" y1="-82" x2="80" y2="-120" style="stroke: red; stroke-width: 1px;"></line>
<circle cx="80" cy="-120" r="2.5" fill="red" style=""></circle>
<line x1="80" y1="-120" x2="140" y2="-120" style="stroke: black; stroke-width: 1px;" opacity="0"></line>
<circle cx="140" cy="-175" r="10" fill="black" style=""></circle>
<line x1="140" y1="-175" x2="120" y2="-120" style="stroke: red; stroke-width: 1px;"></line>
<circle cx="120" cy="-120" r="2.5" fill="red" style=""></circle>
<line x1="120" y1="-120" x2="100" y2="-120" style="stroke: black; stroke-width: 1px;" opacity="0"></line>
<circle cx="100" cy="-98" r="10" fill="black" style=""></circle>
<line x1="100" y1="-98" x2="160" y2="-120" style="stroke: red; stroke-width: 1px;"></line>
<circle cx="160" cy="-120" r="2.5" fill="red" style=""></circle>
<line x1="160" y1="-120" x2="212" y2="-120" style="stroke: black; stroke-width: 1px;" opacity="0"></line>
<circle cx="212" cy="-122" r="10" fill="black" style=""></circle>
<line x1="212" y1="-122" x2="200" y2="-120" style="stroke: red; stroke-width: 1px;"></line>
<circle cx="200" cy="-120" r="2.5" fill="red" style=""></circle>
<line x1="200" y1="-120" x2="-200" y2="-120" style="stroke: black; stroke-width: 1px;" opacity="0"></line>
<circle cx="-200" cy="-160" r="10" fill="black" style=""></circle>
<line x1="-200" y1="-160" x2="-200" y2="-160" style="stroke: red; stroke-width: 1px;"></line>
<circle cx="-200" cy="-160" r="2.5" fill="red" style=""></circle>
<line x1="-200" y1="-160" x2="-154" y2="-160" style="stroke: black; stroke-width: 1px;" opacity="0"></line>
<circle cx="-154" cy="-161" r="10" fill="black" style=""></circle>
<line x1="-154" y1="-161" x2="-160" y2="-160" style="stroke: red; stroke-width: 1px;"></line>
<circle cx="-160" cy="-160" r="2.5" fill="red" style=""></circle>
<line x1="-160" y1="-160" x2="-135" y2="-160" style="stroke: black; stroke-width: 1px;" opacity="0"></line>
<circle cx="-135" cy="-154" r="10" fill="black" style=""></circle>
<line x1="-135" y1="-154" x2="-120" y2="-160" style="stroke: red; stroke-width: 1px;"></line>
<circle cx="-120" cy="-160" r="2.5" fill="red" style=""></circle>
<line x1="-120" y1="-160" x2="-92" y2="-160" style="stroke: black; stroke-width: 1px;" opacity="0"></line>
<circle cx="-92" cy="-156" r="10" fill="black" style=""></circle>
<line x1="-92" y1="-156" x2="-80" y2="-160" style="stroke: red; stroke-width: 1px;"></line>
<circle cx="-80" cy="-160" r="2.5" fill="red" style=""></circle>
<line x1="-80" y1="-160" x2="-23" y2="-160" style="stroke: black; stroke-width: 1px;" opacity="0"></line>
<circle cx="-23" cy="-189" r="10" fill="black" style=""></circle>
<line x1="-23" y1="-189" x2="-40" y2="-160" style="stroke: red; stroke-width: 1px;"></line>
<circle cx="-40" cy="-160" r="2.5" fill="red" style=""></circle>
<line x1="-40" y1="-160" x2="23" y2="-160" style="stroke: black; stroke-width: 1px;" opacity="0"></line>
<circle cx="23" cy="-198" r="10" fill="black" style=""></circle>
<line x1="23" y1="-198" x2="0" y2="-160" style="stroke: red; stroke-width: 1px;"></line>
<circle cx="0" cy="-160" r="2.5" fill="red" style=""></circle>
<line x1="0" y1="-160" x2="92" y2="-160" style="stroke: black; stroke-width: 1px;" opacity="0"></line>
<circle cx="92" cy="-181" r="10" fill="black" style=""></circle>
<line x1="92" y1="-181" x2="40" y2="-160" style="stroke: red; stroke-width: 1px;"></line>
<circle cx="40" cy="-160" r="2.5" fill="red" style=""></circle>
<line x1="40" y1="-160" x2="32" y2="-160" style="stroke: black; stroke-width: 1px;" opacity="0"></line>
<circle cx="32" cy="-193" r="10" fill="black" style=""></circle>
<line x1="32" y1="-193" x2="80" y2="-160" style="stroke: red; stroke-width: 1px;"></line>
<circle cx="80" cy="-160" r="2.5" fill="red" style=""></circle>
<line x1="80" y1="-160" x2="158" y2="-160" style="stroke: black; stroke-width: 1px;" opacity="0"></line>
<circle cx="158" cy="-105" r="10" fill="black" style=""></circle>
<line x1="158" y1="-105" x2="120" y2="-160" style="stroke: red; stroke-width: 1px;"></line>
<circle cx="120" cy="-160" r="2.5" fill="red" style=""></circle>
<line x1="120" y1="-160" x2="177" y2="-160" style="stroke: black; stroke-width: 1px;" opacity="0"></line>
<circle cx="177" cy="-82" r="10" fill="black" style=""></circle>
<line x1="177" y1="-82" x2="160" y2="-160" style="stroke: red; stroke-width: 1px;"></line>
<circle cx="160" cy="-160" r="2.5" fill="red" style=""></circle>
<line x1="160" y1="-160" x2="157" y2="-160" style="stroke: black; stroke-width: 1px;" opacity="0"></line>
<circle cx="157" cy="-161" r="10" fill="black" style=""></circle>
<line x1="157" y1="-161" x2="200" y2="-160" style="stroke: red; stroke-width: 1px;"></line>
<circle cx="200" cy="-160" r="2.5" fill="red" style=""></circle>
<line x1="200" y1="-160" x2="-200" y2="-160" style="stroke: black; stroke-width: 1px;" opacity="0"></line>
<circle cx="-200" cy="-200" r="10" fill="black" style=""></circle>
<line x1="-200" y1="-200" x2="-200" y2="-200" style="stroke: red; stroke-width: 1px;"></line>
<circle cx="-200" cy="-200" r="2.5" fill="red" style=""></circle>
<line x1="-200" y1="-200" x2="-150" y2="-200" style="stroke: black; stroke-width: 1px;" opacity="0"></line>
<circle cx="-150" cy="-202" r="10" fill="black" style=""></circle>
<line x1="-150" y1="-202" x2="-160" y2="-200" style="stroke: red; stroke-width: 1px;"></line>
<circle cx="-160" cy="-200" r="2.5" fill="red" style=""></circle>
<line x1="-160" y1="-200" x2="-106" y2="-200" style="stroke: black; stroke-width: 1px;" opacity="0"></line>
<circle cx="-106" cy="-181" r="10" fill="black" style=""></circle>
<line x1="-106" y1="-181" x2="-120" y2="-200" style="stroke: red; stroke-width: 1px;"></line>
<circle cx="-120" cy="-200" r="2.5" fill="red" style=""></circle>
<line x1="-120" y1="-200" x2="-106" y2="-200" style="stroke: black; stroke-width: 1px;" opacity="0"></line>
<circle cx="-106" cy="-207" r="10" fill="black" style=""></circle>
<line x1="-106" y1="-207" x2="-80" y2="-200" style="stroke: red; stroke-width: 1px;"></line>
<circle cx="-80" cy="-200" r="2.5" fill="red" style=""></circle>
<line x1="-80" y1="-200" x2="-35" y2="-200" style="stroke: black; stroke-width: 1px;" opacity="0"></line>
<circle cx="-35" cy="-219" r="10" fill="black" style=""></circle>
<line x1="-35" y1="-219" x2="-40" y2="-200" style="stroke: red; stroke-width: 1px;"></line>
<circle cx="-40" cy="-200" r="2.5" fill="red" style=""></circle>
<line x1="-40" y1="-200" x2="-38" y2="-200" style="stroke: black; stroke-width: 1px;" opacity="0"></line>
<circle cx="-38" cy="-174" r="10" fill="black" style=""></circle>
<line x1="-38" y1="-174" x2="0" y2="-200" style="stroke: red; stroke-width: 1px;"></line>
<circle cx="0" cy="-200" r="2.5" fill="red" style=""></circle>
<line x1="0" y1="-200" x2="81" y2="-200" style="stroke: black; stroke-width: 1px;" opacity="0"></line>
<circle cx="81" cy="-182" r="10" fill="black" style=""></circle>
<line x1="81" y1="-182" x2="40" y2="-200" style="stroke: red; stroke-width: 1px;"></line>
<circle cx="40" cy="-200" r="2.5" fill="red" style=""></circle>
<line x1="40" y1="-200" x2="77" y2="-200" style="stroke: black; stroke-width: 1px;" opacity="0"></line>
<circle cx="77" cy="-204" r="10" fill="black" style=""></circle>
<line x1="77" y1="-204" x2="80" y2="-200" style="stroke: red; stroke-width: 1px;"></line>
<circle cx="80" cy="-200" r="2.5" fill="red" style=""></circle>
<line x1="80" y1="-200" x2="111" y2="-200" style="stroke: black; stroke-width: 1px;" opacity="0"></line>
<circle cx="111" cy="-204" r="10" fill="black" style=""></circle>
<line x1="111" y1="-204" x2="120" y2="-200" style="stroke: red; stroke-width: 1px;"></line>
<circle cx="120" cy="-200" r="2.5" fill="red" style=""></circle>
<line x1="120" y1="-200" x2="188" y2="-200" style="stroke: black; stroke-width: 1px;" opacity="0"></line>
<circle cx="188" cy="-159" r="10" fill="black" style=""></circle>
<line x1="188" y1="-159" x2="160" y2="-200" style="stroke: red; stroke-width: 1px;"></line>
<circle cx="160" cy="-200" r="2.5" fill="red" style=""></circle>
<line x1="160" y1="-200" x2="209" y2="-200" style="stroke: black; stroke-width: 1px;" opacity="0"></line>
<circle cx="209" cy="-242" r="10" fill="black" style=""></circle>
<line x1="209" y1="-242" x2="200" y2="-200" style="stroke: red; stroke-width: 1px;"></line>
<circle cx="200" cy="-200" r="2.5" fill="red" style=""></circle>
<line x1="200" y1="-200" x2="200" y2="-200" style="stroke: red; stroke-width: 1px;"></line>
</g>
<g transform="translate(350 350)">
<polygon points="0,0 ,-5,-9 ,0,-7 ,5,-9 " stroke="red" fill="red" stroke-width="1" opacity="0" transform="translate(200.0,-200.0) rotate(-90.0,0,0)"></polygon>
</g>
<metadata><raw>from turtle import *
from random import randint
turtle.set_defaults(canvwidth=700, canvheight=700)
speed(0)
def move_to(x, y):
    penup()
    goto(x, y)
    pendown()

def circa_to(x, y, jitter = 10):
    move_to(x + randint(-jitter, jitter), y + randint(-jitter, jitter))

Screen
for y in range(11):
    for x in range(11):
        color('black')
        circa_to(x * 40 - 200, y * 40 - 200, x * y)
        dot(20)
        
        color('red')
        goto(x * 40 - 200, y * 40 - 200)
        dot()
        
hideturtle()

</raw></metadata></svg>