<!--?xml version="1.0" standalone="no"?-->
<svg id="code_py_5cd5359e_d020_4a76_977a_46a6a92a9a2d_svg" width="522" height="509" xmlns="http://www.w3.org/2000/svg" viewBox="135,56,522,509">
<g transform="translate(350 350)">
<line x1="0" y1="0" x2="0" y2="0" style="stroke: black; stroke-width: 1px;"></line>
<line x1="0" y1="0" x2="-200" y2="0" style="stroke: black; stroke-width: 1px;" opacity="0"></line>
<circle cx="-200" cy="200" r="10" fill="black" style=""></circle>
<line x1="-200" y1="200" x2="-160" y2="200" style="stroke: black; stroke-width: 1px;" opacity="0"></line>
<circle cx="-160" cy="200" r="10" fill="black" style=""></circle>
<line x1="-160" y1="200" x2="-120" y2="200" style="stroke: black; stroke-width: 1px;" opacity="0"></line>
<circle cx="-120" cy="200" r="10" fill="black" style=""></circle>
<line x1="-120" y1="200" x2="-80" y2="200" style="stroke: black; stroke-width: 1px;" opacity="0"></line>
<circle cx="-80" cy="200" r="10" fill="black" style=""></circle>
<line x1="-80" y1="200" x2="-40" y2="200" style="stroke: black; stroke-width: 1px;" opacity="0"></line>
<circle cx="-40" cy="200" r="10" fill="black" style=""></circle>
<line x1="-40" y1="200" x2="0" y2="200" style="stroke: black; stroke-width: 1px;" opacity="0"></line>
<circle cx="0" cy="200" r="10" fill="black" style=""></circle>
<line x1="0" y1="200" x2="40" y2="200" style="stroke: black; stroke-width: 1px;" opacity="0"></line>
<circle cx="40" cy="200" r="10" fill="black" style=""></circle>
<line x1="40" y1="200" x2="80" y2="200" style="stroke: black; stroke-width: 1px;" opacity="0"></line>
<circle cx="80" cy="200" r="10" fill="black" style=""></circle>
<line x1="80" y1="200" x2="120" y2="200" style="stroke: black; stroke-width: 1px;" opacity="0"></line>
<circle cx="120" cy="200" r="10" fill="black" style=""></circle>
<line x1="120" y1="200" x2="160" y2="200" style="stroke: black; stroke-width: 1px;" opacity="0"></line>
<circle cx="160" cy="200" r="10" fill="black" style=""></circle>
<line x1="160" y1="200" x2="200" y2="200" style="stroke: black; stroke-width: 1px;" opacity="0"></line>
<circle cx="200" cy="200" r="10" fill="black" style=""></circle>
<line x1="200" y1="200" x2="-200" y2="200" style="stroke: black; stroke-width: 1px;" opacity="0"></line>
<circle cx="-200" cy="160" r="10" fill="black" style=""></circle>
<line x1="-200" y1="160" x2="-161" y2="160" style="stroke: black; stroke-width: 1px;" opacity="0"></line>
<circle cx="-161" cy="161" r="10" fill="black" style=""></circle>
<line x1="-161" y1="161" x2="-119" y2="161" style="stroke: black; stroke-width: 1px;" opacity="0"></line>
<circle cx="-119" cy="161" r="10" fill="black" style=""></circle>
<line x1="-119" y1="161" x2="-80" y2="161" style="stroke: black; stroke-width: 1px;" opacity="0"></line>
<circle cx="-80" cy="157" r="10" fill="black" style=""></circle>
<line x1="-80" y1="157" x2="-42" y2="157" style="stroke: black; stroke-width: 1px;" opacity="0"></line>
<circle cx="-42" cy="162" r="10" fill="black" style=""></circle>
<line x1="-42" y1="162" x2="1" y2="162" style="stroke: black; stroke-width: 1px;" opacity="0"></line>
<circle cx="1" cy="155" r="10" fill="black" style=""></circle>
<line x1="1" y1="155" x2="35" y2="155" style="stroke: black; stroke-width: 1px;" opacity="0"></line>
<circle cx="35" cy="158" r="10" fill="black" style=""></circle>
<line x1="35" y1="158" x2="80" y2="158" style="stroke: black; stroke-width: 1px;" opacity="0"></line>
<circle cx="80" cy="153" r="10" fill="black" style=""></circle>
<line x1="80" y1="153" x2="117" y2="153" style="stroke: black; stroke-width: 1px;" opacity="0"></line>
<circle cx="117" cy="157" r="10" fill="black" style=""></circle>
<line x1="117" y1="157" x2="160" y2="157" style="stroke: black; stroke-width: 1px;" opacity="0"></line>
<circle cx="160" cy="164" r="10" fill="black" style=""></circle>
<line x1="160" y1="164" x2="203" y2="164" style="stroke: black; stroke-width: 1px;" opacity="0"></line>
<circle cx="203" cy="150" r="10" fill="black" style=""></circle>
<line x1="203" y1="150" x2="-200" y2="150" style="stroke: black; stroke-width: 1px;" opacity="0"></line>
<circle cx="-200" cy="120" r="10" fill="black" style=""></circle>
<line x1="-200" y1="120" x2="-161" y2="120" style="stroke: black; stroke-width: 1px;" opacity="0"></line>
<circle cx="-161" cy="121" r="10" fill="black" style=""></circle>
<line x1="-161" y1="121" x2="-124" y2="121" style="stroke: black; stroke-width: 1px;" opacity="0"></line>
<circle cx="-124" cy="121" r="10" fill="black" style=""></circle>
<line x1="-124" y1="121" x2="-86" y2="121" style="stroke: black; stroke-width: 1px;" opacity="0"></line>
<circle cx="-86" cy="120" r="10" fill="black" style=""></circle>
<line x1="-86" y1="120" x2="-37" y2="120" style="stroke: black; stroke-width: 1px;" opacity="0"></line>
<circle cx="-37" cy="122" r="10" fill="black" style=""></circle>
<line x1="-37" y1="122" x2="-6" y2="122" style="stroke: black; stroke-width: 1px;" opacity="0"></line>
<circle cx="-6" cy="111" r="10" fill="black" style=""></circle>
<line x1="-6" y1="111" x2="40" y2="111" style="stroke: black; stroke-width: 1px;" opacity="0"></line>
<circle cx="40" cy="111" r="10" fill="black" style=""></circle>
<line x1="40" y1="111" x2="89" y2="111" style="stroke: black; stroke-width: 1px;" opacity="0"></line>
<circle cx="89" cy="121" r="10" fill="black" style=""></circle>
<line x1="89" y1="121" x2="135" y2="121" style="stroke: black; stroke-width: 1px;" opacity="0"></line>
<circle cx="135" cy="108" r="10" fill="black" style=""></circle>
<line x1="135" y1="108" x2="142" y2="108" style="stroke: black; stroke-width: 1px;" opacity="0"></line>
<circle cx="142" cy="129" r="10" fill="black" style=""></circle>
<line x1="142" y1="129" x2="208" y2="129" style="stroke: black; stroke-width: 1px;" opacity="0"></line>
<circle cx="208" cy="118" r="10" fill="black" style=""></circle>
<line x1="208" y1="118" x2="-200" y2="118" style="stroke: black; stroke-width: 1px;" opacity="0"></line>
<circle cx="-200" cy="80" r="10" fill="black" style=""></circle>
<line x1="-200" y1="80" x2="-162" y2="80" style="stroke: black; stroke-width: 1px;" opacity="0"></line>
<circle cx="-162" cy="83" r="10" fill="black" style=""></circle>
<line x1="-162" y1="83" x2="-125" y2="83" style="stroke: black; stroke-width: 1px;" opacity="0"></line>
<circle cx="-125" cy="75" r="10" fill="black" style=""></circle>
<line x1="-125" y1="75" x2="-77" y2="75" style="stroke: black; stroke-width: 1px;" opacity="0"></line>
<circle cx="-77" cy="75" r="10" fill="black" style=""></circle>
<line x1="-77" y1="75" x2="-33" y2="75" style="stroke: black; stroke-width: 1px;" opacity="0"></line>
<circle cx="-33" cy="86" r="10" fill="black" style=""></circle>
<line x1="-33" y1="86" x2="-4" y2="86" style="stroke: black; stroke-width: 1px;" opacity="0"></line>
<circle cx="-4" cy="81" r="10" fill="black" style=""></circle>
<line x1="-4" y1="81" x2="25" y2="81" style="stroke: black; stroke-width: 1px;" opacity="0"></line>
<circle cx="25" cy="97" r="10" fill="black" style=""></circle>
<line x1="25" y1="97" x2="59" y2="97" style="stroke: black; stroke-width: 1px;" opacity="0"></line>
<circle cx="59" cy="84" r="10" fill="black" style=""></circle>
<line x1="59" y1="84" x2="143" y2="84" style="stroke: black; stroke-width: 1px;" opacity="0"></line>
<circle cx="143" cy="73" r="10" fill="black" style=""></circle>
<line x1="143" y1="73" x2="143" y2="73" style="stroke: black; stroke-width: 1px;" opacity="0"></line>
<circle cx="143" cy="68" r="10" fill="black" style=""></circle>
<line x1="143" y1="68" x2="183" y2="68" style="stroke: black; stroke-width: 1px;" opacity="0"></line>
<circle cx="183" cy="98" r="10" fill="black" style=""></circle>
<line x1="183" y1="98" x2="-200" y2="98" style="stroke: black; stroke-width: 1px;" opacity="0"></line>
<circle cx="-200" cy="40" r="10" fill="black" style=""></circle>
<line x1="-200" y1="40" x2="-158" y2="40" style="stroke: black; stroke-width: 1px;" opacity="0"></line>
<circle cx="-158" cy="39" r="10" fill="black" style=""></circle>
<line x1="-158" y1="39" x2="-120" y2="39" style="stroke: black; stroke-width: 1px;" opacity="0"></line>
<circle cx="-120" cy="45" r="10" fill="black" style=""></circle>
<line x1="-120" y1="45" x2="-75" y2="45" style="stroke: black; stroke-width: 1px;" opacity="0"></line>
<circle cx="-75" cy="42" r="10" fill="black" style=""></circle>
<line x1="-75" y1="42" x2="-34" y2="42" style="stroke: black; stroke-width: 1px;" opacity="0"></line>
<circle cx="-34" cy="30" r="10" fill="black" style=""></circle>
<line x1="-34" y1="30" x2="11" y2="30" style="stroke: black; stroke-width: 1px;" opacity="0"></line>
<circle cx="11" cy="36" r="10" fill="black" style=""></circle>
<line x1="11" y1="36" x2="53" y2="36" style="stroke: black; stroke-width: 1px;" opacity="0"></line>
<circle cx="53" cy="19" r="10" fill="black" style=""></circle>
<line x1="53" y1="19" x2="81" y2="19" style="stroke: black; stroke-width: 1px;" opacity="0"></line>
<circle cx="81" cy="24" r="10" fill="black" style=""></circle>
<line x1="81" y1="24" x2="98" y2="24" style="stroke: black; stroke-width: 1px;" opacity="0"></line>
<circle cx="98" cy="56" r="10" fill="black" style=""></circle>
<line x1="98" y1="56" x2="139" y2="56" style="stroke: black; stroke-width: 1px;" opacity="0"></line>
<circle cx="139" cy="35" r="10" fill="black" style=""></circle>
<line x1="139" y1="35" x2="191" y2="35" style="stroke: black; stroke-width: 1px;" opacity="0"></line>
<circle cx="191" cy="28" r="10" fill="black" style=""></circle>
<line x1="191" y1="28" x2="-200" y2="28" style="stroke: black; stroke-width: 1px;" opacity="0"></line>
<circle cx="-200" cy="0" r="10" fill="black" style=""></circle>
<line x1="-200" y1="0" x2="-155" y2="0" style="stroke: black; stroke-width: 1px;" opacity="0"></line>
<circle cx="-155" cy="-2" r="10" fill="black" style=""></circle>
<line x1="-155" y1="-2" x2="-119" y2="-2" style="stroke: black; stroke-width: 1px;" opacity="0"></line>
<circle cx="-119" cy="-10" r="10" fill="black" style=""></circle>
<line x1="-119" y1="-10" x2="-79" y2="-10" style="stroke: black; stroke-width: 1px;" opacity="0"></line>
<circle cx="-79" cy="3" r="10" fill="black" style=""></circle>
<line x1="-79" y1="3" x2="-30" y2="3" style="stroke: black; stroke-width: 1px;" opacity="0"></line>
<circle cx="-30" cy="-19" r="10" fill="black" style=""></circle>
<line x1="-30" y1="-19" x2="-25" y2="-19" style="stroke: black; stroke-width: 1px;" opacity="0"></line>
<circle cx="-25" cy="9" r="10" fill="black" style=""></circle>
<line x1="-25" y1="9" x2="37" y2="9" style="stroke: black; stroke-width: 1px;" opacity="0"></line>
<circle cx="37" cy="21" r="10" fill="black" style=""></circle>
<line x1="37" y1="21" x2="48" y2="21" style="stroke: black; stroke-width: 1px;" opacity="0"></line>
<circle cx="48" cy="32" r="10" fill="black" style=""></circle>
<line x1="48" y1="32" x2="81" y2="32" style="stroke: black; stroke-width: 1px;" opacity="0"></line>
<circle cx="81" cy="37" r="10" fill="black" style=""></circle>
<line x1="81" y1="37" x2="192" y2="37" style="stroke: black; stroke-width: 1px;" opacity="0"></line>
<circle cx="192" cy="-36" r="10" fill="black" style=""></circle>
<line x1="192" y1="-36" x2="150" y2="-36" style="stroke: black; stroke-width: 1px;" opacity="0"></line>
<circle cx="150" cy="-14" r="10" fill="black" style=""></circle>
<line x1="150" y1="-14" x2="-200" y2="-14" style="stroke: black; stroke-width: 1px;" opacity="0"></line>
<circle cx="-200" cy="-40" r="10" fill="black" style=""></circle>
<line x1="-200" y1="-40" x2="-161" y2="-40" style="stroke: black; stroke-width: 1px;" opacity="0"></line>
<circle cx="-161" cy="-40" r="10" fill="black" style=""></circle>
<line x1="-161" y1="-40" x2="-114" y2="-40" style="stroke: black; stroke-width: 1px;" opacity="0"></line>
<circle cx="-114" cy="-45" r="10" fill="black" style=""></circle>
<line x1="-114" y1="-45" x2="-85" y2="-45" style="stroke: black; stroke-width: 1px;" opacity="0"></line>
<circle cx="-85" cy="-25" r="10" fill="black" style=""></circle>
<line x1="-85" y1="-25" x2="-41" y2="-25" style="stroke: black; stroke-width: 1px;" opacity="0"></line>
<circle cx="-41" cy="-37" r="10" fill="black" style=""></circle>
<line x1="-41" y1="-37" x2="-9" y2="-37" style="stroke: black; stroke-width: 1px;" opacity="0"></line>
<circle cx="-9" cy="-22" r="10" fill="black" style=""></circle>
<line x1="-9" y1="-22" x2="39" y2="-22" style="stroke: black; stroke-width: 1px;" opacity="0"></line>
<circle cx="39" cy="-75" r="10" fill="black" style=""></circle>
<line x1="39" y1="-75" x2="118" y2="-75" style="stroke: black; stroke-width: 1px;" opacity="0"></line>
<circle cx="118" cy="-67" r="10" fill="black" style=""></circle>
<line x1="118" y1="-67" x2="124" y2="-67" style="stroke: black; stroke-width: 1px;" opacity="0"></line>
<circle cx="124" cy="-25" r="10" fill="black" style=""></circle>
<line x1="124" y1="-25" x2="171" y2="-25" style="stroke: black; stroke-width: 1px;" opacity="0"></line>
<circle cx="171" cy="-52" r="10" fill="black" style=""></circle>
<line x1="171" y1="-52" x2="208" y2="-52" style="stroke: black; stroke-width: 1px;" opacity="0"></line>
<circle cx="208" cy="5" r="10" fill="black" style=""></circle>
<line x1="208" y1="5" x2="-200" y2="5" style="stroke: black; stroke-width: 1px;" opacity="0"></line>
<circle cx="-200" cy="-80" r="10" fill="black" style=""></circle>
<line x1="-200" y1="-80" x2="-163" y2="-80" style="stroke: black; stroke-width: 1px;" opacity="0"></line>
<circle cx="-163" cy="-86" r="10" fill="black" style=""></circle>
<line x1="-163" y1="-86" x2="-131" y2="-86" style="stroke: black; stroke-width: 1px;" opacity="0"></line>
<circle cx="-131" cy="-68" r="10" fill="black" style=""></circle>
<line x1="-131" y1="-68" x2="-100" y2="-68" style="stroke: black; stroke-width: 1px;" opacity="0"></line>
<circle cx="-100" cy="-75" r="10" fill="black" style=""></circle>
<line x1="-100" y1="-75" x2="-55" y2="-75" style="stroke: black; stroke-width: 1px;" opacity="0"></line>
<circle cx="-55" cy="-55" r="10" fill="black" style=""></circle>
<line x1="-55" y1="-55" x2="-26" y2="-55" style="stroke: black; stroke-width: 1px;" opacity="0"></line>
<circle cx="-26" cy="-50" r="10" fill="black" style=""></circle>
<line x1="-26" y1="-50" x2="4" y2="-50" style="stroke: black; stroke-width: 1px;" opacity="0"></line>
<circle cx="4" cy="-64" r="10" fill="black" style=""></circle>
<line x1="4" y1="-64" x2="97" y2="-64" style="stroke: black; stroke-width: 1px;" opacity="0"></line>
<circle cx="97" cy="-122" r="10" fill="black" style=""></circle>
<line x1="97" y1="-122" x2="78" y2="-122" style="stroke: black; stroke-width: 1px;" opacity="0"></line>
<circle cx="78" cy="-33" r="10" fill="black" style=""></circle>
<line x1="78" y1="-33" x2="177" y2="-33" style="stroke: black; stroke-width: 1px;" opacity="0"></line>
<circle cx="177" cy="-32" r="10" fill="black" style=""></circle>
<line x1="177" y1="-32" x2="142" y2="-32" style="stroke: black; stroke-width: 1px;" opacity="0"></line>
<circle cx="142" cy="-114" r="10" fill="black" style=""></circle>
<line x1="142" y1="-114" x2="-200" y2="-114" style="stroke: black; stroke-width: 1px;" opacity="0"></line>
<circle cx="-200" cy="-120" r="10" fill="black" style=""></circle>
<line x1="-200" y1="-120" x2="-168" y2="-120" style="stroke: black; stroke-width: 1px;" opacity="0"></line>
<circle cx="-168" cy="-121" r="10" fill="black" style=""></circle>
<line x1="-168" y1="-121" x2="-112" y2="-121" style="stroke: black; stroke-width: 1px;" opacity="0"></line>
<circle cx="-112" cy="-121" r="10" fill="black" style=""></circle>
<line x1="-112" y1="-121" x2="-86" y2="-121" style="stroke: black; stroke-width: 1px;" opacity="0"></line>
<circle cx="-86" cy="-127" r="10" fill="black" style=""></circle>
<line x1="-86" y1="-127" x2="-33" y2="-127" style="stroke: black; stroke-width: 1px;" opacity="0"></line>
<circle cx="-33" cy="-121" r="10" fill="black" style=""></circle>
<line x1="-33" y1="-121" x2="-39" y2="-121" style="stroke: black; stroke-width: 1px;" opacity="0"></line>
<circle cx="-39" cy="-122" r="10" fill="black" style=""></circle>
<line x1="-39" y1="-122" x2="-5" y2="-122" style="stroke: black; stroke-width: 1px;" opacity="0"></line>
<circle cx="-5" cy="-163" r="10" fill="black" style=""></circle>
<line x1="-5" y1="-163" x2="131" y2="-163" style="stroke: black; stroke-width: 1px;" opacity="0"></line>
<circle cx="131" cy="-164" r="10" fill="black" style=""></circle>
<line x1="131" y1="-164" x2="162" y2="-164" style="stroke: black; stroke-width: 1px;" opacity="0"></line>
<circle cx="162" cy="-105" r="10" fill="black" style=""></circle>
<line x1="162" y1="-105" x2="100" y2="-105" style="stroke: black; stroke-width: 1px;" opacity="0"></line>
<circle cx="100" cy="-95" r="10" fill="black" style=""></circle>
<line x1="100" y1="-95" x2="240" y2="-95" style="stroke: black; stroke-width: 1px;" opacity="0"></line>
<circle cx="240" cy="-168" r="10" fill="black" style=""></circle>
<line x1="240" y1="-168" x2="-200" y2="-168" style="stroke: black; stroke-width: 1px;" opacity="0"></line>
<circle cx="-200" cy="-160" r="10" fill="black" style=""></circle>
<line x1="-200" y1="-160" x2="-153" y2="-160" style="stroke: black; stroke-width: 1px;" opacity="0"></line>
<circle cx="-153" cy="-166" r="10" fill="black" style=""></circle>
<line x1="-153" y1="-166" x2="-136" y2="-166" style="stroke: black; stroke-width: 1px;" opacity="0"></line>
<circle cx="-136" cy="-163" r="10" fill="black" style=""></circle>
<line x1="-136" y1="-163" x2="-60" y2="-163" style="stroke: black; stroke-width: 1px;" opacity="0"></line>
<circle cx="-60" cy="-172" r="10" fill="black" style=""></circle>
<line x1="-60" y1="-172" x2="-73" y2="-172" style="stroke: black; stroke-width: 1px;" opacity="0"></line>
<circle cx="-73" cy="-188" r="10" fill="black" style=""></circle>
<line x1="-73" y1="-188" x2="7" y2="-188" style="stroke: black; stroke-width: 1px;" opacity="0"></line>
<circle cx="7" cy="-164" r="10" fill="black" style=""></circle>
<line x1="7" y1="-164" x2="69" y2="-164" style="stroke: black; stroke-width: 1px;" opacity="0"></line>
<circle cx="69" cy="-174" r="10" fill="black" style=""></circle>
<line x1="69" y1="-174" x2="87" y2="-174" style="stroke: black; stroke-width: 1px;" opacity="0"></line>
<circle cx="87" cy="-213" r="10" fill="black" style=""></circle>
<line x1="87" y1="-213" x2="140" y2="-213" style="stroke: black; stroke-width: 1px;" opacity="0"></line>
<circle cx="140" cy="-139" r="10" fill="black" style=""></circle>
<line x1="140" y1="-139" x2="170" y2="-139" style="stroke: black; stroke-width: 1px;" opacity="0"></line>
<circle cx="170" cy="-234" r="10" fill="black" style=""></circle>
<line x1="170" y1="-234" x2="146" y2="-234" style="stroke: black; stroke-width: 1px;" opacity="0"></line>
<circle cx="146" cy="-187" r="10" fill="black" style=""></circle>
<line x1="146" y1="-187" x2="-200" y2="-187" style="stroke: black; stroke-width: 1px;" opacity="0"></line>
<circle cx="-200" cy="-200" r="10" fill="black" style=""></circle>
<line x1="-200" y1="-200" x2="-155" y2="-200" style="stroke: black; stroke-width: 1px;" opacity="0"></line>
<circle cx="-155" cy="-206" r="10" fill="black" style=""></circle>
<line x1="-155" y1="-206" x2="-129" y2="-206" style="stroke: black; stroke-width: 1px;" opacity="0"></line>
<circle cx="-129" cy="-197" r="10" fill="black" style=""></circle>
<line x1="-129" y1="-197" x2="-89" y2="-197" style="stroke: black; stroke-width: 1px;" opacity="0"></line>
<circle cx="-89" cy="-227" r="10" fill="black" style=""></circle>
<line x1="-89" y1="-227" x2="-44" y2="-227" style="stroke: black; stroke-width: 1px;" opacity="0"></line>
<circle cx="-44" cy="-230" r="10" fill="black" style=""></circle>
<line x1="-44" y1="-230" x2="-47" y2="-230" style="stroke: black; stroke-width: 1px;" opacity="0"></line>
<circle cx="-47" cy="-176" r="10" fill="black" style=""></circle>
<line x1="-47" y1="-176" x2="44" y2="-176" style="stroke: black; stroke-width: 1px;" opacity="0"></line>
<circle cx="44" cy="-222" r="10" fill="black" style=""></circle>
<line x1="44" y1="-222" x2="11" y2="-222" style="stroke: black; stroke-width: 1px;" opacity="0"></line>
<circle cx="11" cy="-245" r="10" fill="black" style=""></circle>
<line x1="11" y1="-245" x2="137" y2="-245" style="stroke: black; stroke-width: 1px;" opacity="0"></line>
<circle cx="137" cy="-167" r="10" fill="black" style=""></circle>
<line x1="137" y1="-167" x2="80" y2="-167" style="stroke: black; stroke-width: 1px;" opacity="0"></line>
<circle cx="80" cy="-145" r="10" fill="black" style=""></circle>
<line x1="80" y1="-145" x2="292" y2="-145" style="stroke: black; stroke-width: 1px;" opacity="0"></line>
<circle cx="292" cy="-279" r="10" fill="black" style=""></circle>
<line x1="292" y1="-279" x2="292" y2="-279" style="stroke: black; stroke-width: 1px;"></line>
</g>
<g transform="translate(350 350)">
<polygon points="0,0 ,-5,-9 ,0,-7 ,5,-9 " stroke="black" fill="black" stroke-width="1" opacity="0" transform="translate(292.0,-279.0) rotate(-90.0,0,0)"></polygon>
</g>
<metadata><raw>from turtle import *
from random import randint
turtle.set_defaults(canvwidth=700, canvheight=700)
speed(0)
def move_to(x, y):
    penup()
    goto(x, y)
    pendown()

def circa_to(x, y, jitter = 10):
    move_to(x + randint(-jitter, jitter), y + randint(-jitter, jitter))

Screen
for y in range(11):
    for x in range(11):
        color('black')
        circa_to(x * 40 - 200, y * 40 - 200, x * y)
        dot(20)
        '''
        color('red')
        goto(x * 40 - 200, y * 40 - 200)
        dot()
        '''
        
hideturtle()

</raw></metadata></svg>