<!--?xml version="1.0" standalone="no"?-->
<svg id="code_py_5cd5359e_d020_4a76_977a_46a6a92a9a2d_svg" width="438" height="440" xmlns="http://www.w3.org/2000/svg" viewBox="130,130,438,440">
<g transform="translate(350 350)">
<line x1="0" y1="0" x2="0" y2="0" style="stroke: black; stroke-width: 1px;"></line>
<line x1="0" y1="0" x2="-197" y2="0" style="stroke: black; stroke-width: 1px;" opacity="0"></line>
<circle cx="-197" cy="195" r="10" fill="black" style=""></circle>
<line x1="-197" y1="195" x2="-200" y2="200" style="stroke: red; stroke-width: 1px;"></line>
<circle cx="-200" cy="200" r="2.5" fill="red" style=""></circle>
<line x1="-200" y1="200" x2="-160" y2="200" style="stroke: black; stroke-width: 1px;" opacity="0"></line>
<circle cx="-160" cy="205" r="10" fill="black" style=""></circle>
<line x1="-160" y1="205" x2="-160" y2="200" style="stroke: red; stroke-width: 1px;"></line>
<circle cx="-160" cy="200" r="2.5" fill="red" style=""></circle>
<line x1="-160" y1="200" x2="-118" y2="200" style="stroke: black; stroke-width: 1px;" opacity="0"></line>
<circle cx="-118" cy="198" r="10" fill="black" style=""></circle>
<line x1="-118" y1="198" x2="-120" y2="200" style="stroke: red; stroke-width: 1px;"></line>
<circle cx="-120" cy="200" r="2.5" fill="red" style=""></circle>
<line x1="-120" y1="200" x2="-85" y2="200" style="stroke: black; stroke-width: 1px;" opacity="0"></line>
<circle cx="-85" cy="196" r="10" fill="black" style=""></circle>
<line x1="-85" y1="196" x2="-80" y2="200" style="stroke: red; stroke-width: 1px;"></line>
<circle cx="-80" cy="200" r="2.5" fill="red" style=""></circle>
<line x1="-80" y1="200" x2="-44" y2="200" style="stroke: black; stroke-width: 1px;" opacity="0"></line>
<circle cx="-44" cy="205" r="10" fill="black" style=""></circle>
<line x1="-44" y1="205" x2="-40" y2="200" style="stroke: red; stroke-width: 1px;"></line>
<circle cx="-40" cy="200" r="2.5" fill="red" style=""></circle>
<line x1="-40" y1="200" x2="5" y2="200" style="stroke: black; stroke-width: 1px;" opacity="0"></line>
<circle cx="5" cy="198" r="10" fill="black" style=""></circle>
<line x1="5" y1="198" x2="0" y2="200" style="stroke: red; stroke-width: 1px;"></line>
<circle cx="0" cy="200" r="2.5" fill="red" style=""></circle>
<line x1="0" y1="200" x2="37" y2="200" style="stroke: black; stroke-width: 1px;" opacity="0"></line>
<circle cx="37" cy="203" r="10" fill="black" style=""></circle>
<line x1="37" y1="203" x2="40" y2="200" style="stroke: red; stroke-width: 1px;"></line>
<circle cx="40" cy="200" r="2.5" fill="red" style=""></circle>
<line x1="40" y1="200" x2="76" y2="200" style="stroke: black; stroke-width: 1px;" opacity="0"></line>
<circle cx="76" cy="203" r="10" fill="black" style=""></circle>
<line x1="76" y1="203" x2="80" y2="200" style="stroke: red; stroke-width: 1px;"></line>
<circle cx="80" cy="200" r="2.5" fill="red" style=""></circle>
<line x1="80" y1="200" x2="119" y2="200" style="stroke: black; stroke-width: 1px;" opacity="0"></line>
<circle cx="119" cy="196" r="10" fill="black" style=""></circle>
<line x1="119" y1="196" x2="120" y2="200" style="stroke: red; stroke-width: 1px;"></line>
<circle cx="120" cy="200" r="2.5" fill="red" style=""></circle>
<line x1="120" y1="200" x2="158" y2="200" style="stroke: black; stroke-width: 1px;" opacity="0"></line>
<circle cx="158" cy="201" r="10" fill="black" style=""></circle>
<line x1="158" y1="201" x2="160" y2="200" style="stroke: red; stroke-width: 1px;"></line>
<circle cx="160" cy="200" r="2.5" fill="red" style=""></circle>
<line x1="160" y1="200" x2="200" y2="200" style="stroke: black; stroke-width: 1px;" opacity="0"></line>
<circle cx="200" cy="200" r="10" fill="black" style=""></circle>
<line x1="200" y1="200" x2="200" y2="200" style="stroke: red; stroke-width: 1px;"></line>
<circle cx="200" cy="200" r="2.5" fill="red" style=""></circle>
<line x1="200" y1="200" x2="-201" y2="200" style="stroke: black; stroke-width: 1px;" opacity="0"></line>
<circle cx="-201" cy="158" r="10" fill="black" style=""></circle>
<line x1="-201" y1="158" x2="-200" y2="160" style="stroke: red; stroke-width: 1px;"></line>
<circle cx="-200" cy="160" r="2.5" fill="red" style=""></circle>
<line x1="-200" y1="160" x2="-155" y2="160" style="stroke: black; stroke-width: 1px;" opacity="0"></line>
<circle cx="-155" cy="160" r="10" fill="black" style=""></circle>
<line x1="-155" y1="160" x2="-160" y2="160" style="stroke: red; stroke-width: 1px;"></line>
<circle cx="-160" cy="160" r="2.5" fill="red" style=""></circle>
<line x1="-160" y1="160" x2="-124" y2="160" style="stroke: black; stroke-width: 1px;" opacity="0"></line>
<circle cx="-124" cy="161" r="10" fill="black" style=""></circle>
<line x1="-124" y1="161" x2="-120" y2="160" style="stroke: red; stroke-width: 1px;"></line>
<circle cx="-120" cy="160" r="2.5" fill="red" style=""></circle>
<line x1="-120" y1="160" x2="-84" y2="160" style="stroke: black; stroke-width: 1px;" opacity="0"></line>
<circle cx="-84" cy="161" r="10" fill="black" style=""></circle>
<line x1="-84" y1="161" x2="-80" y2="160" style="stroke: red; stroke-width: 1px;"></line>
<circle cx="-80" cy="160" r="2.5" fill="red" style=""></circle>
<line x1="-80" y1="160" x2="-41" y2="160" style="stroke: black; stroke-width: 1px;" opacity="0"></line>
<circle cx="-41" cy="156" r="10" fill="black" style=""></circle>
<line x1="-41" y1="156" x2="-40" y2="160" style="stroke: red; stroke-width: 1px;"></line>
<circle cx="-40" cy="160" r="2.5" fill="red" style=""></circle>
<line x1="-40" y1="160" x2="2" y2="160" style="stroke: black; stroke-width: 1px;" opacity="0"></line>
<circle cx="2" cy="163" r="10" fill="black" style=""></circle>
<line x1="2" y1="163" x2="0" y2="160" style="stroke: red; stroke-width: 1px;"></line>
<circle cx="0" cy="160" r="2.5" fill="red" style=""></circle>
<line x1="0" y1="160" x2="36" y2="160" style="stroke: black; stroke-width: 1px;" opacity="0"></line>
<circle cx="36" cy="161" r="10" fill="black" style=""></circle>
<line x1="36" y1="161" x2="40" y2="160" style="stroke: red; stroke-width: 1px;"></line>
<circle cx="40" cy="160" r="2.5" fill="red" style=""></circle>
<line x1="40" y1="160" x2="76" y2="160" style="stroke: black; stroke-width: 1px;" opacity="0"></line>
<circle cx="76" cy="160" r="10" fill="black" style=""></circle>
<line x1="76" y1="160" x2="80" y2="160" style="stroke: red; stroke-width: 1px;"></line>
<circle cx="80" cy="160" r="2.5" fill="red" style=""></circle>
<line x1="80" y1="160" x2="122" y2="160" style="stroke: black; stroke-width: 1px;" opacity="0"></line>
<circle cx="122" cy="159" r="10" fill="black" style=""></circle>
<line x1="122" y1="159" x2="120" y2="160" style="stroke: red; stroke-width: 1px;"></line>
<circle cx="120" cy="160" r="2.5" fill="red" style=""></circle>
<line x1="120" y1="160" x2="161" y2="160" style="stroke: black; stroke-width: 1px;" opacity="0"></line>
<circle cx="161" cy="160" r="10" fill="black" style=""></circle>
<line x1="161" y1="160" x2="160" y2="160" style="stroke: red; stroke-width: 1px;"></line>
<circle cx="160" cy="160" r="2.5" fill="red" style=""></circle>
<line x1="160" y1="160" x2="201" y2="160" style="stroke: black; stroke-width: 1px;" opacity="0"></line>
<circle cx="201" cy="161" r="10" fill="black" style=""></circle>
<line x1="201" y1="161" x2="200" y2="160" style="stroke: red; stroke-width: 1px;"></line>
<circle cx="200" cy="160" r="2.5" fill="red" style=""></circle>
<line x1="200" y1="160" x2="-195" y2="160" style="stroke: black; stroke-width: 1px;" opacity="0"></line>
<circle cx="-195" cy="124" r="10" fill="black" style=""></circle>
<line x1="-195" y1="124" x2="-200" y2="120" style="stroke: red; stroke-width: 1px;"></line>
<circle cx="-200" cy="120" r="2.5" fill="red" style=""></circle>
<line x1="-200" y1="120" x2="-164" y2="120" style="stroke: black; stroke-width: 1px;" opacity="0"></line>
<circle cx="-164" cy="121" r="10" fill="black" style=""></circle>
<line x1="-164" y1="121" x2="-160" y2="120" style="stroke: red; stroke-width: 1px;"></line>
<circle cx="-160" cy="120" r="2.5" fill="red" style=""></circle>
<line x1="-160" y1="120" x2="-124" y2="120" style="stroke: black; stroke-width: 1px;" opacity="0"></line>
<circle cx="-124" cy="120" r="10" fill="black" style=""></circle>
<line x1="-124" y1="120" x2="-120" y2="120" style="stroke: red; stroke-width: 1px;"></line>
<circle cx="-120" cy="120" r="2.5" fill="red" style=""></circle>
<line x1="-120" y1="120" x2="-78" y2="120" style="stroke: black; stroke-width: 1px;" opacity="0"></line>
<circle cx="-78" cy="122" r="10" fill="black" style=""></circle>
<line x1="-78" y1="122" x2="-80" y2="120" style="stroke: red; stroke-width: 1px;"></line>
<circle cx="-80" cy="120" r="2.5" fill="red" style=""></circle>
<line x1="-80" y1="120" x2="-35" y2="120" style="stroke: black; stroke-width: 1px;" opacity="0"></line>
<circle cx="-35" cy="115" r="10" fill="black" style=""></circle>
<line x1="-35" y1="115" x2="-40" y2="120" style="stroke: red; stroke-width: 1px;"></line>
<circle cx="-40" cy="120" r="2.5" fill="red" style=""></circle>
<line x1="-40" y1="120" x2="0" y2="120" style="stroke: black; stroke-width: 1px;" opacity="0"></line>
<circle cx="0" cy="119" r="10" fill="black" style=""></circle>
<line x1="0" y1="119" x2="0" y2="120" style="stroke: red; stroke-width: 1px;"></line>
<circle cx="0" cy="120" r="2.5" fill="red" style=""></circle>
<line x1="0" y1="120" x2="40" y2="120" style="stroke: black; stroke-width: 1px;" opacity="0"></line>
<circle cx="40" cy="115" r="10" fill="black" style=""></circle>
<line x1="40" y1="115" x2="40" y2="120" style="stroke: red; stroke-width: 1px;"></line>
<circle cx="40" cy="120" r="2.5" fill="red" style=""></circle>
<line x1="40" y1="120" x2="84" y2="120" style="stroke: black; stroke-width: 1px;" opacity="0"></line>
<circle cx="84" cy="122" r="10" fill="black" style=""></circle>
<line x1="84" y1="122" x2="80" y2="120" style="stroke: red; stroke-width: 1px;"></line>
<circle cx="80" cy="120" r="2.5" fill="red" style=""></circle>
<line x1="80" y1="120" x2="117" y2="120" style="stroke: black; stroke-width: 1px;" opacity="0"></line>
<circle cx="117" cy="123" r="10" fill="black" style=""></circle>
<line x1="117" y1="123" x2="120" y2="120" style="stroke: red; stroke-width: 1px;"></line>
<circle cx="120" cy="120" r="2.5" fill="red" style=""></circle>
<line x1="120" y1="120" x2="155" y2="120" style="stroke: black; stroke-width: 1px;" opacity="0"></line>
<circle cx="155" cy="119" r="10" fill="black" style=""></circle>
<line x1="155" y1="119" x2="160" y2="120" style="stroke: red; stroke-width: 1px;"></line>
<circle cx="160" cy="120" r="2.5" fill="red" style=""></circle>
<line x1="160" y1="120" x2="196" y2="120" style="stroke: black; stroke-width: 1px;" opacity="0"></line>
<circle cx="196" cy="116" r="10" fill="black" style=""></circle>
<line x1="196" y1="116" x2="200" y2="120" style="stroke: red; stroke-width: 1px;"></line>
<circle cx="200" cy="120" r="2.5" fill="red" style=""></circle>
<line x1="200" y1="120" x2="-200" y2="120" style="stroke: black; stroke-width: 1px;" opacity="0"></line>
<circle cx="-200" cy="75" r="10" fill="black" style=""></circle>
<line x1="-200" y1="75" x2="-200" y2="80" style="stroke: red; stroke-width: 1px;"></line>
<circle cx="-200" cy="80" r="2.5" fill="red" style=""></circle>
<line x1="-200" y1="80" x2="-159" y2="80" style="stroke: black; stroke-width: 1px;" opacity="0"></line>
<circle cx="-159" cy="81" r="10" fill="black" style=""></circle>
<line x1="-159" y1="81" x2="-160" y2="80" style="stroke: red; stroke-width: 1px;"></line>
<circle cx="-160" cy="80" r="2.5" fill="red" style=""></circle>
<line x1="-160" y1="80" x2="-120" y2="80" style="stroke: black; stroke-width: 1px;" opacity="0"></line>
<circle cx="-120" cy="80" r="10" fill="black" style=""></circle>
<line x1="-120" y1="80" x2="-120" y2="80" style="stroke: red; stroke-width: 1px;"></line>
<circle cx="-120" cy="80" r="2.5" fill="red" style=""></circle>
<line x1="-120" y1="80" x2="-75" y2="80" style="stroke: black; stroke-width: 1px;" opacity="0"></line>
<circle cx="-75" cy="83" r="10" fill="black" style=""></circle>
<line x1="-75" y1="83" x2="-80" y2="80" style="stroke: red; stroke-width: 1px;"></line>
<circle cx="-80" cy="80" r="2.5" fill="red" style=""></circle>
<line x1="-80" y1="80" x2="-45" y2="80" style="stroke: black; stroke-width: 1px;" opacity="0"></line>
<circle cx="-45" cy="79" r="10" fill="black" style=""></circle>
<line x1="-45" y1="79" x2="-40" y2="80" style="stroke: red; stroke-width: 1px;"></line>
<circle cx="-40" cy="80" r="2.5" fill="red" style=""></circle>
<line x1="-40" y1="80" x2="1" y2="80" style="stroke: black; stroke-width: 1px;" opacity="0"></line>
<circle cx="1" cy="82" r="10" fill="black" style=""></circle>
<line x1="1" y1="82" x2="0" y2="80" style="stroke: red; stroke-width: 1px;"></line>
<circle cx="0" cy="80" r="2.5" fill="red" style=""></circle>
<line x1="0" y1="80" x2="42" y2="80" style="stroke: black; stroke-width: 1px;" opacity="0"></line>
<circle cx="42" cy="79" r="10" fill="black" style=""></circle>
<line x1="42" y1="79" x2="40" y2="80" style="stroke: red; stroke-width: 1px;"></line>
<circle cx="40" cy="80" r="2.5" fill="red" style=""></circle>
<line x1="40" y1="80" x2="77" y2="80" style="stroke: black; stroke-width: 1px;" opacity="0"></line>
<circle cx="77" cy="77" r="10" fill="black" style=""></circle>
<line x1="77" y1="77" x2="80" y2="80" style="stroke: red; stroke-width: 1px;"></line>
<circle cx="80" cy="80" r="2.5" fill="red" style=""></circle>
<line x1="80" y1="80" x2="125" y2="80" style="stroke: black; stroke-width: 1px;" opacity="0"></line>
<circle cx="125" cy="78" r="10" fill="black" style=""></circle>
<line x1="125" y1="78" x2="120" y2="80" style="stroke: red; stroke-width: 1px;"></line>
<circle cx="120" cy="80" r="2.5" fill="red" style=""></circle>
<line x1="120" y1="80" x2="158" y2="80" style="stroke: black; stroke-width: 1px;" opacity="0"></line>
<circle cx="158" cy="78" r="10" fill="black" style=""></circle>
<line x1="158" y1="78" x2="160" y2="80" style="stroke: red; stroke-width: 1px;"></line>
<circle cx="160" cy="80" r="2.5" fill="red" style=""></circle>
<line x1="160" y1="80" x2="199" y2="80" style="stroke: black; stroke-width: 1px;" opacity="0"></line>
<circle cx="199" cy="80" r="10" fill="black" style=""></circle>
<line x1="199" y1="80" x2="200" y2="80" style="stroke: red; stroke-width: 1px;"></line>
<circle cx="200" cy="80" r="2.5" fill="red" style=""></circle>
<line x1="200" y1="80" x2="-199" y2="80" style="stroke: black; stroke-width: 1px;" opacity="0"></line>
<circle cx="-199" cy="44" r="10" fill="black" style=""></circle>
<line x1="-199" y1="44" x2="-200" y2="40" style="stroke: red; stroke-width: 1px;"></line>
<circle cx="-200" cy="40" r="2.5" fill="red" style=""></circle>
<line x1="-200" y1="40" x2="-165" y2="40" style="stroke: black; stroke-width: 1px;" opacity="0"></line>
<circle cx="-165" cy="37" r="10" fill="black" style=""></circle>
<line x1="-165" y1="37" x2="-160" y2="40" style="stroke: red; stroke-width: 1px;"></line>
<circle cx="-160" cy="40" r="2.5" fill="red" style=""></circle>
<line x1="-160" y1="40" x2="-124" y2="40" style="stroke: black; stroke-width: 1px;" opacity="0"></line>
<circle cx="-124" cy="40" r="10" fill="black" style=""></circle>
<line x1="-124" y1="40" x2="-120" y2="40" style="stroke: red; stroke-width: 1px;"></line>
<circle cx="-120" cy="40" r="2.5" fill="red" style=""></circle>
<line x1="-120" y1="40" x2="-78" y2="40" style="stroke: black; stroke-width: 1px;" opacity="0"></line>
<circle cx="-78" cy="41" r="10" fill="black" style=""></circle>
<line x1="-78" y1="41" x2="-80" y2="40" style="stroke: red; stroke-width: 1px;"></line>
<circle cx="-80" cy="40" r="2.5" fill="red" style=""></circle>
<line x1="-80" y1="40" x2="-40" y2="40" style="stroke: black; stroke-width: 1px;" opacity="0"></line>
<circle cx="-40" cy="43" r="10" fill="black" style=""></circle>
<line x1="-40" y1="43" x2="-40" y2="40" style="stroke: red; stroke-width: 1px;"></line>
<circle cx="-40" cy="40" r="2.5" fill="red" style=""></circle>
<line x1="-40" y1="40" x2="-2" y2="40" style="stroke: black; stroke-width: 1px;" opacity="0"></line>
<circle cx="-2" cy="41" r="10" fill="black" style=""></circle>
<line x1="-2" y1="41" x2="0" y2="40" style="stroke: red; stroke-width: 1px;"></line>
<circle cx="0" cy="40" r="2.5" fill="red" style=""></circle>
<line x1="0" y1="40" x2="40" y2="40" style="stroke: black; stroke-width: 1px;" opacity="0"></line>
<circle cx="40" cy="40" r="10" fill="black" style=""></circle>
<line x1="40" y1="40" x2="40" y2="40" style="stroke: red; stroke-width: 1px;"></line>
<circle cx="40" cy="40" r="2.5" fill="red" style=""></circle>
<line x1="40" y1="40" x2="78" y2="40" style="stroke: black; stroke-width: 1px;" opacity="0"></line>
<circle cx="78" cy="38" r="10" fill="black" style=""></circle>
<line x1="78" y1="38" x2="80" y2="40" style="stroke: red; stroke-width: 1px;"></line>
<circle cx="80" cy="40" r="2.5" fill="red" style=""></circle>
<line x1="80" y1="40" x2="117" y2="40" style="stroke: black; stroke-width: 1px;" opacity="0"></line>
<circle cx="117" cy="35" r="10" fill="black" style=""></circle>
<line x1="117" y1="35" x2="120" y2="40" style="stroke: red; stroke-width: 1px;"></line>
<circle cx="120" cy="40" r="2.5" fill="red" style=""></circle>
<line x1="120" y1="40" x2="155" y2="40" style="stroke: black; stroke-width: 1px;" opacity="0"></line>
<circle cx="155" cy="35" r="10" fill="black" style=""></circle>
<line x1="155" y1="35" x2="160" y2="40" style="stroke: red; stroke-width: 1px;"></line>
<circle cx="160" cy="40" r="2.5" fill="red" style=""></circle>
<line x1="160" y1="40" x2="203" y2="40" style="stroke: black; stroke-width: 1px;" opacity="0"></line>
<circle cx="203" cy="37" r="10" fill="black" style=""></circle>
<line x1="203" y1="37" x2="200" y2="40" style="stroke: red; stroke-width: 1px;"></line>
<circle cx="200" cy="40" r="2.5" fill="red" style=""></circle>
<line x1="200" y1="40" x2="-202" y2="40" style="stroke: black; stroke-width: 1px;" opacity="0"></line>
<circle cx="-202" cy="5" r="10" fill="black" style=""></circle>
<line x1="-202" y1="5" x2="-200" y2="0" style="stroke: red; stroke-width: 1px;"></line>
<circle cx="-200" cy="0" r="2.5" fill="red" style=""></circle>
<line x1="-200" y1="0" x2="-162" y2="0" style="stroke: black; stroke-width: 1px;" opacity="0"></line>
<circle cx="-162" cy="2" r="10" fill="black" style=""></circle>
<line x1="-162" y1="2" x2="-160" y2="0" style="stroke: red; stroke-width: 1px;"></line>
<circle cx="-160" cy="0" r="2.5" fill="red" style=""></circle>
<line x1="-160" y1="0" x2="-120" y2="0" style="stroke: black; stroke-width: 1px;" opacity="0"></line>
<circle cx="-120" cy="2" r="10" fill="black" style=""></circle>
<line x1="-120" y1="2" x2="-120" y2="0" style="stroke: red; stroke-width: 1px;"></line>
<circle cx="-120" cy="0" r="2.5" fill="red" style=""></circle>
<line x1="-120" y1="0" x2="-84" y2="0" style="stroke: black; stroke-width: 1px;" opacity="0"></line>
<circle cx="-84" cy="4" r="10" fill="black" style=""></circle>
<line x1="-84" y1="4" x2="-80" y2="0" style="stroke: red; stroke-width: 1px;"></line>
<circle cx="-80" cy="0" r="2.5" fill="red" style=""></circle>
<line x1="-80" y1="0" x2="-41" y2="0" style="stroke: black; stroke-width: 1px;" opacity="0"></line>
<circle cx="-41" cy="3" r="10" fill="black" style=""></circle>
<line x1="-41" y1="3" x2="-40" y2="0" style="stroke: red; stroke-width: 1px;"></line>
<circle cx="-40" cy="0" r="2.5" fill="red" style=""></circle>
<line x1="-40" y1="0" x2="4" y2="0" style="stroke: black; stroke-width: 1px;" opacity="0"></line>
<circle cx="4" cy="3" r="10" fill="black" style=""></circle>
<line x1="4" y1="3" x2="0" y2="0" style="stroke: red; stroke-width: 1px;"></line>
<circle cx="0" cy="0" r="2.5" fill="red" style=""></circle>
<line x1="0" y1="0" x2="39" y2="0" style="stroke: black; stroke-width: 1px;" opacity="0"></line>
<circle cx="39" cy="-3" r="10" fill="black" style=""></circle>
<line x1="39" y1="-3" x2="40" y2="0" style="stroke: red; stroke-width: 1px;"></line>
<circle cx="40" cy="0" r="2.5" fill="red" style=""></circle>
<line x1="40" y1="0" x2="77" y2="0" style="stroke: black; stroke-width: 1px;" opacity="0"></line>
<circle cx="77" cy="2" r="10" fill="black" style=""></circle>
<line x1="77" y1="2" x2="80" y2="0" style="stroke: red; stroke-width: 1px;"></line>
<circle cx="80" cy="0" r="2.5" fill="red" style=""></circle>
<line x1="80" y1="0" x2="118" y2="0" style="stroke: black; stroke-width: 1px;" opacity="0"></line>
<circle cx="118" cy="-5" r="10" fill="black" style=""></circle>
<line x1="118" y1="-5" x2="120" y2="0" style="stroke: red; stroke-width: 1px;"></line>
<circle cx="120" cy="0" r="2.5" fill="red" style=""></circle>
<line x1="120" y1="0" x2="163" y2="0" style="stroke: black; stroke-width: 1px;" opacity="0"></line>
<circle cx="163" cy="5" r="10" fill="black" style=""></circle>
<line x1="163" y1="5" x2="160" y2="0" style="stroke: red; stroke-width: 1px;"></line>
<circle cx="160" cy="0" r="2.5" fill="red" style=""></circle>
<line x1="160" y1="0" x2="203" y2="0" style="stroke: black; stroke-width: 1px;" opacity="0"></line>
<circle cx="203" cy="-2" r="10" fill="black" style=""></circle>
<line x1="203" y1="-2" x2="200" y2="0" style="stroke: red; stroke-width: 1px;"></line>
<circle cx="200" cy="0" r="2.5" fill="red" style=""></circle>
<line x1="200" y1="0" x2="-205" y2="0" style="stroke: black; stroke-width: 1px;" opacity="0"></line>
<circle cx="-205" cy="-39" r="10" fill="black" style=""></circle>
<line x1="-205" y1="-39" x2="-200" y2="-40" style="stroke: red; stroke-width: 1px;"></line>
<circle cx="-200" cy="-40" r="2.5" fill="red" style=""></circle>
<line x1="-200" y1="-40" x2="-158" y2="-40" style="stroke: black; stroke-width: 1px;" opacity="0"></line>
<circle cx="-158" cy="-39" r="10" fill="black" style=""></circle>
<line x1="-158" y1="-39" x2="-160" y2="-40" style="stroke: red; stroke-width: 1px;"></line>
<circle cx="-160" cy="-40" r="2.5" fill="red" style=""></circle>
<line x1="-160" y1="-40" x2="-116" y2="-40" style="stroke: black; stroke-width: 1px;" opacity="0"></line>
<circle cx="-116" cy="-37" r="10" fill="black" style=""></circle>
<line x1="-116" y1="-37" x2="-120" y2="-40" style="stroke: red; stroke-width: 1px;"></line>
<circle cx="-120" cy="-40" r="2.5" fill="red" style=""></circle>
<line x1="-120" y1="-40" x2="-78" y2="-40" style="stroke: black; stroke-width: 1px;" opacity="0"></line>
<circle cx="-78" cy="-35" r="10" fill="black" style=""></circle>
<line x1="-78" y1="-35" x2="-80" y2="-40" style="stroke: red; stroke-width: 1px;"></line>
<circle cx="-80" cy="-40" r="2.5" fill="red" style=""></circle>
<line x1="-80" y1="-40" x2="-45" y2="-40" style="stroke: black; stroke-width: 1px;" opacity="0"></line>
<circle cx="-45" cy="-38" r="10" fill="black" style=""></circle>
<line x1="-45" y1="-38" x2="-40" y2="-40" style="stroke: red; stroke-width: 1px;"></line>
<circle cx="-40" cy="-40" r="2.5" fill="red" style=""></circle>
<line x1="-40" y1="-40" x2="-3" y2="-40" style="stroke: black; stroke-width: 1px;" opacity="0"></line>
<circle cx="-3" cy="-35" r="10" fill="black" style=""></circle>
<line x1="-3" y1="-35" x2="0" y2="-40" style="stroke: red; stroke-width: 1px;"></line>
<circle cx="0" cy="-40" r="2.5" fill="red" style=""></circle>
<line x1="0" y1="-40" x2="44" y2="-40" style="stroke: black; stroke-width: 1px;" opacity="0"></line>
<circle cx="44" cy="-36" r="10" fill="black" style=""></circle>
<line x1="44" y1="-36" x2="40" y2="-40" style="stroke: red; stroke-width: 1px;"></line>
<circle cx="40" cy="-40" r="2.5" fill="red" style=""></circle>
<line x1="40" y1="-40" x2="76" y2="-40" style="stroke: black; stroke-width: 1px;" opacity="0"></line>
<circle cx="76" cy="-38" r="10" fill="black" style=""></circle>
<line x1="76" y1="-38" x2="80" y2="-40" style="stroke: red; stroke-width: 1px;"></line>
<circle cx="80" cy="-40" r="2.5" fill="red" style=""></circle>
<line x1="80" y1="-40" x2="123" y2="-40" style="stroke: black; stroke-width: 1px;" opacity="0"></line>
<circle cx="123" cy="-36" r="10" fill="black" style=""></circle>
<line x1="123" y1="-36" x2="120" y2="-40" style="stroke: red; stroke-width: 1px;"></line>
<circle cx="120" cy="-40" r="2.5" fill="red" style=""></circle>
<line x1="120" y1="-40" x2="155" y2="-40" style="stroke: black; stroke-width: 1px;" opacity="0"></line>
<circle cx="155" cy="-44" r="10" fill="black" style=""></circle>
<line x1="155" y1="-44" x2="160" y2="-40" style="stroke: red; stroke-width: 1px;"></line>
<circle cx="160" cy="-40" r="2.5" fill="red" style=""></circle>
<line x1="160" y1="-40" x2="201" y2="-40" style="stroke: black; stroke-width: 1px;" opacity="0"></line>
<circle cx="201" cy="-40" r="10" fill="black" style=""></circle>
<line x1="201" y1="-40" x2="200" y2="-40" style="stroke: red; stroke-width: 1px;"></line>
<circle cx="200" cy="-40" r="2.5" fill="red" style=""></circle>
<line x1="200" y1="-40" x2="-204" y2="-40" style="stroke: black; stroke-width: 1px;" opacity="0"></line>
<circle cx="-204" cy="-76" r="10" fill="black" style=""></circle>
<line x1="-204" y1="-76" x2="-200" y2="-80" style="stroke: red; stroke-width: 1px;"></line>
<circle cx="-200" cy="-80" r="2.5" fill="red" style=""></circle>
<line x1="-200" y1="-80" x2="-161" y2="-80" style="stroke: black; stroke-width: 1px;" opacity="0"></line>
<circle cx="-161" cy="-85" r="10" fill="black" style=""></circle>
<line x1="-161" y1="-85" x2="-160" y2="-80" style="stroke: red; stroke-width: 1px;"></line>
<circle cx="-160" cy="-80" r="2.5" fill="red" style=""></circle>
<line x1="-160" y1="-80" x2="-115" y2="-80" style="stroke: black; stroke-width: 1px;" opacity="0"></line>
<circle cx="-115" cy="-85" r="10" fill="black" style=""></circle>
<line x1="-115" y1="-85" x2="-120" y2="-80" style="stroke: red; stroke-width: 1px;"></line>
<circle cx="-120" cy="-80" r="2.5" fill="red" style=""></circle>
<line x1="-120" y1="-80" x2="-84" y2="-80" style="stroke: black; stroke-width: 1px;" opacity="0"></line>
<circle cx="-84" cy="-83" r="10" fill="black" style=""></circle>
<line x1="-84" y1="-83" x2="-80" y2="-80" style="stroke: red; stroke-width: 1px;"></line>
<circle cx="-80" cy="-80" r="2.5" fill="red" style=""></circle>
<line x1="-80" y1="-80" x2="-44" y2="-80" style="stroke: black; stroke-width: 1px;" opacity="0"></line>
<circle cx="-44" cy="-81" r="10" fill="black" style=""></circle>
<line x1="-44" y1="-81" x2="-40" y2="-80" style="stroke: red; stroke-width: 1px;"></line>
<circle cx="-40" cy="-80" r="2.5" fill="red" style=""></circle>
<line x1="-40" y1="-80" x2="0" y2="-80" style="stroke: black; stroke-width: 1px;" opacity="0"></line>
<circle cx="0" cy="-84" r="10" fill="black" style=""></circle>
<line x1="0" y1="-84" x2="0" y2="-80" style="stroke: red; stroke-width: 1px;"></line>
<circle cx="0" cy="-80" r="2.5" fill="red" style=""></circle>
<line x1="0" y1="-80" x2="44" y2="-80" style="stroke: black; stroke-width: 1px;" opacity="0"></line>
<circle cx="44" cy="-79" r="10" fill="black" style=""></circle>
<line x1="44" y1="-79" x2="40" y2="-80" style="stroke: red; stroke-width: 1px;"></line>
<circle cx="40" cy="-80" r="2.5" fill="red" style=""></circle>
<line x1="40" y1="-80" x2="77" y2="-80" style="stroke: black; stroke-width: 1px;" opacity="0"></line>
<circle cx="77" cy="-80" r="10" fill="black" style=""></circle>
<line x1="77" y1="-80" x2="80" y2="-80" style="stroke: red; stroke-width: 1px;"></line>
<circle cx="80" cy="-80" r="2.5" fill="red" style=""></circle>
<line x1="80" y1="-80" x2="118" y2="-80" style="stroke: black; stroke-width: 1px;" opacity="0"></line>
<circle cx="118" cy="-75" r="10" fill="black" style=""></circle>
<line x1="118" y1="-75" x2="120" y2="-80" style="stroke: red; stroke-width: 1px;"></line>
<circle cx="120" cy="-80" r="2.5" fill="red" style=""></circle>
<line x1="120" y1="-80" x2="159" y2="-80" style="stroke: black; stroke-width: 1px;" opacity="0"></line>
<circle cx="159" cy="-81" r="10" fill="black" style=""></circle>
<line x1="159" y1="-81" x2="160" y2="-80" style="stroke: red; stroke-width: 1px;"></line>
<circle cx="160" cy="-80" r="2.5" fill="red" style=""></circle>
<line x1="160" y1="-80" x2="196" y2="-80" style="stroke: black; stroke-width: 1px;" opacity="0"></line>
<circle cx="196" cy="-78" r="10" fill="black" style=""></circle>
<line x1="196" y1="-78" x2="200" y2="-80" style="stroke: red; stroke-width: 1px;"></line>
<circle cx="200" cy="-80" r="2.5" fill="red" style=""></circle>
<line x1="200" y1="-80" x2="-195" y2="-80" style="stroke: black; stroke-width: 1px;" opacity="0"></line>
<circle cx="-195" cy="-118" r="10" fill="black" style=""></circle>
<line x1="-195" y1="-118" x2="-200" y2="-120" style="stroke: red; stroke-width: 1px;"></line>
<circle cx="-200" cy="-120" r="2.5" fill="red" style=""></circle>
<line x1="-200" y1="-120" x2="-160" y2="-120" style="stroke: black; stroke-width: 1px;" opacity="0"></line>
<circle cx="-160" cy="-123" r="10" fill="black" style=""></circle>
<line x1="-160" y1="-123" x2="-160" y2="-120" style="stroke: red; stroke-width: 1px;"></line>
<circle cx="-160" cy="-120" r="2.5" fill="red" style=""></circle>
<line x1="-160" y1="-120" x2="-122" y2="-120" style="stroke: black; stroke-width: 1px;" opacity="0"></line>
<circle cx="-122" cy="-118" r="10" fill="black" style=""></circle>
<line x1="-122" y1="-118" x2="-120" y2="-120" style="stroke: red; stroke-width: 1px;"></line>
<circle cx="-120" cy="-120" r="2.5" fill="red" style=""></circle>
<line x1="-120" y1="-120" x2="-78" y2="-120" style="stroke: black; stroke-width: 1px;" opacity="0"></line>
<circle cx="-78" cy="-121" r="10" fill="black" style=""></circle>
<line x1="-78" y1="-121" x2="-80" y2="-120" style="stroke: red; stroke-width: 1px;"></line>
<circle cx="-80" cy="-120" r="2.5" fill="red" style=""></circle>
<line x1="-80" y1="-120" x2="-40" y2="-120" style="stroke: black; stroke-width: 1px;" opacity="0"></line>
<circle cx="-40" cy="-116" r="10" fill="black" style=""></circle>
<line x1="-40" y1="-116" x2="-40" y2="-120" style="stroke: red; stroke-width: 1px;"></line>
<circle cx="-40" cy="-120" r="2.5" fill="red" style=""></circle>
<line x1="-40" y1="-120" x2="-1" y2="-120" style="stroke: black; stroke-width: 1px;" opacity="0"></line>
<circle cx="-1" cy="-117" r="10" fill="black" style=""></circle>
<line x1="-1" y1="-117" x2="0" y2="-120" style="stroke: red; stroke-width: 1px;"></line>
<circle cx="0" cy="-120" r="2.5" fill="red" style=""></circle>
<line x1="0" y1="-120" x2="43" y2="-120" style="stroke: black; stroke-width: 1px;" opacity="0"></line>
<circle cx="43" cy="-124" r="10" fill="black" style=""></circle>
<line x1="43" y1="-124" x2="40" y2="-120" style="stroke: red; stroke-width: 1px;"></line>
<circle cx="40" cy="-120" r="2.5" fill="red" style=""></circle>
<line x1="40" y1="-120" x2="75" y2="-120" style="stroke: black; stroke-width: 1px;" opacity="0"></line>
<circle cx="75" cy="-125" r="10" fill="black" style=""></circle>
<line x1="75" y1="-125" x2="80" y2="-120" style="stroke: red; stroke-width: 1px;"></line>
<circle cx="80" cy="-120" r="2.5" fill="red" style=""></circle>
<line x1="80" y1="-120" x2="117" y2="-120" style="stroke: black; stroke-width: 1px;" opacity="0"></line>
<circle cx="117" cy="-117" r="10" fill="black" style=""></circle>
<line x1="117" y1="-117" x2="120" y2="-120" style="stroke: red; stroke-width: 1px;"></line>
<circle cx="120" cy="-120" r="2.5" fill="red" style=""></circle>
<line x1="120" y1="-120" x2="159" y2="-120" style="stroke: black; stroke-width: 1px;" opacity="0"></line>
<circle cx="159" cy="-125" r="10" fill="black" style=""></circle>
<line x1="159" y1="-125" x2="160" y2="-120" style="stroke: red; stroke-width: 1px;"></line>
<circle cx="160" cy="-120" r="2.5" fill="red" style=""></circle>
<line x1="160" y1="-120" x2="197" y2="-120" style="stroke: black; stroke-width: 1px;" opacity="0"></line>
<circle cx="197" cy="-122" r="10" fill="black" style=""></circle>
<line x1="197" y1="-122" x2="200" y2="-120" style="stroke: red; stroke-width: 1px;"></line>
<circle cx="200" cy="-120" r="2.5" fill="red" style=""></circle>
<line x1="200" y1="-120" x2="-201" y2="-120" style="stroke: black; stroke-width: 1px;" opacity="0"></line>
<circle cx="-201" cy="-163" r="10" fill="black" style=""></circle>
<line x1="-201" y1="-163" x2="-200" y2="-160" style="stroke: red; stroke-width: 1px;"></line>
<circle cx="-200" cy="-160" r="2.5" fill="red" style=""></circle>
<line x1="-200" y1="-160" x2="-165" y2="-160" style="stroke: black; stroke-width: 1px;" opacity="0"></line>
<circle cx="-165" cy="-165" r="10" fill="black" style=""></circle>
<line x1="-165" y1="-165" x2="-160" y2="-160" style="stroke: red; stroke-width: 1px;"></line>
<circle cx="-160" cy="-160" r="2.5" fill="red" style=""></circle>
<line x1="-160" y1="-160" x2="-122" y2="-160" style="stroke: black; stroke-width: 1px;" opacity="0"></line>
<circle cx="-122" cy="-161" r="10" fill="black" style=""></circle>
<line x1="-122" y1="-161" x2="-120" y2="-160" style="stroke: red; stroke-width: 1px;"></line>
<circle cx="-120" cy="-160" r="2.5" fill="red" style=""></circle>
<line x1="-120" y1="-160" x2="-78" y2="-160" style="stroke: black; stroke-width: 1px;" opacity="0"></line>
<circle cx="-78" cy="-165" r="10" fill="black" style=""></circle>
<line x1="-78" y1="-165" x2="-80" y2="-160" style="stroke: red; stroke-width: 1px;"></line>
<circle cx="-80" cy="-160" r="2.5" fill="red" style=""></circle>
<line x1="-80" y1="-160" x2="-44" y2="-160" style="stroke: black; stroke-width: 1px;" opacity="0"></line>
<circle cx="-44" cy="-163" r="10" fill="black" style=""></circle>
<line x1="-44" y1="-163" x2="-40" y2="-160" style="stroke: red; stroke-width: 1px;"></line>
<circle cx="-40" cy="-160" r="2.5" fill="red" style=""></circle>
<line x1="-40" y1="-160" x2="-3" y2="-160" style="stroke: black; stroke-width: 1px;" opacity="0"></line>
<circle cx="-3" cy="-162" r="10" fill="black" style=""></circle>
<line x1="-3" y1="-162" x2="0" y2="-160" style="stroke: red; stroke-width: 1px;"></line>
<circle cx="0" cy="-160" r="2.5" fill="red" style=""></circle>
<line x1="0" y1="-160" x2="44" y2="-160" style="stroke: black; stroke-width: 1px;" opacity="0"></line>
<circle cx="44" cy="-159" r="10" fill="black" style=""></circle>
<line x1="44" y1="-159" x2="40" y2="-160" style="stroke: red; stroke-width: 1px;"></line>
<circle cx="40" cy="-160" r="2.5" fill="red" style=""></circle>
<line x1="40" y1="-160" x2="79" y2="-160" style="stroke: black; stroke-width: 1px;" opacity="0"></line>
<circle cx="79" cy="-159" r="10" fill="black" style=""></circle>
<line x1="79" y1="-159" x2="80" y2="-160" style="stroke: red; stroke-width: 1px;"></line>
<circle cx="80" cy="-160" r="2.5" fill="red" style=""></circle>
<line x1="80" y1="-160" x2="119" y2="-160" style="stroke: black; stroke-width: 1px;" opacity="0"></line>
<circle cx="119" cy="-159" r="10" fill="black" style=""></circle>
<line x1="119" y1="-159" x2="120" y2="-160" style="stroke: red; stroke-width: 1px;"></line>
<circle cx="120" cy="-160" r="2.5" fill="red" style=""></circle>
<line x1="120" y1="-160" x2="158" y2="-160" style="stroke: black; stroke-width: 1px;" opacity="0"></line>
<circle cx="158" cy="-163" r="10" fill="black" style=""></circle>
<line x1="158" y1="-163" x2="160" y2="-160" style="stroke: red; stroke-width: 1px;"></line>
<circle cx="160" cy="-160" r="2.5" fill="red" style=""></circle>
<line x1="160" y1="-160" x2="202" y2="-160" style="stroke: black; stroke-width: 1px;" opacity="0"></line>
<circle cx="202" cy="-157" r="10" fill="black" style=""></circle>
<line x1="202" y1="-157" x2="200" y2="-160" style="stroke: red; stroke-width: 1px;"></line>
<circle cx="200" cy="-160" r="2.5" fill="red" style=""></circle>
<line x1="200" y1="-160" x2="-202" y2="-160" style="stroke: black; stroke-width: 1px;" opacity="0"></line>
<circle cx="-202" cy="-203" r="10" fill="black" style=""></circle>
<line x1="-202" y1="-203" x2="-200" y2="-200" style="stroke: red; stroke-width: 1px;"></line>
<circle cx="-200" cy="-200" r="2.5" fill="red" style=""></circle>
<line x1="-200" y1="-200" x2="-162" y2="-200" style="stroke: black; stroke-width: 1px;" opacity="0"></line>
<circle cx="-162" cy="-195" r="10" fill="black" style=""></circle>
<line x1="-162" y1="-195" x2="-160" y2="-200" style="stroke: red; stroke-width: 1px;"></line>
<circle cx="-160" cy="-200" r="2.5" fill="red" style=""></circle>
<line x1="-160" y1="-200" x2="-119" y2="-200" style="stroke: black; stroke-width: 1px;" opacity="0"></line>
<circle cx="-119" cy="-205" r="10" fill="black" style=""></circle>
<line x1="-119" y1="-205" x2="-120" y2="-200" style="stroke: red; stroke-width: 1px;"></line>
<circle cx="-120" cy="-200" r="2.5" fill="red" style=""></circle>
<line x1="-120" y1="-200" x2="-84" y2="-200" style="stroke: black; stroke-width: 1px;" opacity="0"></line>
<circle cx="-84" cy="-195" r="10" fill="black" style=""></circle>
<line x1="-84" y1="-195" x2="-80" y2="-200" style="stroke: red; stroke-width: 1px;"></line>
<circle cx="-80" cy="-200" r="2.5" fill="red" style=""></circle>
<line x1="-80" y1="-200" x2="-43" y2="-200" style="stroke: black; stroke-width: 1px;" opacity="0"></line>
<circle cx="-43" cy="-196" r="10" fill="black" style=""></circle>
<line x1="-43" y1="-196" x2="-40" y2="-200" style="stroke: red; stroke-width: 1px;"></line>
<circle cx="-40" cy="-200" r="2.5" fill="red" style=""></circle>
<line x1="-40" y1="-200" x2="5" y2="-200" style="stroke: black; stroke-width: 1px;" opacity="0"></line>
<circle cx="5" cy="-198" r="10" fill="black" style=""></circle>
<line x1="5" y1="-198" x2="0" y2="-200" style="stroke: red; stroke-width: 1px;"></line>
<circle cx="0" cy="-200" r="2.5" fill="red" style=""></circle>
<line x1="0" y1="-200" x2="38" y2="-200" style="stroke: black; stroke-width: 1px;" opacity="0"></line>
<circle cx="38" cy="-197" r="10" fill="black" style=""></circle>
<line x1="38" y1="-197" x2="40" y2="-200" style="stroke: red; stroke-width: 1px;"></line>
<circle cx="40" cy="-200" r="2.5" fill="red" style=""></circle>
<line x1="40" y1="-200" x2="82" y2="-200" style="stroke: black; stroke-width: 1px;" opacity="0"></line>
<circle cx="82" cy="-204" r="10" fill="black" style=""></circle>
<line x1="82" y1="-204" x2="80" y2="-200" style="stroke: red; stroke-width: 1px;"></line>
<circle cx="80" cy="-200" r="2.5" fill="red" style=""></circle>
<line x1="80" y1="-200" x2="120" y2="-200" style="stroke: black; stroke-width: 1px;" opacity="0"></line>
<circle cx="120" cy="-200" r="10" fill="black" style=""></circle>
<line x1="120" y1="-200" x2="120" y2="-200" style="stroke: red; stroke-width: 1px;"></line>
<circle cx="120" cy="-200" r="2.5" fill="red" style=""></circle>
<line x1="120" y1="-200" x2="155" y2="-200" style="stroke: black; stroke-width: 1px;" opacity="0"></line>
<circle cx="155" cy="-195" r="10" fill="black" style=""></circle>
<line x1="155" y1="-195" x2="160" y2="-200" style="stroke: red; stroke-width: 1px;"></line>
<circle cx="160" cy="-200" r="2.5" fill="red" style=""></circle>
<line x1="160" y1="-200" x2="200" y2="-200" style="stroke: black; stroke-width: 1px;" opacity="0"></line>
<circle cx="200" cy="-198" r="10" fill="black" style=""></circle>
<line x1="200" y1="-198" x2="200" y2="-200" style="stroke: red; stroke-width: 1px;"></line>
<circle cx="200" cy="-200" r="2.5" fill="red" style=""></circle>
<line x1="200" y1="-200" x2="200" y2="-200" style="stroke: red; stroke-width: 1px;"></line>
</g>
<g transform="translate(350 350)">
<polygon points="0,0 ,-5,-9 ,0,-7 ,5,-9 " stroke="red" fill="red" stroke-width="1" opacity="0" transform="translate(200.0,-200.0) rotate(-90.0,0,0)"></polygon>
</g>
<metadata><raw>from turtle import *
from random import randint
turtle.set_defaults(canvwidth=700, canvheight=700)
speed(0)
def move_to(x, y):
    penup()
    goto(x, y)
    pendown()

def circa_to(x, y, jitter = 10):
    move_to(x + randint(-jitter, jitter), y + randint(-jitter, jitter))

Screen
for y in range(11):
    for x in range(11):
        color('black')
        circa_to(x * 40 - 200, y * 40 - 200, 5+0*x * y)
        dot(20)
        
        color('red')
        goto(x * 40 - 200, y * 40 - 200)
        dot()
        
hideturtle()

</raw></metadata></svg>