<!--?xml version="1.0" standalone="no"?-->
<svg id="code_py_5cd5359e_d020_4a76_977a_46a6a92a9a2d_svg" width="430" height="430" xmlns="http://www.w3.org/2000/svg" viewBox="135,135,430,430">
<g transform="translate(350 350)">
<line x1="0" y1="0" x2="0" y2="0" style="stroke: black; stroke-width: 1px;"></line>
<line x1="0" y1="0" x2="-200" y2="0" style="stroke: black; stroke-width: 1px;" opacity="0"></line>
<circle cx="-200" cy="200" r="10" fill="black" style=""></circle>
<line x1="-200" y1="200" x2="-160" y2="200" style="stroke: black; stroke-width: 1px;" opacity="0"></line>
<circle cx="-160" cy="200" r="10" fill="black" style=""></circle>
<line x1="-160" y1="200" x2="-120" y2="200" style="stroke: black; stroke-width: 1px;" opacity="0"></line>
<circle cx="-120" cy="200" r="10" fill="black" style=""></circle>
<line x1="-120" y1="200" x2="-80" y2="200" style="stroke: black; stroke-width: 1px;" opacity="0"></line>
<circle cx="-80" cy="200" r="10" fill="black" style=""></circle>
<line x1="-80" y1="200" x2="-40" y2="200" style="stroke: black; stroke-width: 1px;" opacity="0"></line>
<circle cx="-40" cy="200" r="10" fill="black" style=""></circle>
<line x1="-40" y1="200" x2="0" y2="200" style="stroke: black; stroke-width: 1px;" opacity="0"></line>
<circle cx="0" cy="200" r="10" fill="black" style=""></circle>
<line x1="0" y1="200" x2="40" y2="200" style="stroke: black; stroke-width: 1px;" opacity="0"></line>
<circle cx="40" cy="200" r="10" fill="black" style=""></circle>
<line x1="40" y1="200" x2="80" y2="200" style="stroke: black; stroke-width: 1px;" opacity="0"></line>
<circle cx="80" cy="200" r="10" fill="black" style=""></circle>
<line x1="80" y1="200" x2="120" y2="200" style="stroke: black; stroke-width: 1px;" opacity="0"></line>
<circle cx="120" cy="200" r="10" fill="black" style=""></circle>
<line x1="120" y1="200" x2="160" y2="200" style="stroke: black; stroke-width: 1px;" opacity="0"></line>
<circle cx="160" cy="200" r="10" fill="black" style=""></circle>
<line x1="160" y1="200" x2="200" y2="200" style="stroke: black; stroke-width: 1px;" opacity="0"></line>
<circle cx="200" cy="200" r="10" fill="black" style=""></circle>
<line x1="200" y1="200" x2="-200" y2="200" style="stroke: black; stroke-width: 1px;" opacity="0"></line>
<circle cx="-200" cy="160" r="10" fill="black" style=""></circle>
<line x1="-200" y1="160" x2="-160" y2="160" style="stroke: black; stroke-width: 1px;" opacity="0"></line>
<circle cx="-160" cy="160" r="10" fill="black" style=""></circle>
<line x1="-160" y1="160" x2="-120" y2="160" style="stroke: black; stroke-width: 1px;" opacity="0"></line>
<circle cx="-120" cy="160" r="10" fill="black" style=""></circle>
<line x1="-120" y1="160" x2="-80" y2="160" style="stroke: black; stroke-width: 1px;" opacity="0"></line>
<circle cx="-80" cy="160" r="10" fill="black" style=""></circle>
<line x1="-80" y1="160" x2="-40" y2="160" style="stroke: black; stroke-width: 1px;" opacity="0"></line>
<circle cx="-40" cy="160" r="10" fill="black" style=""></circle>
<line x1="-40" y1="160" x2="0" y2="160" style="stroke: black; stroke-width: 1px;" opacity="0"></line>
<circle cx="0" cy="160" r="10" fill="black" style=""></circle>
<line x1="0" y1="160" x2="40" y2="160" style="stroke: black; stroke-width: 1px;" opacity="0"></line>
<circle cx="40" cy="160" r="10" fill="black" style=""></circle>
<line x1="40" y1="160" x2="80" y2="160" style="stroke: black; stroke-width: 1px;" opacity="0"></line>
<circle cx="80" cy="160" r="10" fill="black" style=""></circle>
<line x1="80" y1="160" x2="120" y2="160" style="stroke: black; stroke-width: 1px;" opacity="0"></line>
<circle cx="120" cy="160" r="10" fill="black" style=""></circle>
<line x1="120" y1="160" x2="160" y2="160" style="stroke: black; stroke-width: 1px;" opacity="0"></line>
<circle cx="160" cy="160" r="10" fill="black" style=""></circle>
<line x1="160" y1="160" x2="200" y2="160" style="stroke: black; stroke-width: 1px;" opacity="0"></line>
<circle cx="200" cy="160" r="10" fill="black" style=""></circle>
<line x1="200" y1="160" x2="-200" y2="160" style="stroke: black; stroke-width: 1px;" opacity="0"></line>
<circle cx="-200" cy="120" r="10" fill="black" style=""></circle>
<line x1="-200" y1="120" x2="-160" y2="120" style="stroke: black; stroke-width: 1px;" opacity="0"></line>
<circle cx="-160" cy="120" r="10" fill="black" style=""></circle>
<line x1="-160" y1="120" x2="-120" y2="120" style="stroke: black; stroke-width: 1px;" opacity="0"></line>
<circle cx="-120" cy="120" r="10" fill="black" style=""></circle>
<line x1="-120" y1="120" x2="-80" y2="120" style="stroke: black; stroke-width: 1px;" opacity="0"></line>
<circle cx="-80" cy="120" r="10" fill="black" style=""></circle>
<line x1="-80" y1="120" x2="-40" y2="120" style="stroke: black; stroke-width: 1px;" opacity="0"></line>
<circle cx="-40" cy="120" r="10" fill="black" style=""></circle>
<line x1="-40" y1="120" x2="0" y2="120" style="stroke: black; stroke-width: 1px;" opacity="0"></line>
<circle cx="0" cy="120" r="10" fill="black" style=""></circle>
<line x1="0" y1="120" x2="40" y2="120" style="stroke: black; stroke-width: 1px;" opacity="0"></line>
<circle cx="40" cy="120" r="10" fill="black" style=""></circle>
<line x1="40" y1="120" x2="80" y2="120" style="stroke: black; stroke-width: 1px;" opacity="0"></line>
<circle cx="80" cy="120" r="10" fill="black" style=""></circle>
<line x1="80" y1="120" x2="120" y2="120" style="stroke: black; stroke-width: 1px;" opacity="0"></line>
<circle cx="120" cy="120" r="10" fill="black" style=""></circle>
<line x1="120" y1="120" x2="160" y2="120" style="stroke: black; stroke-width: 1px;" opacity="0"></line>
<circle cx="160" cy="120" r="10" fill="black" style=""></circle>
<line x1="160" y1="120" x2="200" y2="120" style="stroke: black; stroke-width: 1px;" opacity="0"></line>
<circle cx="200" cy="120" r="10" fill="black" style=""></circle>
<line x1="200" y1="120" x2="-200" y2="120" style="stroke: black; stroke-width: 1px;" opacity="0"></line>
<circle cx="-200" cy="80" r="10" fill="black" style=""></circle>
<line x1="-200" y1="80" x2="-160" y2="80" style="stroke: black; stroke-width: 1px;" opacity="0"></line>
<circle cx="-160" cy="80" r="10" fill="black" style=""></circle>
<line x1="-160" y1="80" x2="-120" y2="80" style="stroke: black; stroke-width: 1px;" opacity="0"></line>
<circle cx="-120" cy="80" r="10" fill="black" style=""></circle>
<line x1="-120" y1="80" x2="-80" y2="80" style="stroke: black; stroke-width: 1px;" opacity="0"></line>
<circle cx="-80" cy="80" r="10" fill="black" style=""></circle>
<line x1="-80" y1="80" x2="-40" y2="80" style="stroke: black; stroke-width: 1px;" opacity="0"></line>
<circle cx="-40" cy="80" r="10" fill="black" style=""></circle>
<line x1="-40" y1="80" x2="0" y2="80" style="stroke: black; stroke-width: 1px;" opacity="0"></line>
<circle cx="0" cy="80" r="10" fill="black" style=""></circle>
<line x1="0" y1="80" x2="40" y2="80" style="stroke: black; stroke-width: 1px;" opacity="0"></line>
<circle cx="40" cy="80" r="10" fill="black" style=""></circle>
<line x1="40" y1="80" x2="80" y2="80" style="stroke: black; stroke-width: 1px;" opacity="0"></line>
<circle cx="80" cy="80" r="10" fill="black" style=""></circle>
<line x1="80" y1="80" x2="120" y2="80" style="stroke: black; stroke-width: 1px;" opacity="0"></line>
<circle cx="120" cy="80" r="10" fill="black" style=""></circle>
<line x1="120" y1="80" x2="160" y2="80" style="stroke: black; stroke-width: 1px;" opacity="0"></line>
<circle cx="160" cy="80" r="10" fill="black" style=""></circle>
<line x1="160" y1="80" x2="200" y2="80" style="stroke: black; stroke-width: 1px;" opacity="0"></line>
<circle cx="200" cy="80" r="10" fill="black" style=""></circle>
<line x1="200" y1="80" x2="-200" y2="80" style="stroke: black; stroke-width: 1px;" opacity="0"></line>
<circle cx="-200" cy="40" r="10" fill="black" style=""></circle>
<line x1="-200" y1="40" x2="-160" y2="40" style="stroke: black; stroke-width: 1px;" opacity="0"></line>
<circle cx="-160" cy="40" r="10" fill="black" style=""></circle>
<line x1="-160" y1="40" x2="-120" y2="40" style="stroke: black; stroke-width: 1px;" opacity="0"></line>
<circle cx="-120" cy="40" r="10" fill="black" style=""></circle>
<line x1="-120" y1="40" x2="-80" y2="40" style="stroke: black; stroke-width: 1px;" opacity="0"></line>
<circle cx="-80" cy="40" r="10" fill="black" style=""></circle>
<line x1="-80" y1="40" x2="-40" y2="40" style="stroke: black; stroke-width: 1px;" opacity="0"></line>
<circle cx="-40" cy="40" r="10" fill="black" style=""></circle>
<line x1="-40" y1="40" x2="0" y2="40" style="stroke: black; stroke-width: 1px;" opacity="0"></line>
<circle cx="0" cy="40" r="10" fill="black" style=""></circle>
<line x1="0" y1="40" x2="40" y2="40" style="stroke: black; stroke-width: 1px;" opacity="0"></line>
<circle cx="40" cy="40" r="10" fill="black" style=""></circle>
<line x1="40" y1="40" x2="80" y2="40" style="stroke: black; stroke-width: 1px;" opacity="0"></line>
<circle cx="80" cy="40" r="10" fill="black" style=""></circle>
<line x1="80" y1="40" x2="120" y2="40" style="stroke: black; stroke-width: 1px;" opacity="0"></line>
<circle cx="120" cy="40" r="10" fill="black" style=""></circle>
<line x1="120" y1="40" x2="160" y2="40" style="stroke: black; stroke-width: 1px;" opacity="0"></line>
<circle cx="160" cy="40" r="10" fill="black" style=""></circle>
<line x1="160" y1="40" x2="200" y2="40" style="stroke: black; stroke-width: 1px;" opacity="0"></line>
<circle cx="200" cy="40" r="10" fill="black" style=""></circle>
<line x1="200" y1="40" x2="-200" y2="40" style="stroke: black; stroke-width: 1px;" opacity="0"></line>
<circle cx="-200" cy="0" r="10" fill="black" style=""></circle>
<line x1="-200" y1="0" x2="-160" y2="0" style="stroke: black; stroke-width: 1px;" opacity="0"></line>
<circle cx="-160" cy="0" r="10" fill="black" style=""></circle>
<line x1="-160" y1="0" x2="-120" y2="0" style="stroke: black; stroke-width: 1px;" opacity="0"></line>
<circle cx="-120" cy="0" r="10" fill="black" style=""></circle>
<line x1="-120" y1="0" x2="-80" y2="0" style="stroke: black; stroke-width: 1px;" opacity="0"></line>
<circle cx="-80" cy="0" r="10" fill="black" style=""></circle>
<line x1="-80" y1="0" x2="-40" y2="0" style="stroke: black; stroke-width: 1px;" opacity="0"></line>
<circle cx="-40" cy="0" r="10" fill="black" style=""></circle>
<line x1="-40" y1="0" x2="0" y2="0" style="stroke: black; stroke-width: 1px;" opacity="0"></line>
<circle cx="0" cy="0" r="10" fill="black" style=""></circle>
<line x1="0" y1="0" x2="40" y2="0" style="stroke: black; stroke-width: 1px;" opacity="0"></line>
<circle cx="40" cy="0" r="10" fill="black" style=""></circle>
<line x1="40" y1="0" x2="80" y2="0" style="stroke: black; stroke-width: 1px;" opacity="0"></line>
<circle cx="80" cy="0" r="10" fill="black" style=""></circle>
<line x1="80" y1="0" x2="120" y2="0" style="stroke: black; stroke-width: 1px;" opacity="0"></line>
<circle cx="120" cy="0" r="10" fill="black" style=""></circle>
<line x1="120" y1="0" x2="160" y2="0" style="stroke: black; stroke-width: 1px;" opacity="0"></line>
<circle cx="160" cy="0" r="10" fill="black" style=""></circle>
<line x1="160" y1="0" x2="200" y2="0" style="stroke: black; stroke-width: 1px;" opacity="0"></line>
<circle cx="200" cy="0" r="10" fill="black" style=""></circle>
<line x1="200" y1="0" x2="-200" y2="0" style="stroke: black; stroke-width: 1px;" opacity="0"></line>
<circle cx="-200" cy="-40" r="10" fill="black" style=""></circle>
<line x1="-200" y1="-40" x2="-160" y2="-40" style="stroke: black; stroke-width: 1px;" opacity="0"></line>
<circle cx="-160" cy="-40" r="10" fill="black" style=""></circle>
<line x1="-160" y1="-40" x2="-120" y2="-40" style="stroke: black; stroke-width: 1px;" opacity="0"></line>
<circle cx="-120" cy="-40" r="10" fill="black" style=""></circle>
<line x1="-120" y1="-40" x2="-80" y2="-40" style="stroke: black; stroke-width: 1px;" opacity="0"></line>
<circle cx="-80" cy="-40" r="10" fill="black" style=""></circle>
<line x1="-80" y1="-40" x2="-40" y2="-40" style="stroke: black; stroke-width: 1px;" opacity="0"></line>
<circle cx="-40" cy="-40" r="10" fill="black" style=""></circle>
<line x1="-40" y1="-40" x2="0" y2="-40" style="stroke: black; stroke-width: 1px;" opacity="0"></line>
<circle cx="0" cy="-40" r="10" fill="black" style=""></circle>
<line x1="0" y1="-40" x2="40" y2="-40" style="stroke: black; stroke-width: 1px;" opacity="0"></line>
<circle cx="40" cy="-40" r="10" fill="black" style=""></circle>
<line x1="40" y1="-40" x2="80" y2="-40" style="stroke: black; stroke-width: 1px;" opacity="0"></line>
<circle cx="80" cy="-40" r="10" fill="black" style=""></circle>
<line x1="80" y1="-40" x2="120" y2="-40" style="stroke: black; stroke-width: 1px;" opacity="0"></line>
<circle cx="120" cy="-40" r="10" fill="black" style=""></circle>
<line x1="120" y1="-40" x2="160" y2="-40" style="stroke: black; stroke-width: 1px;" opacity="0"></line>
<circle cx="160" cy="-40" r="10" fill="black" style=""></circle>
<line x1="160" y1="-40" x2="200" y2="-40" style="stroke: black; stroke-width: 1px;" opacity="0"></line>
<circle cx="200" cy="-40" r="10" fill="black" style=""></circle>
<line x1="200" y1="-40" x2="-200" y2="-40" style="stroke: black; stroke-width: 1px;" opacity="0"></line>
<circle cx="-200" cy="-80" r="10" fill="black" style=""></circle>
<line x1="-200" y1="-80" x2="-160" y2="-80" style="stroke: black; stroke-width: 1px;" opacity="0"></line>
<circle cx="-160" cy="-80" r="10" fill="black" style=""></circle>
<line x1="-160" y1="-80" x2="-120" y2="-80" style="stroke: black; stroke-width: 1px;" opacity="0"></line>
<circle cx="-120" cy="-80" r="10" fill="black" style=""></circle>
<line x1="-120" y1="-80" x2="-80" y2="-80" style="stroke: black; stroke-width: 1px;" opacity="0"></line>
<circle cx="-80" cy="-80" r="10" fill="black" style=""></circle>
<line x1="-80" y1="-80" x2="-40" y2="-80" style="stroke: black; stroke-width: 1px;" opacity="0"></line>
<circle cx="-40" cy="-80" r="10" fill="black" style=""></circle>
<line x1="-40" y1="-80" x2="0" y2="-80" style="stroke: black; stroke-width: 1px;" opacity="0"></line>
<circle cx="0" cy="-80" r="10" fill="black" style=""></circle>
<line x1="0" y1="-80" x2="40" y2="-80" style="stroke: black; stroke-width: 1px;" opacity="0"></line>
<circle cx="40" cy="-80" r="10" fill="black" style=""></circle>
<line x1="40" y1="-80" x2="80" y2="-80" style="stroke: black; stroke-width: 1px;" opacity="0"></line>
<circle cx="80" cy="-80" r="10" fill="black" style=""></circle>
<line x1="80" y1="-80" x2="120" y2="-80" style="stroke: black; stroke-width: 1px;" opacity="0"></line>
<circle cx="120" cy="-80" r="10" fill="black" style=""></circle>
<line x1="120" y1="-80" x2="160" y2="-80" style="stroke: black; stroke-width: 1px;" opacity="0"></line>
<circle cx="160" cy="-80" r="10" fill="black" style=""></circle>
<line x1="160" y1="-80" x2="200" y2="-80" style="stroke: black; stroke-width: 1px;" opacity="0"></line>
<circle cx="200" cy="-80" r="10" fill="black" style=""></circle>
<line x1="200" y1="-80" x2="-200" y2="-80" style="stroke: black; stroke-width: 1px;" opacity="0"></line>
<circle cx="-200" cy="-120" r="10" fill="black" style=""></circle>
<line x1="-200" y1="-120" x2="-160" y2="-120" style="stroke: black; stroke-width: 1px;" opacity="0"></line>
<circle cx="-160" cy="-120" r="10" fill="black" style=""></circle>
<line x1="-160" y1="-120" x2="-120" y2="-120" style="stroke: black; stroke-width: 1px;" opacity="0"></line>
<circle cx="-120" cy="-120" r="10" fill="black" style=""></circle>
<line x1="-120" y1="-120" x2="-80" y2="-120" style="stroke: black; stroke-width: 1px;" opacity="0"></line>
<circle cx="-80" cy="-120" r="10" fill="black" style=""></circle>
<line x1="-80" y1="-120" x2="-40" y2="-120" style="stroke: black; stroke-width: 1px;" opacity="0"></line>
<circle cx="-40" cy="-120" r="10" fill="black" style=""></circle>
<line x1="-40" y1="-120" x2="0" y2="-120" style="stroke: black; stroke-width: 1px;" opacity="0"></line>
<circle cx="0" cy="-120" r="10" fill="black" style=""></circle>
<line x1="0" y1="-120" x2="40" y2="-120" style="stroke: black; stroke-width: 1px;" opacity="0"></line>
<circle cx="40" cy="-120" r="10" fill="black" style=""></circle>
<line x1="40" y1="-120" x2="80" y2="-120" style="stroke: black; stroke-width: 1px;" opacity="0"></line>
<circle cx="80" cy="-120" r="10" fill="black" style=""></circle>
<line x1="80" y1="-120" x2="120" y2="-120" style="stroke: black; stroke-width: 1px;" opacity="0"></line>
<circle cx="120" cy="-120" r="10" fill="black" style=""></circle>
<line x1="120" y1="-120" x2="160" y2="-120" style="stroke: black; stroke-width: 1px;" opacity="0"></line>
<circle cx="160" cy="-120" r="10" fill="black" style=""></circle>
<line x1="160" y1="-120" x2="200" y2="-120" style="stroke: black; stroke-width: 1px;" opacity="0"></line>
<circle cx="200" cy="-120" r="10" fill="black" style=""></circle>
<line x1="200" y1="-120" x2="-200" y2="-120" style="stroke: black; stroke-width: 1px;" opacity="0"></line>
<circle cx="-200" cy="-160" r="10" fill="black" style=""></circle>
<line x1="-200" y1="-160" x2="-160" y2="-160" style="stroke: black; stroke-width: 1px;" opacity="0"></line>
<circle cx="-160" cy="-160" r="10" fill="black" style=""></circle>
<line x1="-160" y1="-160" x2="-120" y2="-160" style="stroke: black; stroke-width: 1px;" opacity="0"></line>
<circle cx="-120" cy="-160" r="10" fill="black" style=""></circle>
<line x1="-120" y1="-160" x2="-80" y2="-160" style="stroke: black; stroke-width: 1px;" opacity="0"></line>
<circle cx="-80" cy="-160" r="10" fill="black" style=""></circle>
<line x1="-80" y1="-160" x2="-40" y2="-160" style="stroke: black; stroke-width: 1px;" opacity="0"></line>
<circle cx="-40" cy="-160" r="10" fill="black" style=""></circle>
<line x1="-40" y1="-160" x2="0" y2="-160" style="stroke: black; stroke-width: 1px;" opacity="0"></line>
<circle cx="0" cy="-160" r="10" fill="black" style=""></circle>
<line x1="0" y1="-160" x2="40" y2="-160" style="stroke: black; stroke-width: 1px;" opacity="0"></line>
<circle cx="40" cy="-160" r="10" fill="black" style=""></circle>
<line x1="40" y1="-160" x2="80" y2="-160" style="stroke: black; stroke-width: 1px;" opacity="0"></line>
<circle cx="80" cy="-160" r="10" fill="black" style=""></circle>
<line x1="80" y1="-160" x2="120" y2="-160" style="stroke: black; stroke-width: 1px;" opacity="0"></line>
<circle cx="120" cy="-160" r="10" fill="black" style=""></circle>
<line x1="120" y1="-160" x2="160" y2="-160" style="stroke: black; stroke-width: 1px;" opacity="0"></line>
<circle cx="160" cy="-160" r="10" fill="black" style=""></circle>
<line x1="160" y1="-160" x2="200" y2="-160" style="stroke: black; stroke-width: 1px;" opacity="0"></line>
<circle cx="200" cy="-160" r="10" fill="black" style=""></circle>
<line x1="200" y1="-160" x2="-200" y2="-160" style="stroke: black; stroke-width: 1px;" opacity="0"></line>
<circle cx="-200" cy="-200" r="10" fill="black" style=""></circle>
<line x1="-200" y1="-200" x2="-160" y2="-200" style="stroke: black; stroke-width: 1px;" opacity="0"></line>
<circle cx="-160" cy="-200" r="10" fill="black" style=""></circle>
<line x1="-160" y1="-200" x2="-120" y2="-200" style="stroke: black; stroke-width: 1px;" opacity="0"></line>
<circle cx="-120" cy="-200" r="10" fill="black" style=""></circle>
<line x1="-120" y1="-200" x2="-80" y2="-200" style="stroke: black; stroke-width: 1px;" opacity="0"></line>
<circle cx="-80" cy="-200" r="10" fill="black" style=""></circle>
<line x1="-80" y1="-200" x2="-40" y2="-200" style="stroke: black; stroke-width: 1px;" opacity="0"></line>
<circle cx="-40" cy="-200" r="10" fill="black" style=""></circle>
<line x1="-40" y1="-200" x2="0" y2="-200" style="stroke: black; stroke-width: 1px;" opacity="0"></line>
<circle cx="0" cy="-200" r="10" fill="black" style=""></circle>
<line x1="0" y1="-200" x2="40" y2="-200" style="stroke: black; stroke-width: 1px;" opacity="0"></line>
<circle cx="40" cy="-200" r="10" fill="black" style=""></circle>
<line x1="40" y1="-200" x2="80" y2="-200" style="stroke: black; stroke-width: 1px;" opacity="0"></line>
<circle cx="80" cy="-200" r="10" fill="black" style=""></circle>
<line x1="80" y1="-200" x2="120" y2="-200" style="stroke: black; stroke-width: 1px;" opacity="0"></line>
<circle cx="120" cy="-200" r="10" fill="black" style=""></circle>
<line x1="120" y1="-200" x2="160" y2="-200" style="stroke: black; stroke-width: 1px;" opacity="0"></line>
<circle cx="160" cy="-200" r="10" fill="black" style=""></circle>
<line x1="160" y1="-200" x2="200" y2="-200" style="stroke: black; stroke-width: 1px;" opacity="0"></line>
<circle cx="200" cy="-200" r="10" fill="black" style=""></circle>
<line x1="200" y1="-200" x2="200" y2="-200" style="stroke: black; stroke-width: 1px;"></line>
</g>
<g transform="translate(350 350)">
<polygon points="0,0 ,-5,-9 ,0,-7 ,5,-9 " stroke="black" fill="black" stroke-width="1" opacity="0" transform="translate(200.0,-200.0) rotate(-90.0,0,0)"></polygon>
</g>
<metadata><raw>from turtle import *
from random import randint
turtle.set_defaults(canvwidth=700, canvheight=700)
speed(0)
def move_to(x, y):
    penup()
    goto(x, y)
    pendown()

def circa_to(x, y, jitter = 10):
    move_to(x + randint(-jitter, jitter), y + randint(-jitter, jitter))

Screen
for y in range(11):
    for x in range(11):
        color('black')
        circa_to(x * 40 - 200, y * 40 - 200, 0*x * y)
        dot(20)
        '''
        color('red')
        goto(x * 40 - 200, y * 40 - 200)
        dot()
        '''
hideturtle()

</raw></metadata></svg>