<!--?xml version="1.0" standalone="no"?-->
<svg id="code_py_5cd5359e_d020_4a76_977a_46a6a92a9a2d_svg" width="325" height="27.5" xmlns="http://www.w3.org/2000/svg" viewBox="37.5,227.5,325,27.5">
<g transform="translate(250 250)">
<line x1="0" y1="0" x2="0" y2="0" style="stroke: black; stroke-width: 1px;"></line>
<line x1="0" y1="0" x2="-200" y2="0" style="stroke: black; stroke-width: 1px;" opacity="0"></line>
<circle cx="-200" cy="-10" r="7.5" fill="black" style=""></circle>
<line x1="-200" y1="-10" x2="-170" y2="-10" style="stroke: black; stroke-width: 1px;" opacity="0"></line>
<circle cx="-170" cy="-10" r="7.5" fill="black" style=""></circle>
<line x1="-170" y1="-10" x2="-140" y2="-10" style="stroke: black; stroke-width: 1px;" opacity="0"></line>
<circle cx="-140" cy="-10" r="7.5" fill="black" style=""></circle>
<line x1="-140" y1="-10" x2="-110" y2="-10" style="stroke: black; stroke-width: 1px;" opacity="0"></line>
<circle cx="-110" cy="-10" r="7.5" fill="black" style=""></circle>
<line x1="-110" y1="-10" x2="-80" y2="-10" style="stroke: black; stroke-width: 1px;" opacity="0"></line>
<circle cx="-80" cy="-10" r="7.5" fill="black" style=""></circle>
<line x1="-80" y1="-10" x2="-50" y2="-10" style="stroke: black; stroke-width: 1px;" opacity="0"></line>
<circle cx="-50" cy="-10" r="7.5" fill="black" style=""></circle>
<line x1="-50" y1="-10" x2="-20" y2="-10" style="stroke: black; stroke-width: 1px;" opacity="0"></line>
<circle cx="-20" cy="-10" r="7.5" fill="black" style=""></circle>
<line x1="-20" y1="-10" x2="10" y2="-10" style="stroke: black; stroke-width: 1px;" opacity="0"></line>
<circle cx="10" cy="-10" r="7.5" fill="black" style=""></circle>
<line x1="10" y1="-10" x2="40" y2="-10" style="stroke: black; stroke-width: 1px;" opacity="0"></line>
<circle cx="40" cy="-10" r="7.5" fill="black" style=""></circle>
<line x1="40" y1="-10" x2="70" y2="-10" style="stroke: black; stroke-width: 1px;" opacity="0"></line>
<circle cx="70" cy="-10" r="7.5" fill="black" style=""></circle>
<line x1="70" y1="-10" x2="100" y2="-10" style="stroke: black; stroke-width: 1px;" opacity="0"></line>
<circle cx="100" cy="-10" r="7.5" fill="black" style=""></circle>
<line x1="100" y1="-10" x2="100" y2="-10" style="stroke: black; stroke-width: 1px;"></line>
</g>
<g transform="translate(250 250)">
<polygon points="0,0 ,-5,-9 ,0,-7 ,5,-9 " stroke="black" fill="black" stroke-width="1" opacity="0" transform="translate(100.0,-10.0) rotate(-90.0,0,0)"></polygon>
</g>
<metadata><raw>from turtle import *
from random import randint

speed(0)
def move_to(x, y):
    penup()
    goto(x, y)
    pendown()

def circa_to(x, y, jitter = 10):
    move_to(x + randint(-jitter, jitter), y + randint(-jitter, jitter))

for y in range(7, 8, 11):
    for x in range(11):
        color('black')
        circa_to(x * 30 - 200, y * 30 - 200, 0*x * y)
        dot(15)
        '''
        color('red')
        goto(x * 30 - 200, y * 30 - 200)
        dot()
        '''
        
hideturtle()

</raw></metadata></svg>