<!--?xml version="1.0" standalone="no"?-->
<svg id="code_py_92d0399c_a680_4da0_b0ef_44b9a21ef14f_svg" width="149.68020629882812" height="149.68020629882812" xmlns="http://www.w3.org/2000/svg" viewBox="175.15988159179688,175.15988159179688,149.68020629882812,149.68020629882812">
<g transform="translate(250 250)">
<line x1="0" y1="0" x2="0" y2="0" style="stroke: black; stroke-width: 1;"></line>
<line x1="0" y1="0" x2="50" y2="0" style="stroke: black; stroke-width: 1;"></line>
<line x1="50" y1="0" x2="50" y2="-50" style="stroke: black; stroke-width: 1;"></line>
<line x1="50" y1="-50" x2="0" y2="-50.00000000000001" style="stroke: black; stroke-width: 1;"></line>
<line x1="0" y1="-50.00000000000001" x2="-9.184850993605149e-15" y2="-7.105427357601002e-15" style="stroke: black; stroke-width: 1;"></line>
<line x1="-9.184850993605149e-15" y1="-7.105427357601002e-15" x2="47.552825814757675" y2="-15.450849718747365" style="stroke: black; stroke-width: 1;"></line>
<line x1="47.552825814757675" y1="-15.450849718747365" x2="32.10197609601032" y2="-63.003675533505046" style="stroke: black; stroke-width: 1;"></line>
<line x1="32.10197609601032" y1="-63.003675533505046" x2="-15.450849718747364" y2="-47.552825814757696" style="stroke: black; stroke-width: 1;"></line>
<line x1="-15.450849718747364" y1="-47.552825814757696" x2="-1.4210854715202004e-14" y2="-7.105427357601002e-15" style="stroke: black; stroke-width: 1;"></line>
<line x1="-1.4210854715202004e-14" y1="-7.105427357601002e-15" x2="40.45084971874737" y2="-29.389262614623643" style="stroke: black; stroke-width: 1;"></line>
<line x1="40.45084971874737" y1="-29.389262614623643" x2="11.061587104123735" y2="-69.84011233337104" style="stroke: black; stroke-width: 1;"></line>
<line x1="11.061587104123735" y1="-69.84011233337104" x2="-29.389262614623657" y2="-40.450849718747406" style="stroke: black; stroke-width: 1;"></line>
<line x1="-29.389262614623657" y1="-40.450849718747406" x2="4.263256414560601e-14" y2="-6.394884621840902e-14" style="stroke: black; stroke-width: 1;"></line>
<line x1="4.263256414560601e-14" y1="-6.394884621840902e-14" x2="29.38926261462366" y2="-40.45084971874746" style="stroke: black; stroke-width: 1;"></line>
<line x1="29.38926261462366" y1="-40.45084971874746" x2="-11.061587104123682" y2="-69.84011233337115" style="stroke: black; stroke-width: 1;"></line>
<line x1="-11.061587104123682" y1="-69.84011233337115" x2="-40.45084971874731" y2="-29.38926261462376" style="stroke: black; stroke-width: 1;"></line>
<line x1="-40.45084971874731" y1="-29.38926261462376" x2="3.552713678800501e-14" y2="-6.394884621840902e-14" style="stroke: black; stroke-width: 1;"></line>
<line x1="3.552713678800501e-14" y1="-6.394884621840902e-14" x2="15.450849718747456" y2="-47.55282581475773" style="stroke: black; stroke-width: 1;"></line>
<line x1="15.450849718747456" y1="-47.55282581475773" x2="-32.10197609601023" y2="-63.003675533505074" style="stroke: black; stroke-width: 1;"></line>
<line x1="-32.10197609601023" y1="-63.003675533505074" x2="-47.55282581475766" y2="-15.450849718747413" style="stroke: black; stroke-width: 1;"></line>
<line x1="-47.55282581475766" y1="-15.450849718747413" x2="2.842170943040401e-14" y2="-6.927791673660977e-14" style="stroke: black; stroke-width: 1;"></line>
<line x1="2.842170943040401e-14" y1="-6.927791673660977e-14" x2="3.897824415627525e-15" y2="-50.00000000000007" style="stroke: black; stroke-width: 1;"></line>
<line x1="3.897824415627525e-15" y1="-50.00000000000007" x2="-49.99999999999999" y2="-49.99999999999996" style="stroke: black; stroke-width: 1;"></line>
<line x1="-49.99999999999999" y1="-49.99999999999996" x2="-50.00000000000015" y2="4.263256414560601e-14" style="stroke: black; stroke-width: 1;"></line>
<line x1="-50.00000000000015" y1="4.263256414560601e-14" x2="-1.4921397450962104e-13" y2="1.161113720944472e-13" style="stroke: black; stroke-width: 1;"></line>
<line x1="-1.4921397450962104e-13" y1="1.161113720944472e-13" x2="-15.450849718747616" y2="-47.55282581475753" style="stroke: black; stroke-width: 1;"></line>
<line x1="-15.450849718747616" y1="-47.55282581475753" x2="-63.003675533505344" y2="-32.10197609601032" style="stroke: black; stroke-width: 1;"></line>
<line x1="-63.003675533505344" y1="-32.10197609601032" x2="-47.55282581475805" y2="15.450849718747385" style="stroke: black; stroke-width: 1;"></line>
<line x1="-47.55282581475805" y1="15.450849718747385" x2="-3.765876499528531e-13" y2="1.2434497875801753e-14" style="stroke: black; stroke-width: 1;"></line>
<line x1="-3.765876499528531e-13" y1="1.2434497875801753e-14" x2="-29.38926261462389" y2="-40.45084971874746" style="stroke: black; stroke-width: 1;"></line>
<line x1="-29.38926261462389" y1="-40.45084971874746" x2="-69.84011233337131" y2="-11.061587104123884" style="stroke: black; stroke-width: 1;"></line>
<line x1="-69.84011233337131" y1="-11.061587104123884" x2="-40.45084971874766" y2="29.389262614623494" style="stroke: black; stroke-width: 1;"></line>
<line x1="-40.45084971874766" y1="29.389262614623494" x2="-3.410605131648481e-13" y2="-2.2382096176443156e-13" style="stroke: black; stroke-width: 1;"></line>
<line x1="-3.410605131648481e-13" y1="-2.2382096176443156e-13" x2="-40.450849718747655" y2="-29.389262614623963" style="stroke: black; stroke-width: 1;"></line>
<line x1="-40.450849718747655" y1="-29.389262614623963" x2="-69.84011233337132" y2="11.0615871041234" style="stroke: black; stroke-width: 1;"></line>
<line x1="-69.84011233337132" y1="11.0615871041234" x2="-29.38926261462391" y2="40.450849718747" style="stroke: black; stroke-width: 1;"></line>
<line x1="-29.38926261462391" y1="40.450849718747" x2="-9.237055564881302e-14" y2="-2.4868995751603507e-13" style="stroke: black; stroke-width: 1;"></line>
<line x1="-9.237055564881302e-14" y1="-2.4868995751603507e-13" x2="-47.55282581475776" y2="-15.450849718747646" style="stroke: black; stroke-width: 1;"></line>
<line x1="-47.55282581475776" y1="-15.450849718747646" x2="-63.003675533505074" y2="32.10197609601005" style="stroke: black; stroke-width: 1;"></line>
<line x1="-63.003675533505074" y1="32.10197609601005" x2="-15.450849718747456" y2="47.552825814757625" style="stroke: black; stroke-width: 1;"></line>
<line x1="-15.450849718747456" y1="47.552825814757625" x2="-3.019806626980426e-13" y2="-1.2079226507921703e-13" style="stroke: black; stroke-width: 1;"></line>
<line x1="-3.019806626980426e-13" y1="-1.2079226507921703e-13" x2="-50.0000000000003" y2="-7.174449504966407e-14" style="stroke: black; stroke-width: 1;"></line>
<line x1="-50.0000000000003" y1="-7.174449504966407e-14" x2="-50.00000000000052" y2="49.99999999999993" style="stroke: black; stroke-width: 1;"></line>
<line x1="-50.00000000000052" y1="49.99999999999993" x2="-5.186961971048731e-13" y2="49.99999999999971" style="stroke: black; stroke-width: 1;"></line>
<line x1="-5.186961971048731e-13" y1="49.99999999999971" x2="-4.697412741708084e-13" y2="-2.913225216616411e-13" style="stroke: black; stroke-width: 1;"></line>
<line x1="-4.697412741708084e-13" y1="-2.913225216616411e-13" x2="-47.552825814758215" y2="15.450849718746863" style="stroke: black; stroke-width: 1;"></line>
<line x1="-47.552825814758215" y1="15.450849718746863" x2="-32.101976096010645" y2="63.00367553350448" style="stroke: black; stroke-width: 1;"></line>
<line x1="-32.101976096010645" y1="63.00367553350448" x2="15.450849718747051" y2="47.55282581475716" style="stroke: black; stroke-width: 1;"></line>
<line x1="15.450849718747051" y1="47.55282581475716" x2="-7.105427357601002e-15" y2="-6.181721801112872e-13" style="stroke: black; stroke-width: 1;"></line>
<line x1="-7.105427357601002e-15" y1="-6.181721801112872e-13" x2="-40.45084971874726" y2="29.3892626146232" style="stroke: black; stroke-width: 1;"></line>
<line x1="-40.45084971874726" y1="29.3892626146232" x2="-11.061587104123657" y2="69.84011233337061" style="stroke: black; stroke-width: 1;"></line>
<line x1="-11.061587104123657" y1="69.84011233337061" x2="29.389262614623913" y2="40.45084971874723" style="stroke: black; stroke-width: 1;"></line>
<line x1="29.389262614623913" y1="40.45084971874723" x2="1.7408297026122455e-13" y2="-8.526512829121202e-14" style="stroke: black; stroke-width: 1;"></line>
<line x1="1.7408297026122455e-13" y1="-8.526512829121202e-14" x2="-29.389262614623544" y2="40.450849718747236" style="stroke: black; stroke-width: 1;"></line>
<line x1="-29.389262614623544" y1="40.450849718747236" x2="11.061587104123621" y2="69.84011233337118" style="stroke: black; stroke-width: 1;"></line>
<line x1="11.061587104123621" y1="69.84011233337118" x2="40.4508497187472" y2="29.389262614623753" style="stroke: black; stroke-width: 1;"></line>
<line x1="40.4508497187472" y1="29.389262614623753" x2="-6.394884621840902e-14" y2="-4.973799150320701e-14" style="stroke: black; stroke-width: 1;"></line>
<line x1="-6.394884621840902e-14" y1="-4.973799150320701e-14" x2="-15.450849718747776" y2="47.55282581475752" style="stroke: black; stroke-width: 1;"></line>
<line x1="-15.450849718747776" y1="47.55282581475752" x2="32.10197609600993" y2="63.00367553350481" style="stroke: black; stroke-width: 1;"></line>
<line x1="32.10197609600993" y1="63.00367553350481" x2="47.552825814757476" y2="15.450849718747193" style="stroke: black; stroke-width: 1;"></line>
<line x1="47.552825814757476" y1="15.450849718747193" x2="-2.8421709430404007e-13" y2="6.394884621840902e-14" style="stroke: black; stroke-width: 1;"></line>
<line x1="-2.8421709430404007e-13" y1="6.394884621840902e-14" x2="-2.1064543925971064e-13" y2="50.000000000000064" style="stroke: black; stroke-width: 1;"></line>
<line x1="-2.1064543925971064e-13" y1="50.000000000000064" x2="49.99999999999979" y2="50.00000000000026" style="stroke: black; stroke-width: 1;"></line>
<line x1="49.99999999999979" y1="50.00000000000026" x2="49.999999999999545" y2="2.6290081223123707e-13" style="stroke: black; stroke-width: 1;"></line>
<line x1="49.999999999999545" y1="2.6290081223123707e-13" x2="-4.547473508864641e-13" y2="2.384697743119488e-13" style="stroke: black; stroke-width: 1;"></line>
<line x1="-4.547473508864641e-13" y1="2.384697743119488e-13" x2="15.45084971874672" y2="47.55282581475799" style="stroke: black; stroke-width: 1;"></line>
<line x1="15.45084971874672" y1="47.55282581475799" x2="63.00367553350432" y2="32.10197609601039" style="stroke: black; stroke-width: 1;"></line>
<line x1="63.00367553350432" y1="32.10197609601039" x2="47.552825814756986" y2="-15.4508497187473" style="stroke: black; stroke-width: 1;"></line>
<line x1="47.552825814756986" y1="-15.4508497187473" x2="-7.815970093361102e-13" y2="-2.184918912462308e-13" style="stroke: black; stroke-width: 1;"></line>
<line x1="-7.815970093361102e-13" y1="-2.184918912462308e-13" x2="29.389262614623057" y2="40.450849718747016" style="stroke: black; stroke-width: 1;"></line>
<line x1="29.389262614623057" y1="40.450849718747016" x2="69.84011233337046" y2="11.06158710412339" style="stroke: black; stroke-width: 1;"></line>
<line x1="69.84011233337046" y1="11.06158710412339" x2="40.45084971874705" y2="-29.389262614624165" style="stroke: black; stroke-width: 1;"></line>
<line x1="40.45084971874705" y1="-29.389262614624165" x2="-2.4158453015843406e-13" y2="-4.014566457044566e-13" style="stroke: black; stroke-width: 1;"></line>
<line x1="-2.4158453015843406e-13" y1="-4.014566457044566e-13" x2="40.4508497187471" y2="29.3892626146233" style="stroke: black; stroke-width: 1;"></line>
<line x1="40.4508497187471" y1="29.3892626146233" x2="69.84011233337102" y2="-11.061587104123888" style="stroke: black; stroke-width: 1;"></line>
<line x1="69.84011233337102" y1="-11.061587104123888" x2="29.389262614623583" y2="-40.45084971874745" style="stroke: black; stroke-width: 1;"></line>
<line x1="29.389262614623583" y1="-40.45084971874745" x2="-1.9539925233402755e-13" y2="-1.6342482922482304e-13" style="stroke: black; stroke-width: 1;"></line>
<line x1="-1.9539925233402755e-13" y1="-1.6342482922482304e-13" x2="47.552825814757384" y2="15.450849718747525" style="stroke: red; stroke-width: 5;" stroke-linecap="round"></line>
<line x1="47.552825814757384" y1="15.450849718747525" x2="63.003675533504655" y2="-32.10197609601018" style="stroke: red; stroke-width: 5;" stroke-linecap="round"></line>
<line x1="63.003675533504655" y1="-32.10197609601018" x2="15.45084971874703" y2="-47.55282581475771" style="stroke: red; stroke-width: 5;" stroke-linecap="round"></line>
<line x1="15.45084971874703" y1="-47.55282581475771" x2="-7.513989430663059e-13" y2="-1.7053025658242404e-13" style="stroke: red; stroke-width: 5;" stroke-linecap="round"></line>
<line x1="-7.513989430663059e-13" y1="-1.7053025658242404e-13" x2="-7.513989430663059e-13" y2="-1.7053025658242404e-13" style="stroke: red; stroke-width: 5;" stroke-linecap="round"></line>
</g>
<g transform="translate(250 250)">
<polygon points="0,0 ,-5,-9 ,0,-7 ,5,-9 " stroke="red" fill="black" stroke-width="1" opacity="0" transform="translate(-7.513989430663059e-13,-1.7053025658242404e-13) rotate(-7650.0,0,0)"></polygon>
</g>
<metadata><raw>from turtle import *
speed(0)
for i in range(20):
    if i == 19:
        pencolor('red')
        pensize(5)
    for i in range(4):
        forward(50)
        left(90)
    left(360/20)
hideturtle()</raw></metadata></svg>