<?xml version="1.0" encoding="UTF-8"?>
<svg xmlns="http://www.w3.org/2000/svg" viewBox="0 0 278.31 279.34">
  <defs></defs>
  <g id="Ebene_2" data-name="Ebene 2">
    <path class="shadow" d="M139.31,28.52c-61.17,0-110.76,49.59-110.76,110.76s49.59,110.76,110.76,110.76,110.76-49.59,110.76-110.76S200.48,28.52,139.31,28.52ZM139.31,236.45c-53.56,0-96.98-43.42-96.98-96.98s43.42-96.98,96.98-96.98,96.98,43.42,96.98,96.98-43.42,96.98-96.98,96.98Z"/>
    <g>
      <path class="center-1" d="M247.47,132.72c-13.89,4.89-19.34,7.04-24.64,7.79-4.26.61-6.77.6-9.85,0-6.52-1.29-11.03-4.8-12.92-6.52-3.3-2.99-6.4-7.29-8.79-14.98-.4-1.3-2.27-8.41-3.36-14.31-1.74-9.4-2.48-17.05-2.4-23.84.07-5.24,1.57-15.56,2.73-19.13,3.07-9.45,6.41-15.15,6.41-15.15-6.06-4.17-22.92-10.86-29.02-12.14.35,14.52.74,20.51-.2,25.91-.74,4.24-1.52,6.63-3.05,9.37-3.24,5.8-7.98,9.01-10.19,10.28-3.86,2.22-8.91,3.83-16.96,3.73-1.36-.02-8.7-.44-14.65-1.22-9.47-1.25-16.99-2.91-23.42-5.09-4.97-1.68-14.31-6.31-17.35-8.51-8.04-5.84-12.43-10.78-12.43-10.78-5.84,4.47-16.97,18.03-20.08,23.43,14.11,4.21,19.84,5.71,24.56,8.21,3.81,2.02,5.84,3.49,7.97,5.8,4.52,4.88,6.1,10.37,6.62,12.87.91,4.36.89,9.66-1.69,17.28-.44,1.29-3.1,8.14-5.69,13.56-4.12,8.62-8.01,15.26-12.07,20.7-3.14,4.2-10.42,11.66-13.45,13.87-8.04,5.85-14.09,8.49-14.09,8.49,2.45,6.93,11.9,21.91,16.08,26.53,8.31-12.05,11.46-17.01,15.35-20.79,3.09-3,5.12-4.47,7.97-5.79,6.04-2.79,11.75-2.6,14.28-2.32,4.43.48,9.46,2.14,15.92,6.95,1.09.81,6.78,5.47,11.14,9.6,6.93,6.58,12.03,12.34,15.95,17.88,3.03,4.28,7.87,13.51,9.03,17.08,3.08,9.45,3.72,16.03,3.72,16.03,7.35-.19,24.41-4.58,30.1-7.12-8.92-11.68-12.48-16.3-14.84-21.13-1.89-3.87-2.67-6.26-3.04-9.37-.79-6.6,1.16-11.97,2.2-14.3,1.82-4.06,4.96-8.34,11.53-12.99,1.11-.78,7.3-4.76,12.57-7.62,8.4-4.55,15.45-7.63,21.93-9.65,5.01-1.56,15.28-3.31,19.04-3.31,9.94,0,16.39,1.41,16.39,1.41,2.09-7.05,3.35-24.5,2.69-30.7Z"/>
      <path class="rm-center" d="M247.47,132.72c-13.89,4.89-19.34,7.04-24.64,7.79-4.26.61-6.77.6-9.85,0-6.52-1.29-11.03-4.8-12.92-6.52-3.3-2.99-6.4-7.29-8.79-14.98-.4-1.3-2.27-8.41-3.36-14.31-1.74-9.4-2.48-17.05-2.4-23.84.07-5.24,1.57-15.56,2.73-19.13,3.07-9.45,6.41-15.15,6.41-15.15-6.06-4.17-22.92-10.86-29.02-12.14.35,14.52.74,20.51-.2,25.91-.74,4.24-1.52,6.63-3.05,9.37-3.24,5.8-7.98,9.01-10.19,10.28-3.86,2.22-8.91,3.83-16.96,3.73-1.36-.02-8.7-.44-14.65-1.22-9.47-1.25-16.99-2.91-23.42-5.09-4.97-1.68-14.31-6.31-17.35-8.51-8.04-5.84-12.43-10.78-12.43-10.78-5.84,4.47-16.97,18.03-20.08,23.43,14.11,4.21,19.84,5.71,24.56,8.21,3.81,2.02,5.84,3.49,7.97,5.8,4.52,4.88,6.1,10.37,6.62,12.87.91,4.36.89,9.66-1.69,17.28-.44,1.29-3.1,8.14-5.69,13.56-4.12,8.62-8.01,15.26-12.07,20.7-3.14,4.2-10.42,11.66-13.45,13.87-8.04,5.85-14.09,8.49-14.09,8.49,2.45,6.93,11.9,21.91,16.08,26.53,8.31-12.05,11.46-17.01,15.35-20.79,3.09-3,5.12-4.47,7.97-5.79,6.04-2.79,11.75-2.6,14.28-2.32,4.43.48,9.46,2.14,15.92,6.95,1.09.81,6.78,5.47,11.14,9.6,6.93,6.58,12.03,12.34,15.95,17.88,3.03,4.28,7.87,13.51,9.03,17.08,3.08,9.45,3.72,16.03,3.72,16.03,7.35-.19,24.41-4.58,30.1-7.12-8.92-11.68-12.48-16.3-14.84-21.13-1.89-3.87-2.67-6.26-3.04-9.37-.79-6.6,1.16-11.97,2.2-14.3,1.82-4.06,4.96-8.34,11.53-12.99,1.11-.78,7.3-4.76,12.57-7.62,8.4-4.55,15.45-7.63,21.93-9.65,5.01-1.56,15.28-3.31,19.04-3.31,9.94,0,16.39,1.41,16.39,1.41,2.09-7.05,3.35-24.5,2.69-30.7Z"/>
    </g>
    <path class="center-2" d="M139.16,10.61C68.12,10.61,10.53,68.2,10.53,139.25s57.59,128.63,128.63,128.63,128.63-57.59,128.63-128.63S210.2,10.61,139.16,10.61ZM139.51,249.77c-61.02,0-110.48-49.46-110.48-110.48S78.49,28.82,139.51,28.82s110.48,49.46,110.48,110.48-49.46,110.48-110.48,110.48Z"/>
    <path class="center-2 shadow-2" d="M278,151.59c.02-7.76.04-15.52.06-23.28-2.73-1.93-5.42-3.83-8.05-5.69-.47-3.08-.94-6.14-1.41-9.22,1.93-2.53,3.86-5.06,5.79-7.59-2.5-7.35-5-14.69-7.5-22.04-3.15-.92-6.34-1.68-9.5-2.6-1.45-2.76-2.88-5.57-4.32-8.33l3.01-9.06c-4.75-6.14-9.5-12.27-14.25-18.41-3.34.15-6.63.3-9.85.45-2.27-2.14-4.51-4.27-6.78-6.41-.03-3.18-.06-6.36-.09-9.54-6.49-4.26-12.97-8.52-19.46-12.78-3.06,1.21-6.04,2.56-9.09,3.77-2.84-1.29-5.68-2.57-8.52-3.86-1.06-3-2.12-6-3.19-8.99-7.52-1.92-15.04-3.85-22.56-5.77-2.54,2.18-5.04,4.31-7.49,6.4-3.11-.3-6.18-.59-9.29-.9-1.98-2.49-3.96-4.98-5.93-7.47-7.74.62-15.47,1.24-23.21,1.86-1.67,2.83-3.18,5.74-4.85,8.57-3.03.72-6.1,1.42-9.14,2.15-2.68-1.71-5.36-3.43-8.04-5.14-7.12,3.1-14.23,6.2-21.35,9.3-.67,3.28-1.33,6.5-1.98,9.66-2.64,1.67-5.24,3.33-7.88,5-3.09-.75-6.18-1.5-9.27-2.25-5.72,5.24-11.45,10.48-17.17,15.72.42,3.26,1.02,6.48,1.44,9.74-1.95,2.44-3.9,4.87-5.85,7.31-3.17.29-6.33.59-9.5.88-3.71,6.82-7.42,13.63-11.13,20.45,1.48,3,2.94,5.95,4.37,8.84-1.05,2.94-2.09,5.85-3.15,8.78-2.9,1.31-5.8,2.61-8.7,3.92-1.3,7.65-2.59,15.3-3.89,22.95,2.33,2.31,4.78,4.49,7.11,6.81-.04,3.12-.12,6.27-.16,9.39-2.32,2.18-4.64,4.35-6.96,6.53,1.26,7.66,2.52,15.32,3.77,22.97,3.01,1.46,5.97,2.89,8.88,4.29.97,2.96,1.94,5.9,2.91,8.87-1.49,2.81-2.97,5.62-4.46,8.44,3.68,6.83,7.35,13.67,11.03,20.5,3.26.39,6.52.68,9.78,1.08,1.88,2.49,3.76,4.98,5.65,7.47-.49,3.14-.99,6.28-1.48,9.43,5.7,5.27,11.39,10.54,17.09,15.81,3.27-.7,6.49-1.39,9.64-2.07,2.59,1.74,5.15,3.47,7.74,5.21.55,3.13,1.11,6.26,1.66,9.4,7.1,3.14,14.2,6.27,21.3,9.41,2.82-1.69,5.53-3.53,8.34-5.23,3.01.81,6.05,1.66,9.06,2.46,1.54,2.78,3.08,5.56,4.62,8.35,7.73.66,15.47,1.32,23.2,1.98,2.15-2.56,4.17-5.22,6.25-7.69,3.11-.21,6.22-.43,9.34-.64,2.36,2.13,4.72,4.26,7.08,6.39,7.53-1.89,15.06-3.77,22.58-5.66,1.2-3.12,2.38-6.19,3.54-9.2,2.87-1.21,5.72-2.42,8.59-3.63,2.93,1.25,5.85,2.5,8.78,3.75,6.51-4.23,13.02-8.46,19.52-12.68.12-3.28.07-6.56.19-9.84,2.32-2.08,4.69-4.16,7.02-6.24,3.17.23,6.34.46,9.52.69,4.78-6.11,9.56-12.22,14.35-18.34-.97-3.2-1.92-6.35-2.86-9.43,1.52-2.72,3.03-5.42,4.55-8.15,3.08-.81,6.15-1.62,9.23-2.43,2.54-7.33,5.08-14.67,7.62-22-1.92-2.67-3.98-5.21-5.9-7.88.56-3.07,1.11-6.14,1.67-9.21,2.65-1.77,5.29-3.53,7.94-5.3ZM139.04,267.79c-71.04,0-128.63-57.59-128.63-128.63S68,10.52,139.04,10.52s128.63,57.59,128.63,128.63-57.59,128.63-128.63,128.63Z"/>
  </g>
  <g id="Ebene_3" data-name="Ebene 3">
    <path class="shadow" d="M247.51,132.72c-13.89,4.89-19.34,7.04-24.64,7.8-4.26.61-6.77.6-9.85,0-6.52-1.29-11.03-4.8-12.92-6.52-3.3-2.99-6.4-7.29-8.79-14.98-.4-1.3-2.27-8.41-3.36-14.31-1.74-9.4-2.48-17.05-2.4-23.84.07-5.24,1.57-15.56,2.73-19.13,3.07-9.45,6.41-15.15,6.41-15.15,1.92,7.29,3.94,14.51,5.85,21.8-5.12,23.68,1.83,44.47,15.59,51.35,2.87,1.43,8.11,3.3,16.02,2.25,5.1,3.58,10.26,7.15,15.36,10.73ZM178.98,240.39c-8.92-11.68-12.42-16.3-14.79-21.13-1.89-3.87-2.67-6.26-3.04-9.37-.79-6.6,1.16-11.97,2.2-14.3,1.82-4.06,4.96-8.34,11.53-12.99,1.11-.78,7.3-4.76,12.57-7.62,8.4-4.56,15.45-7.63,21.93-9.65,5.01-1.56,15.28-3.28,19.04-3.31,9.98-.07,16.35,1.41,16.35,1.41-6.34,4.07-12.74,8.38-19.08,12.45-24.1,2.45-41.73,15.48-44.02,30.7-.48,3.17-.63,8.73,2.8,15.93-1.83,5.96-3.67,11.93-5.5,17.88ZM55.57,208.87c8.31-12.05,11.46-17.01,15.35-20.79,3.09-3,5.12-4.47,7.97-5.79,6.04-2.79,11.75-2.6,14.28-2.32,4.43.48,9.46,2.14,15.92,6.95,1.09.81,6.78,5.47,11.14,9.6,6.93,6.58,12.03,12.34,15.95,17.88,3.03,4.28,7.87,13.51,9.03,17.08,3.08,9.45,3.68,16.03,3.68,16.03-5.83-4.77-11.77-9.39-17.61-14.16-9.78-22.17-27.62-34.91-42.8-32.38-3.16.53-8.5,2.1-14.28,7.59-6.23.1-18.64.31-18.64.31ZM47.34,81.56s19.84,5.71,24.56,8.21c3.81,2.02,5.84,3.49,7.97,5.8,4.52,4.88,6.1,10.37,6.62,12.87.91,4.36.89,9.66-1.69,17.28-.44,1.29-3.1,8.14-5.69,13.56-4.12,8.62-8.01,15.26-12.07,20.7-3.14,4.2-10.42,11.66-13.45,13.87-8.04,5.85-14.09,8.49-14.09,8.49h-.04c2.73-7.02,5.3-14.12,8.03-21.14,18.06-16.15,24.66-37.05,17.57-50.71-1.48-2.85-4.62-7.44-11.63-11.24-2.02-5.9-4.1-11.79-6.13-17.68h.04ZM165.67,34.44c.35,14.52.74,20.51-.2,25.91-.74,4.24-1.52,6.63-3.05,9.37-3.24,5.8-7.98,9.01-10.19,10.28-3.86,2.22-8.91,3.83-16.96,3.73-1.36-.02-8.7-.44-14.65-1.22-9.47-1.25-16.99-2.91-23.42-5.09-4.97-1.68-14.31-6.31-17.35-8.51-8.04-5.84-12.47-10.78-12.47-10.78h0s15.06.61,22.58,1.04c20.94,12.19,42.86,12,53.66,1.04,2.25-2.29,5.64-6.69,7.09-14.53,4.98-3.74,9.97-7.49,14.95-11.23"/>
    <g class="pri">
      <circle class="roller" cx="139.13" cy="56.27" r="25.62"/>
      <circle class="roller" cx="60.02" cy="113.9" r="25.62"/>
      <circle class="roller" cx="218.06" cy="114.08" r="25.62"/>
      <circle class="roller" cx="187.89" cy="206.81" r="25.62"/>
      <circle class="roller" cx="90.01" cy="206.81" r="25.62"/>
    </g>
    <text class="text pri" transform="translate(92.85 162.92)"><tspan x="0" y="0">PRI</tspan></text>
  </g>
</svg>