<?xml version="1.0" encoding="UTF-8"?>
<svg xmlns="http://www.w3.org/2000/svg" viewBox="0 0 278.31 279.34">
  <defs></defs>
  <g id="Ebene_2" data-name="Ebene 2">
    <path class="shadow" d="M28.09,139.45c0,61.18,49.6,110.78,110.78,110.78s110.78-49.6,110.78-110.78c0-61.18-49.6-110.78-110.78-110.78-61.18,0-110.78,49.6-110.78,110.78ZM41.87,139.63c0-53.57,43.43-97,97-97s97,43.43,97,97c0,53.57-43.43,97-97,97-53.57,0-97-43.43-97-97Z"/>
    <g>
      <path class="center-1" d="M224.77,173.84c-3.04-2.21-10.32-9.67-13.45-13.87-4.06-5.44-7.95-12.08-12.07-20.7-2.59-5.42-5.26-12.27-5.69-13.56-2.58-7.62-2.6-12.92-1.69-17.28.52-2.5,2.11-7.99,6.62-12.87,2.13-2.3,4.16-3.78,7.97-5.8,4.73-2.5,10.45-4,24.56-8.21-3.11-5.4-14.24-18.96-20.08-23.43,0,0-4.39,4.94-12.43,10.78-3.04,2.2-12.38,6.83-17.35,8.51-6.43,2.18-13.94,3.83-23.42,5.09-5.95.79-13.3,1.21-14.65,1.22-8.05.1-13.1-1.52-16.96-3.73-2.22-1.27-6.95-4.47-10.19-10.28-1.53-2.74-2.31-5.13-3.05-9.37-.94-5.4-.55-11.4-.2-25.91-6.09,1.29-22.96,7.97-29.02,12.14,0,0,3.34,5.7,6.41,15.15,1.16,3.57,2.67,13.88,2.73,19.13.09,6.79-.66,14.44-2.4,23.84-1.09,5.9-2.96,13.02-3.36,14.31-2.39,7.68-5.49,11.99-8.79,14.98-1.89,1.71-6.4,5.23-12.92,6.52-3.08.61-5.59.61-9.85,0-5.29-.75-10.75-2.91-24.64-7.79-.66,6.19.59,23.65,2.69,30.7,0,0,6.45-1.42,16.39-1.41,3.75,0,14.03,1.75,19.04,3.31,6.48,2.02,13.53,5.09,21.93,9.65,5.28,2.86,11.47,6.84,12.57,7.62,6.57,4.65,9.7,8.92,11.53,12.99,1.05,2.33,2.99,7.7,2.2,14.3-.37,3.12-1.15,5.5-3.04,9.37-2.37,4.83-5.92,9.46-14.84,21.13,5.69,2.54,22.75,6.94,30.1,7.12,0,0,.65-6.58,3.72-16.03,1.16-3.57,6-12.8,9.03-17.08,3.92-5.54,9.03-11.3,15.95-17.88,4.35-4.13,10.05-8.79,11.14-9.6,6.45-4.81,11.49-6.47,15.92-6.95,2.54-.27,8.25-.47,14.28,2.32,2.85,1.32,4.88,2.79,7.97,5.79,3.89,3.77,7.04,8.74,15.35,20.79,4.17-4.62,13.63-19.6,16.08-26.53,0,0-6.05-2.65-14.09-8.49Z"/>
      <path class="rm-center" d="M224.77,173.84c-3.04-2.21-10.32-9.67-13.45-13.87-4.06-5.44-7.95-12.08-12.07-20.7-2.59-5.42-5.26-12.27-5.69-13.56-2.58-7.62-2.6-12.92-1.69-17.28.52-2.5,2.11-7.99,6.62-12.87,2.13-2.3,4.16-3.78,7.97-5.8,4.73-2.5,10.45-4,24.56-8.21-3.11-5.4-14.24-18.96-20.08-23.43,0,0-4.39,4.94-12.43,10.78-3.04,2.2-12.38,6.83-17.35,8.51-6.43,2.18-13.94,3.83-23.42,5.09-5.95.79-13.3,1.21-14.65,1.22-8.05.1-13.1-1.52-16.96-3.73-2.22-1.27-6.95-4.47-10.19-10.28-1.53-2.74-2.31-5.13-3.05-9.37-.94-5.4-.55-11.4-.2-25.91-6.09,1.29-22.96,7.97-29.02,12.14,0,0,3.34,5.7,6.41,15.15,1.16,3.57,2.67,13.88,2.73,19.13.09,6.79-.66,14.44-2.4,23.84-1.09,5.9-2.96,13.02-3.36,14.31-2.39,7.68-5.49,11.99-8.79,14.98-1.89,1.71-6.4,5.23-12.92,6.52-3.08.61-5.59.61-9.85,0-5.29-.75-10.75-2.91-24.64-7.79-.66,6.19.59,23.65,2.69,30.7,0,0,6.45-1.42,16.39-1.41,3.75,0,14.03,1.75,19.04,3.31,6.48,2.02,13.53,5.09,21.93,9.65,5.28,2.86,11.47,6.84,12.57,7.62,6.57,4.65,9.7,8.92,11.53,12.99,1.05,2.33,2.99,7.7,2.2,14.3-.37,3.12-1.15,5.5-3.04,9.37-2.37,4.83-5.92,9.46-14.84,21.13,5.69,2.54,22.75,6.94,30.1,7.12,0,0,.65-6.58,3.72-16.03,1.16-3.57,6-12.8,9.03-17.08,3.92-5.54,9.03-11.3,15.95-17.88,4.35-4.13,10.05-8.79,11.14-9.6,6.45-4.81,11.49-6.47,15.92-6.95,2.54-.27,8.25-.47,14.28,2.32,2.85,1.32,4.88,2.79,7.97,5.79,3.89,3.77,7.04,8.74,15.35,20.79,4.17-4.62,13.63-19.6,16.08-26.53,0,0-6.05-2.65-14.09-8.49Z"/>
    </g>
    <path class="center-2" d="M10.52,139.25c0,71.04,57.59,128.63,128.63,128.63s128.63-57.59,128.63-128.63S210.2,10.61,139.15,10.61,10.52,68.2,10.52,139.25ZM28.33,139.3c0-61.02,49.46-110.48,110.48-110.48s110.48,49.46,110.48,110.48-49.46,110.48-110.48,110.48c-61.02,0-110.48-49.46-110.48-110.48Z"/>
    <path class="center-2 shadow-2" d="M8.25,156.89c.56,3.07,1.11,6.14,1.67,9.21-1.92,2.67-3.98,5.21-5.9,7.88,2.54,7.33,5.08,14.67,7.62,22,3.08.81,6.15,1.62,9.23,2.43,1.52,2.72,3.03,5.42,4.55,8.15-.93,3.09-1.89,6.23-2.86,9.43,4.78,6.11,9.56,12.22,14.35,18.34,3.17-.23,6.34-.46,9.52-.69,2.32,2.08,4.69,4.16,7.02,6.24.12,3.28.07,6.56.19,9.84,6.51,4.23,13.02,8.46,19.52,12.68,2.93-1.25,5.85-2.5,8.78-3.75,2.87,1.21,5.72,2.42,8.59,3.63,1.16,3.01,2.34,6.08,3.54,9.2,7.53,1.89,15.06,3.77,22.58,5.66,2.36-2.13,4.72-4.26,7.08-6.39,3.11.21,6.22.43,9.34.64,2.07,2.47,4.1,5.12,6.25,7.69,7.73-.66,15.47-1.32,23.2-1.98,1.54-2.78,3.08-5.56,4.62-8.35,3.01-.81,6.05-1.66,9.06-2.46,2.82,1.69,5.53,3.53,8.34,5.23,7.1-3.14,14.2-6.27,21.3-9.41.55-3.13,1.11-6.26,1.66-9.4,2.59-1.74,5.15-3.47,7.74-5.21,3.15.68,6.37,1.36,9.64,2.07,5.7-5.27,11.39-10.54,17.09-15.81-.49-3.14-.99-6.28-1.48-9.43,1.88-2.49,3.76-4.98,5.65-7.47,3.26-.39,6.52-.68,9.78-1.08,3.68-6.83,7.35-13.67,11.03-20.5-1.49-2.81-2.97-5.62-4.46-8.44.97-2.96,1.94-5.9,2.91-8.87,2.9-1.4,5.86-2.83,8.88-4.29,1.26-7.66,2.52-15.32,3.77-22.97-2.32-2.18-4.64-4.35-6.96-6.53-.04-3.12-.12-6.27-.16-9.39,2.33-2.31,4.78-4.49,7.11-6.81-1.3-7.65-2.59-15.3-3.89-22.95-2.9-1.31-5.8-2.61-8.7-3.92-1.05-2.94-2.09-5.85-3.15-8.78,1.43-2.89,2.89-5.84,4.37-8.84-3.71-6.82-7.42-13.63-11.13-20.45-3.17-.29-6.33-.59-9.5-.88-1.95-2.44-3.9-4.87-5.85-7.31.42-3.26,1.02-6.48,1.44-9.74-5.72-5.24-11.45-10.48-17.17-15.72-3.09.75-6.18,1.5-9.27,2.25-2.64-1.67-5.24-3.33-7.88-5-.65-3.16-1.31-6.38-1.98-9.66-7.12-3.1-14.23-6.2-21.35-9.3-2.68,1.71-5.36,3.43-8.04,5.14-3.03-.72-6.1-1.42-9.14-2.15-1.67-2.83-3.18-5.74-4.85-8.57-7.74-.62-15.47-1.24-23.21-1.86-1.98,2.49-3.96,4.98-5.93,7.47-3.11.3-6.18.59-9.29.9-2.45-2.09-4.95-4.23-7.49-6.4-7.52,1.92-15.04,3.85-22.56,5.77-1.06,3-2.12,6-3.19,8.99-2.84,1.29-5.68,2.57-8.52,3.86-3.06-1.21-6.04-2.56-9.09-3.77-6.49,4.26-12.97,8.52-19.46,12.78-.03,3.18-.06,6.36-.09,9.54-2.27,2.14-4.51,4.27-6.78,6.41-3.22-.15-6.5-.3-9.85-.45-4.75,6.14-9.5,12.27-14.25,18.41l3.01,9.06c-1.45,2.76-2.88,5.57-4.32,8.33-3.15.92-6.34,1.68-9.5,2.6-2.5,7.35-5,14.69-7.5,22.04,1.93,2.53,3.86,5.06,5.79,7.59-.47,3.08-.94,6.14-1.41,9.22-2.63,1.86-5.32,3.76-8.05,5.69.02,7.76.04,15.52.06,23.28,2.65,1.77,5.29,3.53,7.94,5.3ZM10.64,139.15c0-71.04,57.59-128.63,128.63-128.63,71.04,0,128.63,57.59,128.63,128.63,0,71.04-57.59,128.63-128.63,128.63-71.04,0-128.63-57.59-128.63-128.63Z"/>
  </g>
  <g id="Ebene_3" data-name="Ebene 3">
    <path class="shadow" d="M46.17,121.99c7.91,1.05,13.15-.82,16.02-2.25,13.76-6.88,20.71-27.68,15.59-51.35,1.92-7.29,3.94-14.51,5.85-21.8,0,0,3.34,5.7,6.41,15.15,1.16,3.57,2.67,13.88,2.73,19.13.09,6.79-.66,14.44-2.4,23.84-1.09,5.9-2.96,13.02-3.36,14.31-2.39,7.68-5.49,11.99-8.79,14.98-1.89,1.71-6.4,5.23-12.92,6.52-3.08.61-5.59.61-9.85,0-5.29-.75-10.75-2.91-24.64-7.8,5.1-3.58,10.26-7.15,15.36-10.73ZM93.83,222.5c3.44-7.2,3.28-12.76,2.8-15.93-2.29-15.22-19.92-28.25-44.02-30.7-6.34-4.07-12.74-8.38-19.08-12.45,0,0,6.37-1.49,16.35-1.41,3.75.03,14.03,1.75,19.04,3.31,6.48,2.02,13.53,5.09,21.93,9.65,5.28,2.86,11.47,6.84,12.57,7.62,6.57,4.65,9.7,8.92,11.53,12.99,1.05,2.33,2.99,7.7,2.2,14.3-.37,3.12-1.15,5.5-3.04,9.37-2.37,4.83-5.87,9.45-14.79,21.13-1.83-5.96-3.67-11.93-5.5-17.88ZM204.11,208.56c-5.78-5.49-11.12-7.06-14.28-7.59-15.18-2.52-33.02,10.22-42.8,32.38-5.83,4.77-11.77,9.39-17.61,14.16,0,0,.61-6.58,3.68-16.03,1.16-3.57,6-12.8,9.03-17.08,3.92-5.54,9.03-11.3,15.95-17.88,4.35-4.13,10.05-8.79,11.14-9.6,6.45-4.81,11.49-6.47,15.92-6.95,2.54-.27,8.25-.47,14.28,2.32,2.85,1.32,4.88,2.79,7.97,5.79,3.89,3.77,7.04,8.74,15.35,20.79,0,0-12.41-.21-18.64-.31ZM231.01,81.56c-2.02,5.9-4.1,11.79-6.13,17.68-7.01,3.8-10.15,8.39-11.63,11.24-7.09,13.66-.49,34.56,17.57,50.71,2.73,7.02,5.3,14.12,8.03,21.14h-.04s-6.05-2.65-14.09-8.49c-3.04-2.21-10.32-9.67-13.45-13.87-4.06-5.44-7.95-12.08-12.07-20.7-2.59-5.42-5.26-12.27-5.69-13.56-2.58-7.62-2.6-12.92-1.69-17.28.52-2.5,2.11-7.99,6.62-12.87,2.13-2.3,4.16-3.78,7.97-5.8,4.73-2.5,24.56-8.21,24.56-8.21h.04ZM112.65,34.44c4.98,3.74,9.97,7.49,14.95,11.23,1.45,7.84,4.84,12.25,7.09,14.53,10.8,10.96,32.72,11.15,53.66-1.04,7.52-.43,22.54-1.04,22.58-1.04h0s-4.43,4.94-12.47,10.78c-3.04,2.2-12.38,6.83-17.35,8.51-6.43,2.18-13.94,3.83-23.42,5.09-5.95.79-13.3,1.21-14.65,1.22-8.05.1-13.1-1.52-16.96-3.73-2.22-1.27-6.95-4.47-10.19-10.28-1.53-2.74-2.31-5.13-3.05-9.37-.94-5.4-.55-11.4-.2-25.91"/>
    <g class="pub">
      <circle class="roller" cx="139.19" cy="56.27" r="25.62"/>
      <circle class="roller" cx="218.3" cy="113.9" r="25.62"/>
      <circle class="roller" cx="60.25" cy="114.08" r="25.62"/>
      <circle class="roller" cx="90.42" cy="206.81" r="25.62"/>
      <circle class="roller" cx="188.31" cy="206.81" r="25.62"/>
    </g>
    <text class="text pub" transform="translate(88.87 162.94)"><tspan x="0" y="0">PUB</tspan></text>
  </g>
</svg>